<svg width="79" height="18" viewBox="0 0 79 18" fill="none" xmlns="http://www.w3.org/2000/svg">
<g clip-path="url(#clip0_648_1113)">
<mask id="mask0_648_1113" style="mask-type:luminance" maskUnits="userSpaceOnUse" x="0" y="0" width="79" height="18">
<path d="M79 0H0V18H79V0Z" fill="white"/>
</mask>
<g mask="url(#mask0_648_1113)">
<path d="M18.83 15.0446L18.0324 12.5882L17.2661 10.2265L17.2359 10.133L16.609 9.80678L15.067 9.00432H15.068H15.0586L16.5997 8.20185L17.2265 7.87566L17.2567 7.78324L18.0241 5.42042L18.8207 2.96519L19.1143 2.06051L19.2715 1.57446H17.4264L17.3962 1.6658L16.5997 4.11995L15.9374 6.16094L15.8208 6.52082L15.802 6.57629L13.0198 8.02461L13.957 9.00432L13.958 9.00544L13.023 9.98189L13.1073 10.0242L13.5884 10.2755L14.463 10.73L15.8115 11.4313V11.4324L15.8292 11.4879L15.9468 11.8488L16.608 13.8876L17.4347 16.4396L19.2809 16.4342L19.1237 15.9482L18.83 15.0446Z" fill="url(#paint0_linear_648_1113)"/>
<path d="M3.6392 3.1011L4.43577 5.55634L4.92515 5.81075L6.50475 6.63279L6.65674 6.71222L7.13886 6.9623L7.23777 7.0145L8.54143 5.65314L7.0722 4.88762L5.8602 4.25696L5.64468 3.59258L5.10009 1.9148L4.72211 0.748078L4.48158 0.00976562H2.63544L3.25394 1.9148L3.6392 3.1011Z" fill="url(#paint1_linear_648_1113)"/>
<path d="M14.8358 5.55634L15.4731 3.59258L15.6324 3.10111L16.0177 1.9148L16.6361 0.00976562H14.79L14.5505 0.748078L14.1715 1.9148L13.6269 3.59258L13.4114 4.25696L12.2004 4.88762L10.7427 5.64662L12.0463 7.00798L14.8358 5.55634Z" fill="url(#paint2_linear_648_1113)"/>
<path d="M4.44511 12.4534L3.80682 14.4161L3.64751 14.9076L3.26329 16.0938L2.64478 18H4.49092L4.73041 17.2606L5.10943 16.0938L5.65401 14.4161L5.86953 13.7517L7.0805 13.121L8.54346 12.3599L7.23985 10.9985L4.44511 12.4534Z" fill="url(#paint3_linear_648_1113)"/>
<path d="M15.6417 14.9077L14.8452 12.4535L14.3558 12.1991L12.7752 11.376L12.6241 11.2977V11.2966L12.1421 11.0465L12.0494 10.9976L10.7457 12.36L12.2087 13.1212L13.4207 13.7518L13.6363 14.4162L14.1808 16.094L14.5588 17.2607L14.7993 18.0001H16.6455L16.027 16.094L15.6417 14.9077Z" fill="url(#paint4_linear_648_1113)"/>
<path d="M3.34347 11.8489V11.8478L3.46009 11.4879L3.47883 11.4325L6.26627 9.98195L5.33122 9.00551L5.33227 9.00438L6.26421 8.0312L6.17358 7.98446L5.69255 7.73437L4.81789 7.27874L3.46946 6.57742V6.57635L3.45176 6.52089L3.3341 6.15987L2.6729 4.1211L1.8451 1.56909L0 1.57453L0.157229 2.06057L0.450863 2.96525L1.24847 5.42158L2.01483 7.78224L2.04502 7.87572L2.67186 8.20192L4.21396 9.00438L4.21292 9.00551H4.22229L2.68123 9.80684L2.05336 10.133L2.0242 10.2255L1.25679 12.5883L0.460235 15.0446L0.166601 15.9482L0.00833006 16.4343H1.85448L1.88467 16.3429L2.68123 13.8888L3.34347 11.8489Z" fill="url(#paint5_linear_648_1113)"/>
<path d="M11.8494 9.36976L12.1993 9.00549L12.1983 9.00442L11.8453 8.63581L10.8717 7.61915L9.64513 6.33716L8.4123 7.62568L7.43768 8.64234L7.09197 9.00442L7.09094 9.00549L7.44081 9.36976L8.41435 10.3875L9.64513 11.6717L10.8749 10.3875L11.8494 9.36976Z" fill="url(#paint6_linear_648_1113)"/>
<path d="M30.1495 15.3066C30.2683 15.1768 30.4114 15.074 30.5699 15.0046C30.7285 14.9352 30.8991 14.9006 31.071 14.9032C31.324 14.8999 31.5715 14.9802 31.7781 15.1327C31.9854 15.2824 32.1479 15.4906 32.2466 15.7328L31.8811 15.8416C31.8117 15.6777 31.6995 15.5375 31.5573 15.4371C31.414 15.3357 31.2442 15.2825 31.071 15.2849H31.0596C30.9377 15.2819 30.8167 15.3058 30.7044 15.3551C30.592 15.4044 30.491 15.4779 30.4077 15.5709C30.2384 15.7638 30.1445 16.0159 30.1445 16.2776C30.1445 16.5394 30.2384 16.7915 30.4077 16.9844C30.4921 17.0786 30.5947 17.153 30.7087 17.2027C30.8227 17.2523 30.9455 17.2761 31.0689 17.2726C31.2408 17.2767 31.4097 17.2259 31.5531 17.1269C31.6932 17.0278 31.8036 16.8895 31.8718 16.7278L32.2404 16.8311C32.1436 17.0716 31.9832 17.2783 31.7781 17.427C31.5702 17.5781 31.3222 17.6573 31.0689 17.6532C30.8967 17.6565 30.7256 17.6225 30.5664 17.5535C30.4074 17.4844 30.2636 17.3818 30.1443 17.2519C29.8997 16.9932 29.7626 16.6444 29.7626 16.2809C29.7626 15.9174 29.8997 15.5686 30.1443 15.3099L30.1495 15.3066Z" fill="#0E0E37"/>
<path d="M35.5432 17.6313V14.9423H36.674C36.7866 14.9386 36.8987 14.9595 37.003 15.0037C37.1074 15.0479 37.2017 15.1144 37.28 15.199C37.3569 15.2799 37.4176 15.3759 37.4586 15.4816C37.4995 15.5873 37.5199 15.7004 37.5185 15.8144C37.5213 15.9971 37.464 16.1752 37.356 16.3189C37.2516 16.461 37.1052 16.563 36.9395 16.6092L37.5507 17.6313H37.1197L36.5345 16.6528H35.9223V17.6313H35.5432ZM36.648 16.3059C36.7811 16.3108 36.9107 16.2604 37.0082 16.1656C37.055 16.1188 37.0917 16.0624 37.1161 15.9998C37.1405 15.9372 37.1521 15.87 37.1499 15.8024C37.1535 15.6698 37.1071 15.541 37.0207 15.4437C36.9762 15.3951 36.9222 15.357 36.8624 15.3321C36.8026 15.3072 36.7383 15.2958 36.674 15.299H35.9223V16.3059H36.648Z" fill="#0E0E37"/>
<path d="M42.6581 14.9424V15.311H41.2181V16.1059H42.5113V16.4669H41.2181V17.2617H42.6581V17.6314H40.838V14.9424H42.6581Z" fill="#0E0E37"/>
<path d="M45.9339 17.6314L46.871 14.9424H47.4958L48.4163 17.6314H48.0185L47.8051 17.016H46.5493L46.3317 17.6314H45.9339ZM47.6947 16.6528L47.1865 15.1359L46.6659 16.6528H47.6947Z" fill="#0E0E37"/>
<path d="M51.287 14.9424H53.3539V15.311H52.5209V17.6314H52.1419V15.311H51.287V14.9424Z" fill="#0E0E37"/>
<path d="M56.663 17.6314V14.9424H57.0461V17.6314H56.663Z" fill="#0E0E37"/>
<path d="M60.7521 15.3144C60.8728 15.1875 61.0167 15.0868 61.1747 15.0181C61.3332 14.9494 61.5026 14.9141 61.6741 14.9141C61.8457 14.9141 62.015 14.9494 62.1736 15.0181C62.3316 15.0868 62.4755 15.1875 62.5962 15.3144C62.8413 15.573 62.9793 15.9223 62.9793 16.2865C62.9793 16.6506 62.8413 16.9999 62.5962 17.2586C62.475 17.3857 62.331 17.4865 62.1725 17.5554C62.0139 17.6242 61.8435 17.6597 61.672 17.6597C61.5004 17.6597 61.33 17.6242 61.1715 17.5554C61.0129 17.4865 60.869 17.3857 60.7478 17.2586C60.5048 16.9982 60.3685 16.649 60.3685 16.2853C60.3685 15.9217 60.5048 15.5725 60.7478 15.3122L60.7521 15.3144ZM60.7521 16.293C60.7494 16.4232 60.7716 16.5527 60.817 16.674C60.863 16.7953 60.9307 16.906 61.0178 16.9998C61.1027 17.092 61.2055 17.1654 61.3186 17.2154C61.4317 17.2655 61.5535 17.2914 61.6763 17.2914C61.7991 17.2914 61.9209 17.2655 62.034 17.2154C62.147 17.1654 62.2493 17.092 62.3348 16.9998C62.5085 16.8099 62.6032 16.5557 62.5983 16.293C62.6032 16.0279 62.508 15.7715 62.3326 15.5797C62.2477 15.4868 62.146 15.4129 62.0329 15.3624C61.9198 15.3119 61.798 15.2858 61.6752 15.2858C61.5524 15.2858 61.4306 15.3119 61.3176 15.3624C61.2045 15.4129 61.1022 15.4868 61.0178 15.5797C60.843 15.771 60.7472 16.0265 60.7521 16.2908V16.293Z" fill="#0E0E37"/>
<path d="M66.9536 14.9424L68.092 17.3694V14.9424H68.4638V17.6314H67.8004L66.6473 15.161V17.6314H66.275V14.9424H66.9536Z" fill="#0E0E37"/>
<path d="M72.0913 15.1184C72.292 14.9772 72.5301 14.9047 72.772 14.9108C73.1091 14.9049 73.4381 15.0145 73.7092 15.2228V15.6415C73.5723 15.5325 73.4213 15.4443 73.2606 15.3794C73.1069 15.3155 72.943 15.2819 72.7774 15.2805C72.6318 15.2776 72.4879 15.3151 72.3607 15.3892C72.3083 15.4153 72.2639 15.4563 72.2325 15.5073C72.2011 15.5585 72.1838 15.6177 72.1827 15.6785C72.1816 15.719 72.1903 15.7593 72.2071 15.7958C72.2265 15.8352 72.2568 15.868 72.2931 15.8905C72.3348 15.9188 72.3716 15.9416 72.4035 15.959C72.456 15.9855 72.5106 16.0063 72.5669 16.021L72.7411 16.071C72.7785 16.0808 72.845 16.0982 72.9494 16.121C73.2617 16.1971 73.477 16.3025 73.6053 16.4352C73.6664 16.4964 73.7146 16.5699 73.7476 16.6512C73.7806 16.7325 73.7974 16.8199 73.7968 16.9082V16.9159C73.8006 17.0259 73.7768 17.1349 73.7281 17.2322C73.6789 17.3296 73.6058 17.4117 73.5165 17.4704C73.3206 17.6028 73.0912 17.6705 72.8575 17.665H72.8201C72.4538 17.6669 72.101 17.5226 71.8332 17.2616V16.843C72.1021 17.1215 72.463 17.2823 72.8418 17.2921C72.983 17.2967 73.1231 17.263 73.2481 17.1942C73.2985 17.1683 73.3407 17.1281 73.3704 17.078C73.3996 17.0279 73.4148 16.9702 73.4137 16.9115C73.4121 16.854 73.3959 16.7979 73.3666 16.7491C73.3374 16.7002 73.2968 16.6602 73.2481 16.6331C73.0707 16.5308 72.8791 16.4574 72.6805 16.4157C72.4424 16.3721 72.2152 16.2761 72.015 16.134C71.9479 16.0801 71.8943 16.0103 71.8581 15.9303C71.8218 15.8504 71.804 15.7625 71.8072 15.6741C71.8056 15.5639 71.831 15.4552 71.8808 15.3581C71.9306 15.2609 72.0025 15.1785 72.0913 15.1184Z" fill="#0E0E37"/>
<path d="M25.5836 2.71602H26.6561V4.26662C26.8817 3.77599 27.2281 3.35683 27.6599 3.05206C28.1237 2.72672 28.6726 2.55921 29.2311 2.57251C29.8173 2.56392 30.3911 2.74846 30.8712 3.09989C31.3695 3.47725 31.74 4.01039 31.929 4.62218C32.1571 4.01449 32.5565 3.49344 33.0744 3.12813C33.5889 2.76251 34.1983 2.57014 34.8206 2.57687C35.224 2.56763 35.6247 2.64672 35.9971 2.8091C36.3694 2.97147 36.705 3.21351 36.9822 3.51959C37.5647 4.14808 37.8559 5.01108 37.8559 6.10857V11.1887H36.7865V6.42824C36.7865 5.53373 36.5949 4.83853 36.2117 4.3427C35.8286 3.84687 35.31 3.59931 34.6561 3.60003C33.921 3.60003 33.3437 3.87405 32.9245 4.42207C32.4993 4.99053 32.2674 5.69064 32.2654 6.41193V11.1887H31.1929V6.42824C31.1929 5.53373 30.9989 4.83853 30.6108 4.3427C30.4259 4.10154 30.1897 3.90884 29.9209 3.77991C29.6521 3.65097 29.3581 3.58935 29.0625 3.60003C28.3065 3.60003 27.7165 3.88999 27.2923 4.46991C26.8623 5.0709 26.6382 5.80544 26.6561 6.55548V11.1887H25.5836V2.71602Z" fill="#0E0E37"/>
<path d="M40.1351 3.85143C40.5063 3.43993 40.9555 3.11374 41.4541 2.89358C41.9526 2.67342 42.4897 2.56414 43.0309 2.57274C43.676 2.5667 44.311 2.73955 44.8712 3.07367C45.4313 3.4078 45.8965 3.89118 46.2192 4.47449V2.71625H47.2917V11.1845H46.2192V9.42742C45.9051 10.0004 45.45 10.4754 44.901 10.8029C44.3315 11.1459 43.6841 11.3225 43.0267 11.3139C42.4848 11.3224 41.9472 11.2123 41.4485 10.9907C40.9498 10.7692 40.501 10.4412 40.131 10.0276C39.3643 9.19922 38.9358 8.09216 38.9358 6.9401C38.9358 5.78799 39.3643 4.68098 40.131 3.85255L40.1351 3.85143ZM39.9665 6.93521C39.9577 7.37627 40.0346 7.81457 40.1926 8.22367C40.3506 8.63278 40.5865 9.00414 40.8859 9.31537C41.1779 9.62503 41.5261 9.87062 41.9102 10.0377C42.2943 10.2049 42.7066 10.2902 43.1227 10.2887C43.5388 10.2872 43.9505 10.1989 44.3334 10.029C44.7164 9.85897 45.063 9.61085 45.3529 9.29906C45.9474 8.67024 46.2808 7.8221 46.2808 6.93842C46.2808 6.05473 45.9474 5.20664 45.3529 4.57781C45.062 4.26711 44.7145 4.02025 44.331 3.8517C43.9474 3.68316 43.5355 3.59632 43.1194 3.59632C42.7033 3.59632 42.2913 3.68316 41.9078 3.8517C41.5242 4.02025 41.1768 4.26711 40.8859 4.57781C40.5887 4.886 40.3542 5.25363 40.1962 5.65867C40.0382 6.06373 39.9601 6.49787 39.9665 6.93521Z" fill="#0E0E37"/>
<path d="M50.4883 0V7.78106L55.0565 2.7162H56.3735L52.8801 6.55127L56.5245 11.1845H55.2394L52.2199 7.30266L50.4873 9.20334V11.1845H49.4148V0H50.4883Z" fill="#0E0E37"/>
<path d="M57.5927 2.71615H58.6662V7.44611C58.6662 8.31601 58.914 9.00468 59.4086 9.51211C59.6445 9.75888 59.9259 9.95345 60.2354 10.0842C60.5449 10.215 60.8766 10.2792 61.2104 10.2732C61.5838 10.2827 61.955 10.2059 62.2969 10.0484C62.6389 9.8909 62.9436 9.65656 63.1887 9.36204C63.7092 8.75532 63.9695 7.97784 63.9695 7.02969V2.71509H65.0419V11.1834H63.9695V9.55233C63.6957 10.0729 63.2969 10.5105 62.8126 10.8224C62.2818 11.1651 61.6666 11.34 61.0427 11.3258C60.145 11.3425 59.2755 10.9993 58.6132 10.3668C57.9335 9.72744 57.5937 8.86985 57.5937 7.79413L57.5927 2.71615Z" fill="#0E0E37"/>
<path d="M66.1279 2.71838H67.1976V4.50709C67.4633 3.82496 67.8491 3.34286 68.355 3.06088C68.8366 2.78543 69.3766 2.64007 69.9253 2.63794C70.1618 2.63912 70.3977 2.66056 70.6303 2.70208V3.86774C70.3636 3.80645 70.0914 3.77435 69.8182 3.77201C69.1937 3.77201 68.6012 4.01448 68.0407 4.49944C67.4806 4.9844 67.1993 5.80178 67.1976 6.95147V11.1856H66.1246L66.1279 2.71838Z" fill="#0E0E37"/>
<path d="M71.8424 3.85246C72.2136 3.44098 72.6632 3.11476 73.1621 2.8946C73.6605 2.67445 74.1978 2.56515 74.7394 2.57371C75.3833 2.56862 76.0175 2.74195 76.5764 3.07602C77.1354 3.4101 77.6002 3.89301 77.9221 4.47551V2.71833H78.9957V11.1856H77.9221V9.42837C77.6094 10.0001 77.1559 10.4746 76.6094 10.8028C76.0397 11.1457 75.3925 11.3222 74.7351 11.3139C74.1929 11.3222 73.655 11.2121 73.1562 10.9906C72.6573 10.769 72.2087 10.441 71.8381 10.0275C71.0713 9.19909 70.6428 8.09209 70.6428 6.93998C70.6428 5.78792 71.0713 4.68088 71.8381 3.85246H71.8424ZM71.6746 6.93615C71.666 7.37721 71.7428 7.81557 71.9008 8.22467C72.0588 8.63378 72.2947 9.0052 72.594 9.31637C72.8861 9.6262 73.2346 9.8719 73.6188 10.0391C74.003 10.2064 74.4153 10.2918 74.8314 10.2903C75.2475 10.2888 75.6593 10.2004 76.0424 10.0304C76.4255 9.86031 76.7723 9.61202 77.0623 9.30012C77.6559 8.67085 77.9887 7.82288 77.9887 6.93947C77.9887 6.05601 77.6559 5.20801 77.0623 4.57877C76.7712 4.26791 76.4238 4.02094 76.0402 3.8523C75.6566 3.68366 75.2442 3.59676 74.8281 3.59676C74.412 3.59676 73.9997 3.68366 73.6161 3.8523C73.2325 4.02094 72.8851 4.26791 72.594 4.57877C72.2974 4.8873 72.0631 5.25499 71.9051 5.65995C71.7471 6.06495 71.6687 6.49892 71.6746 6.93615Z" fill="#0E0E37"/>
</g>
</g>
<defs>
<linearGradient id="paint0_linear_648_1113" x1="23.7104" y1="14.6009" x2="8.48762" y2="0.0235059" gradientUnits="userSpaceOnUse">
<stop stop-color="#1616F7"/>
<stop offset="1" stop-color="#43B2E5"/>
</linearGradient>
<linearGradient id="paint1_linear_648_1113" x1="19.7433" y1="18.7438" x2="4.52049" y2="4.16631" gradientUnits="userSpaceOnUse">
<stop stop-color="#1616F7"/>
<stop offset="1" stop-color="#43B2E5"/>
</linearGradient>
<linearGradient id="paint2_linear_648_1113" x1="24.3373" y1="13.9474" x2="9.11345" y2="-0.631039" gradientUnits="userSpaceOnUse">
<stop stop-color="#1616F7"/>
<stop offset="1" stop-color="#43B2E5"/>
</linearGradient>
<linearGradient id="paint3_linear_648_1113" x1="14.3756" y1="24.349" x2="-0.848244" y2="9.77162" gradientUnits="userSpaceOnUse">
<stop stop-color="#1616F7"/>
<stop offset="1" stop-color="#43B2E5"/>
</linearGradient>
<linearGradient id="paint4_linear_648_1113" x1="18.9664" y1="19.555" x2="3.74364" y2="4.97651" gradientUnits="userSpaceOnUse">
<stop stop-color="#1616F7"/>
<stop offset="1" stop-color="#43B2E5"/>
</linearGradient>
<linearGradient id="paint5_linear_648_1113" x1="15.0003" y1="23.6978" x2="-0.223529" y2="9.11931" gradientUnits="userSpaceOnUse">
<stop stop-color="#1616F7"/>
<stop offset="1" stop-color="#43B2E5"/>
</linearGradient>
<linearGradient id="paint6_linear_648_1113" x1="19.3569" y1="19.1472" x2="4.13416" y2="4.56979" gradientUnits="userSpaceOnUse">
<stop stop-color="#1616F7"/>
<stop offset="1" stop-color="#43B2E5"/>
</linearGradient>
<clipPath id="clip0_648_1113">
<rect width="79" height="18" fill="white"/>
</clipPath>
</defs>
</svg>
