<svg width="466" height="375" viewBox="0 0 466 375" fill="none" xmlns="http://www.w3.org/2000/svg">
<path d="M74 280.645L81.4043 268.038L124.87 194.133C126.03 192.148 127.703 190.499 129.719 189.352C131.736 188.205 134.025 187.601 136.356 187.601C138.686 187.601 140.975 188.205 142.992 189.352C145.009 190.499 146.681 192.148 147.841 194.133L191.307 268.038L198.711 280.645L233.585 221.357L277.859 145.939C279.675 142.857 282.284 140.299 285.424 138.521C288.564 136.742 292.126 135.806 295.751 135.806C299.376 135.806 302.937 136.742 306.078 138.521C309.218 140.299 311.827 142.857 313.643 145.939L352.863 212.696L392.816 280.645H74Z" fill="#E5E5E5"/>
<path d="M417.873 35.8229L417.877 35.8268C432.237 48.6063 443.714 64.1949 451.571 81.59C459.428 98.9851 463.492 117.802 463.5 136.831V372.316H2.5V152.441C2.57318 128.302 9.42687 104.65 22.3075 84.0878C35.1883 63.5258 53.5971 46.8512 75.5085 35.9007C91.9944 27.673 110.216 23.356 128.709 23.2967L128.71 23.2967C146.44 23.2234 163.901 27.5571 179.467 35.8935C197.731 45.7832 212.888 60.3952 223.294 78.1433L223.799 79.0041L224.186 78.0845C230.826 62.3227 240.503 47.9675 252.685 35.8072L252.688 35.8042C263.06 25.2733 275.483 16.8977 289.219 11.1762C302.954 5.45491 317.72 2.50429 332.64 2.5C364.287 2.7976 394.68 14.6811 417.873 35.8229Z" stroke="#E5E5E5"/>
</svg>
