<svg width="249" height="52" viewBox="0 0 249 52" fill="none" xmlns="http://www.w3.org/2000/svg">
<path d="M73.648 32.3618C72.9068 32.3731 72.1685 32.2697 71.4606 32.0556C70.8517 31.8666 70.2787 31.5822 69.764 31.2134C69.2894 30.8763 68.87 30.4711 68.5202 30.0116L68.0436 32.0022H64.2764V9.96143H68.5202V18.7058C69.0433 17.9732 69.7249 17.361 70.517 16.9124C71.464 16.405 72.5344 16.1565 73.6146 16.1932C74.9979 16.1702 76.3585 16.5376 77.532 17.2511C78.6785 17.9608 79.6116 18.9534 80.2365 20.128C80.9138 21.4197 81.2535 22.8541 81.2253 24.3042C81.249 25.7397 80.9094 27.1588 80.2365 28.4362C79.6201 29.6128 78.6912 30.6071 77.5463 31.3155C76.3769 32.0213 75.0236 32.3846 73.648 32.3618ZM72.6401 28.7471C73.4192 28.7628 74.1874 28.5668 74.8585 28.181C75.4958 27.8058 76.0131 27.2651 76.3525 26.6196C76.722 25.9002 76.9053 25.1037 76.8862 24.2995C76.9014 23.4883 76.7185 22.6852 76.3525 21.9562C76.0195 21.2986 75.5014 20.7466 74.8585 20.3647C74.1869 19.9806 73.4187 19.7862 72.6401 19.8032C71.8718 19.7899 71.115 19.986 70.455 20.3693C69.8116 20.7486 69.2893 21.2949 68.9467 21.947C68.5684 22.6639 68.3793 23.4612 68.3963 24.2671C68.3756 25.0828 68.5622 25.891 68.9396 26.6196C69.2771 27.2751 69.8006 27.8226 70.4479 28.1973C71.1136 28.5714 71.8716 28.7615 72.6401 28.7471Z" fill="#015637"/>
<path d="M90.4706 32.3618C89.0433 32.3817 87.6368 32.0275 86.3984 31.3363C85.1981 30.656 84.2098 29.6714 83.539 28.4873C82.8196 27.2086 82.4565 25.7688 82.4858 24.3111C82.4515 22.8322 82.8145 21.3702 83.539 20.07C84.213 18.882 85.2085 17.8966 86.4174 17.2209C87.6721 16.5483 89.0812 16.1956 90.5135 16.1956C91.9458 16.1956 93.3548 16.5483 94.6095 17.2209C95.8098 17.9012 96.7981 18.8859 97.4689 20.07C98.1901 21.3606 98.5531 22.812 98.5221 24.281C98.5528 25.7491 98.1898 27.1997 97.4689 28.4896C96.7939 29.6769 95.7986 30.662 94.5905 31.3386C93.3352 32.0307 91.9129 32.384 90.4706 32.3618ZM90.4706 28.7773C91.1403 28.7893 91.8003 28.6198 92.3768 28.2877C92.962 27.9292 93.4221 27.4067 93.6969 26.789C94.0458 25.9969 94.2125 25.1401 94.1854 24.2786C94.2141 23.4216 94.0473 22.569 93.6969 21.7822C93.4162 21.1675 92.9574 20.6459 92.3768 20.2811C91.9518 20.0211 91.4744 19.8531 90.9769 19.7885C90.4794 19.7238 89.9734 19.764 89.4932 19.9064C89.013 20.0487 88.5699 20.2899 88.1938 20.6135C87.8177 20.9372 87.5175 21.3357 87.3134 21.7822C86.9621 22.5687 86.7952 23.4215 86.8249 24.2786C86.7966 25.1402 86.9634 25.9972 87.3134 26.789C87.5881 27.4067 88.0483 27.9292 88.6334 28.2877C89.1873 28.6137 89.8234 28.7832 90.4706 28.7773Z" fill="#015637"/>
<path d="M100.283 31.9929V9.95215H104.527V31.9929H100.283Z" fill="#015637"/>
<path d="M113.836 32.3618C112.466 32.3822 111.119 32.0208 109.952 31.3201C108.802 30.619 107.872 29.6228 107.265 28.4409C106.6 27.1609 106.265 25.7429 106.288 24.3088C106.26 22.8586 106.601 21.4241 107.279 20.1327C107.907 18.9497 108.853 17.9541 110.014 17.2511C111.189 16.5429 112.548 16.1759 113.929 16.1932C114.96 16.1718 115.983 16.3813 116.917 16.8057C117.756 17.1969 118.473 17.7992 118.993 18.5504V9.94751H123.239V31.9883H119.455L118.978 29.877C118.639 30.3313 118.243 30.7427 117.799 31.102C117.301 31.5089 116.731 31.8235 116.117 32.03C115.381 32.2652 114.61 32.3774 113.836 32.3618ZM114.842 28.7471C115.625 28.765 116.398 28.5688 117.072 28.181C117.713 27.8026 118.231 27.2557 118.566 26.6034C118.933 25.8828 119.116 25.0871 119.1 24.2833C119.115 23.4795 118.932 22.6838 118.566 21.9632C118.23 21.3113 117.712 20.7646 117.072 20.3856C116.399 19.9921 115.627 19.7903 114.842 19.8032C114.079 19.7939 113.329 19.9898 112.674 20.3693C112.023 20.7456 111.495 21.2923 111.149 21.947C110.771 22.6551 110.581 23.4438 110.596 24.2415C110.576 25.0598 110.766 25.87 111.149 26.5987C111.491 27.2508 112.013 27.7971 112.657 28.1764C113.316 28.5613 114.073 28.759 114.842 28.7471Z" fill="#015637"/>
<path d="M131.164 31.9929V9.95215H133.363V19.3183C133.887 18.3593 134.677 17.5632 135.644 17.0214C136.602 16.4742 137.695 16.1882 138.806 16.1932C139.892 16.1664 140.968 16.4058 141.934 16.8892C142.841 17.3734 143.567 18.1236 144.01 19.0329C144.501 19.9919 144.747 21.2161 144.749 22.7056V31.986H142.568V22.9608C142.568 21.3059 142.217 20.0762 141.515 19.2719C140.813 18.4676 139.78 18.0639 138.417 18.0608C137.506 18.0469 136.61 18.2858 135.833 18.7496C135.056 19.2135 134.431 19.8831 134.031 20.6802C133.55 21.658 133.318 22.7337 133.354 23.817V31.9929H131.164Z" fill="#015637"/>
<path d="M148.428 12.9171C148.218 12.9202 148.01 12.8826 147.816 12.8065C147.621 12.7304 147.445 12.6174 147.296 12.4739C147.14 12.3304 147.018 12.1567 146.935 11.9641C146.853 11.7714 146.814 11.5642 146.819 11.3557C146.809 11.1485 146.845 10.9416 146.923 10.7488C147.002 10.556 147.121 10.3817 147.274 10.2374C147.589 9.95912 148.003 9.81173 148.428 9.82673C148.835 9.82295 149.229 9.97064 149.528 10.2397C149.687 10.3809 149.812 10.5542 149.894 10.7474C149.976 10.9406 150.014 11.149 150.005 11.358C150.011 11.5649 149.974 11.7709 149.895 11.9633C149.816 12.1556 149.698 12.3302 149.547 12.4763C149.402 12.6205 149.227 12.734 149.034 12.8098C148.842 12.8856 148.635 12.9221 148.428 12.9171ZM147.334 31.9928V16.555H149.536V31.9858L147.334 31.9928Z" fill="#015637"/>
<path d="M152.39 31.9929V16.5551H154.401L154.558 18.8752C155.02 18.0377 155.719 17.3469 156.572 16.8845C157.447 16.415 158.432 16.1751 159.431 16.1885C160.179 16.1832 160.922 16.2993 161.631 16.5319C162.283 16.7456 162.883 17.0893 163.392 17.5411C163.924 18.0305 164.341 18.6255 164.616 19.2858C165.107 18.3401 165.868 17.5528 166.808 17.0191C167.733 16.4745 168.794 16.188 169.875 16.1908C170.976 16.1629 172.067 16.4021 173.049 16.8869C173.963 17.3668 174.695 18.1177 175.141 19.0306C175.634 19.9896 175.88 21.2038 175.88 22.6732V31.9813H173.68V22.9307C173.68 21.2973 173.34 20.0778 172.658 19.2719C171.977 18.4661 171.007 18.0624 169.749 18.0608C168.933 18.0547 168.134 18.284 167.452 18.7197C166.736 19.1869 166.174 19.8461 165.834 20.6176C165.417 21.5917 165.219 22.6414 165.253 23.6963V31.9929H163.06V22.9307C163.06 21.2973 162.714 20.0778 162.021 19.2719C161.329 18.4661 160.376 18.0624 159.162 18.0608C158.331 18.0474 157.515 18.2769 156.82 18.7197C156.103 19.2005 155.541 19.87 155.199 20.65C154.773 21.6422 154.57 22.7118 154.604 23.7868V31.9929H152.39Z" fill="#015637"/>
<path d="M183.207 32.3618C181.936 32.3618 180.873 32.1368 180.016 31.6867C179.227 31.2949 178.572 30.6889 178.129 29.942C177.719 29.2212 177.508 28.4089 177.517 27.5848C177.485 26.6219 177.777 25.6753 178.348 24.8888C178.949 24.1225 179.77 23.5475 180.707 23.2369C181.833 22.8506 183.021 22.6636 184.215 22.6847H188.504C188.529 21.811 188.367 20.9418 188.027 20.1326C187.75 19.4818 187.272 18.9307 186.66 18.555C185.965 18.1735 185.176 17.9879 184.379 18.0191C183.384 17.9929 182.404 18.2712 181.58 18.8148C181.19 19.0864 180.861 19.4319 180.612 19.8307C180.364 20.2294 180.201 20.6731 180.133 21.1349H177.834C177.924 20.135 178.324 19.1853 178.98 18.4111C179.623 17.6737 180.441 17.1002 181.363 16.7407C182.317 16.3642 183.338 16.1719 184.367 16.1746C185.813 16.1746 187.004 16.4453 187.942 16.9866C188.85 17.5028 189.575 18.2777 190.017 19.2069C190.485 20.2281 190.715 21.3372 190.691 22.455V31.9674H188.68L188.585 29.1508C188.369 29.5889 188.101 30.0002 187.784 30.3758C187.459 30.7699 187.077 31.116 186.65 31.4036C186.191 31.707 185.687 31.9416 185.156 32.0996C184.524 32.2829 183.867 32.3713 183.207 32.3618ZM183.46 30.4617C184.19 30.4747 184.913 30.3155 185.566 29.9976C186.17 29.6968 186.705 29.2801 187.139 28.7726C187.583 28.2572 187.924 27.6655 188.144 27.0279C188.374 26.388 188.491 25.7151 188.492 25.0373V24.4921H184.372C183.463 24.4598 182.556 24.5944 181.699 24.8888C181.113 25.0902 180.608 25.4651 180.252 25.9607C179.967 26.4309 179.815 26.9666 179.812 27.5129C179.809 28.0592 179.955 28.5965 180.236 29.0696C180.536 29.5236 180.968 29.8805 181.477 30.0951C182.103 30.3558 182.779 30.4808 183.46 30.4617Z" fill="#015637"/>
<path d="M192.955 31.9929V9.95215H195.157V31.9929H192.955Z" fill="#015637"/>
<path d="M202.798 32.3618C201.528 32.3618 200.464 32.1367 199.608 31.6867C198.819 31.2949 198.163 30.6889 197.721 29.9419C197.31 29.2212 197.099 28.4089 197.108 27.5847C197.077 26.6219 197.369 25.6753 197.94 24.8888C198.54 24.1225 199.362 23.5475 200.299 23.2369C201.425 22.8506 202.613 22.6636 203.806 22.6847H208.095C208.121 21.811 207.958 20.9418 207.619 20.1326C207.341 19.4818 206.863 18.9307 206.251 18.555C205.557 18.1735 204.767 17.9879 203.971 18.019C202.975 17.9929 201.996 18.2712 201.171 18.8148C200.781 19.0864 200.452 19.4319 200.204 19.8307C199.955 20.2294 199.792 20.6731 199.725 21.1349H197.43C197.521 20.1428 197.916 19.2002 198.564 18.4297C199.207 17.6922 200.025 17.1188 200.947 16.7592C201.901 16.3828 202.922 16.1905 203.952 16.1931C205.399 16.1931 206.59 16.4638 207.526 17.0052C208.434 17.5214 209.159 18.2963 209.601 19.2255C210.069 20.2467 210.299 21.3558 210.276 22.4736V31.9859H208.265L208.169 29.1694C207.958 29.6093 207.693 30.0229 207.381 30.4013C207.053 30.7865 206.67 31.124 206.244 31.4036C205.784 31.707 205.281 31.9416 204.75 32.0996C204.117 32.2831 203.459 32.3716 202.798 32.3618ZM203.051 30.4616C203.781 30.4747 204.504 30.3155 205.157 29.9976C205.761 29.6968 206.296 29.2801 206.73 28.7726C207.174 28.2572 207.515 27.6655 207.736 27.0279C207.969 26.3901 208.09 25.7188 208.095 25.0419V24.4921H203.964C203.055 24.4598 202.148 24.5944 201.29 24.8888C200.705 25.0902 200.199 25.4651 199.844 25.9607C199.558 26.4309 199.406 26.9666 199.403 27.5129C199.4 28.0592 199.547 28.5965 199.827 29.0696C200.127 29.5236 200.559 29.8805 201.068 30.0951C201.694 30.3558 202.371 30.4808 203.051 30.4616Z" fill="#015637"/>
<path d="M213.743 38.7303L217.641 30.2782H216.793L210.535 16.5549H212.918L218.341 28.8096L224.027 16.5549H226.29L216.044 38.7233L213.743 38.7303Z" fill="#015637"/>
<path d="M231.511 32.3618C230.231 32.3618 229.167 32.1368 228.318 31.6867C227.534 31.2924 226.883 30.6868 226.443 29.942C226.033 29.2208 225.822 28.4088 225.831 27.5848C225.798 26.6215 226.091 25.6745 226.665 24.8888C227.265 24.1235 228.085 23.5486 229.021 23.2369C230.147 22.8506 231.335 22.6636 232.529 22.6847H236.818C236.843 21.811 236.681 20.9418 236.341 20.1327C236.064 19.4818 235.586 18.9307 234.973 18.555C234.279 18.1735 233.49 17.9879 232.693 18.0191C231.697 17.9929 230.718 18.2712 229.893 18.8148C229.504 19.0867 229.175 19.4323 228.927 19.831C228.678 20.2297 228.515 20.6732 228.447 21.1349H226.133C226.225 20.1353 226.624 19.1859 227.279 18.4112C227.922 17.6735 228.74 17.1 229.662 16.7407C230.616 16.364 231.635 16.1717 232.664 16.1746C234.112 16.1746 235.303 16.4453 236.239 16.9866C237.147 17.5028 237.872 18.2777 238.314 19.2069C238.783 20.2279 239.014 21.337 238.991 22.4551V31.9674H236.977L236.882 29.1508C236.667 29.5889 236.398 30.0002 236.081 30.3758C235.758 30.7694 235.379 31.1155 234.954 31.4036C234.495 31.707 233.991 31.9416 233.46 32.0996C232.828 32.283 232.171 32.3714 231.511 32.3618ZM231.761 30.4617C232.492 30.4747 233.214 30.3155 233.868 29.9976C234.471 29.6968 235.006 29.2801 235.44 28.7726C235.886 28.2589 236.228 27.6688 236.451 27.0326C236.678 26.3922 236.795 25.7195 236.796 25.0419V24.4921H232.674C231.765 24.4602 230.858 24.5948 230 24.8888C229.415 25.0902 228.909 25.4651 228.554 25.9607C228.269 26.4309 228.116 26.9667 228.114 27.513C228.111 28.0593 228.257 28.5965 228.537 29.0696C228.838 29.5233 229.27 29.8802 229.779 30.0951C230.404 30.3561 231.081 30.4812 231.761 30.4617Z" fill="#015637"/>
<path d="M97.0781 42.1061V38.7304H95.8867V38.1086H99.0702V38.7304H97.8787V42.1061H97.0781Z" fill="#7FB51F"/>
<path d="M101.267 42.1061V38.1086H102.061V42.1061H101.267ZM101.946 40.3754V39.7559H103.988V40.3777L101.946 40.3754ZM103.852 42.1061V38.1086H104.646V42.1061H103.852Z" fill="#7FB51F"/>
<path d="M107.095 42.1061V38.1086H108.628C108.911 38.0983 109.192 38.1556 109.447 38.2757C109.648 38.3731 109.814 38.5266 109.924 38.7165C110.031 38.9043 110.086 39.1163 110.083 39.3313C110.084 39.5393 110.032 39.7442 109.931 39.9276C109.822 40.1195 109.656 40.2748 109.454 40.373C109.194 40.4956 108.907 40.5538 108.618 40.5424H107.886V42.1061H107.095ZM107.889 39.9832H108.58C108.675 39.9906 108.771 39.9792 108.862 39.9497C108.953 39.9202 109.037 39.8732 109.109 39.8115C109.168 39.7492 109.213 39.676 109.242 39.5963C109.271 39.5166 109.283 39.432 109.278 39.3475C109.283 39.2665 109.27 39.1855 109.241 39.1093C109.213 39.0331 109.168 38.9634 109.111 38.9044C108.963 38.7846 108.772 38.7263 108.58 38.742H107.889V39.9832ZM109.226 42.1061L108.38 40.3475H109.238L110.129 42.1061H109.226Z" fill="#7FB51F"/>
<path d="M114.334 42.1756C113.964 42.1831 113.599 42.0916 113.279 41.9111C112.976 41.7377 112.729 41.4864 112.564 41.1849C112.395 40.85 112.307 40.4817 112.307 40.1084C112.307 39.7351 112.395 39.3668 112.564 39.0319C112.729 38.7295 112.976 38.4774 113.279 38.3034C113.603 38.1314 113.967 38.0413 114.337 38.0413C114.706 38.0413 115.07 38.1314 115.395 38.3034C115.699 38.4754 115.947 38.728 116.11 39.0319C116.277 39.3672 116.364 39.7354 116.364 40.1084C116.364 40.4814 116.277 40.8495 116.11 41.1849C115.946 41.4876 115.698 41.7393 115.395 41.9111C115.073 42.0919 114.706 42.1834 114.334 42.1756ZM114.334 41.4796C114.563 41.4855 114.788 41.4267 114.983 41.3102C115.168 41.1944 115.315 41.0293 115.407 40.8346C115.507 40.6026 115.559 40.3533 115.559 40.1014C115.559 39.8496 115.507 39.6003 115.407 39.3683C115.313 39.1778 115.166 39.0169 114.983 38.9043C114.785 38.7963 114.562 38.7397 114.336 38.7397C114.109 38.7397 113.886 38.7963 113.689 38.9043C113.504 39.0167 113.355 39.1775 113.26 39.3683C113.159 39.6003 113.107 39.8496 113.107 40.1014C113.107 40.3533 113.159 40.6026 113.26 40.8346C113.353 41.0297 113.502 41.1947 113.689 41.3102C113.882 41.428 114.106 41.4885 114.334 41.4842V41.4796Z" fill="#7FB51F"/>
<path d="M120.27 42.1757C119.985 42.1793 119.704 42.1182 119.448 41.9971C119.203 41.8806 118.999 41.6956 118.862 41.4658C118.707 41.1906 118.632 40.8793 118.645 40.5656V38.1086H119.436V40.5702C119.43 40.7417 119.465 40.9122 119.536 41.0691C119.596 41.1981 119.698 41.3042 119.827 41.3707C119.968 41.4385 120.124 41.4712 120.282 41.4658C120.441 41.4707 120.599 41.4381 120.742 41.3707C120.87 41.3042 120.972 41.1981 121.032 41.0691C121.104 40.9122 121.138 40.7417 121.133 40.5702V38.1086H121.924V40.5656C121.937 40.8802 121.859 41.1921 121.7 41.4658C121.559 41.6974 121.349 41.8825 121.099 41.9971C120.84 42.1172 120.557 42.1783 120.27 42.1757Z" fill="#7FB51F"/>
<path d="M126.141 42.1756C125.783 42.1838 125.429 42.0955 125.119 41.9204C124.828 41.7502 124.594 41.5021 124.445 41.2058C124.279 40.8729 124.197 40.5062 124.206 40.1363C124.196 39.7603 124.277 39.3872 124.445 39.0481C124.605 38.7397 124.853 38.4827 125.159 38.308C125.498 38.1229 125.882 38.0307 126.27 38.0412C126.694 38.0267 127.111 38.1446 127.461 38.3776C127.779 38.6014 128 38.9322 128.081 39.3057H127.194C127.139 39.1343 127.023 38.9874 126.868 38.8904C126.683 38.7832 126.47 38.7308 126.256 38.7396C126.017 38.7318 125.781 38.7914 125.576 38.9113C125.388 39.0256 125.239 39.192 125.148 39.3892C125.045 39.622 124.995 39.8737 125.002 40.127C124.994 40.3796 125.044 40.6307 125.148 40.8625C125.235 41.0556 125.381 41.2177 125.567 41.3265C125.763 41.4342 125.985 41.488 126.21 41.4819C126.359 41.4928 126.509 41.4732 126.65 41.4245C126.79 41.3757 126.919 41.2989 127.028 41.1989C127.219 40.9976 127.336 40.7394 127.359 40.4657H126.365V39.8903H128.171V42.0991H127.437L127.378 41.591C127.296 41.7122 127.195 41.8196 127.078 41.9088C126.957 41.9972 126.82 42.0626 126.675 42.1014C126.502 42.1513 126.322 42.1763 126.141 42.1756Z" fill="#7FB51F"/>
<path d="M130.545 42.1061V38.1086H131.336V42.1061H130.545ZM131.226 40.3754V39.7559H133.275V40.3777L131.226 40.3754ZM133.132 42.1061V38.1086H133.923V42.1061H133.132Z" fill="#7FB51F"/>
<path d="M140.352 42.1061V38.7304H139.149V38.1086H142.33V38.7304H141.139V42.1061H140.352Z" fill="#7FB51F"/>
<path d="M144.539 42.1061V38.1086H145.33V42.1061H144.539ZM145.218 40.3754V39.7559H147.26V40.3777L145.218 40.3754ZM147.124 42.1061V38.1086H147.918V42.1061H147.124Z" fill="#7FB51F"/>
<path d="M150.37 42.1061V38.1086H153.067V38.7304H151.161V39.7768H152.891V40.3754H151.161V41.4844H153.067V42.1061H150.37Z" fill="#7FB51F"/>
<path d="M158.45 42.1061V38.1086H159.403L160.656 40.6051L161.9 38.1086H162.853V42.1061H162.062V39.4218L160.978 41.547H160.349L159.248 39.4218V42.1061H158.45Z" fill="#7FB51F"/>
<path d="M167.183 42.1758C166.813 42.183 166.448 42.0915 166.127 41.9113C165.824 41.7386 165.577 41.4872 165.412 41.1851C165.243 40.8502 165.155 40.4819 165.155 40.1086C165.155 39.7353 165.243 39.367 165.412 39.0321C165.576 38.7289 165.823 38.4765 166.127 38.3036C166.452 38.1316 166.816 38.0415 167.186 38.0415C167.556 38.0415 167.92 38.1316 168.245 38.3036C168.55 38.4756 168.798 38.7283 168.96 39.0321C169.128 39.3675 169.215 39.7356 169.215 40.1086C169.215 40.4816 169.128 40.8498 168.96 41.1851C168.797 41.4878 168.549 41.7395 168.245 41.9113C167.922 42.0921 167.555 42.1835 167.183 42.1758ZM167.183 41.4798C167.411 41.486 167.636 41.4272 167.831 41.3104C168.017 41.1948 168.165 41.0297 168.257 40.8348C168.358 40.6028 168.41 40.3535 168.41 40.1017C168.41 39.8498 168.358 39.6005 168.257 39.3685C168.163 39.1779 168.015 39.017 167.831 38.9045C167.634 38.7966 167.411 38.7399 167.185 38.7399C166.959 38.7399 166.736 38.7966 166.539 38.9045C166.354 39.0163 166.205 39.1773 166.11 39.3685C166.01 39.6005 165.958 39.8498 165.958 40.1017C165.958 40.3535 166.01 40.6028 166.11 40.8348C166.203 41.0303 166.352 41.1955 166.539 41.3104C166.732 41.4279 166.955 41.4884 167.183 41.4844V41.4798Z" fill="#7FB51F"/>
<path d="M173.118 42.1757C172.834 42.1791 172.554 42.1179 172.298 41.9971C172.052 41.8819 171.848 41.6966 171.712 41.4658C171.556 41.1908 171.481 40.8795 171.493 40.5656V38.1086H172.287V40.5702C172.281 40.7417 172.315 40.9122 172.387 41.0691C172.445 41.1985 172.547 41.3048 172.675 41.3707C172.819 41.4334 172.975 41.4658 173.132 41.4658C173.29 41.4658 173.446 41.4334 173.59 41.3707C173.719 41.3049 173.821 41.1987 173.881 41.0691C173.952 40.9122 173.986 40.7417 173.981 40.5702V38.1086H174.772V40.5656C174.785 40.8799 174.708 41.1915 174.55 41.4658C174.408 41.6963 174.199 41.8811 173.95 41.9971C173.69 42.1174 173.406 42.1785 173.118 42.1757Z" fill="#7FB51F"/>
<path d="M177.188 42.1061V38.1086H177.981L179.869 40.8672V38.1086H180.662V42.1061H179.869L177.981 39.3545V42.1061H177.188Z" fill="#7FB51F"/>
<path d="M184.062 42.1061V38.7304H182.871V38.1086H186.054V38.7304H184.863V42.1061H184.062Z" fill="#7FB51F"/>
<path d="M187.541 42.1061L189.033 38.1086H189.931L191.425 42.1061H190.586L189.478 38.988L188.363 42.1061H187.541ZM188.204 41.199L188.416 40.5981H190.503L190.708 41.199H188.204Z" fill="#7FB51F"/>
<path d="M193.617 42.1061V38.1086H194.409V42.1061H193.617Z" fill="#7FB51F"/>
<path d="M196.856 42.1061V38.1086H197.647L199.534 40.8672V38.1086H200.327V42.1061H199.534L197.647 39.3545V42.1061H196.856Z" fill="#7FB51F"/>
<path d="M204.185 42.1757C203.913 42.1796 203.643 42.1291 203.392 42.0272C203.162 41.9377 202.966 41.7819 202.83 41.5807C202.694 41.3795 202.625 41.1427 202.632 40.902H203.47C203.473 41.0146 203.505 41.1246 203.563 41.2221C203.62 41.3189 203.702 41.3991 203.802 41.4541C203.916 41.5126 204.044 41.5414 204.173 41.5377C204.284 41.5399 204.395 41.5193 204.497 41.4773C204.584 41.4413 204.658 41.3826 204.712 41.308C204.765 41.2322 204.791 41.142 204.788 41.0504C204.791 40.9492 204.762 40.8494 204.705 40.7651C204.641 40.6843 204.56 40.6185 204.466 40.5725C204.356 40.5144 204.24 40.4655 204.121 40.4263L203.706 40.2848C203.428 40.2091 203.174 40.0681 202.965 39.8742C202.878 39.7833 202.811 39.6762 202.767 39.5595C202.723 39.4427 202.704 39.3185 202.71 39.1944C202.704 38.9765 202.766 38.7619 202.889 38.5796C203.012 38.4043 203.184 38.2673 203.385 38.1851C203.85 38.0011 204.37 38.0011 204.836 38.1851C205.036 38.2717 205.209 38.4106 205.334 38.5865C205.46 38.7688 205.526 38.9839 205.524 39.2037H204.681C204.676 39.1159 204.649 39.0307 204.602 38.9554C204.551 38.8777 204.482 38.8132 204.4 38.7675C204.306 38.7174 204.201 38.6926 204.095 38.6956C203.999 38.6912 203.904 38.7071 203.816 38.742C203.736 38.7738 203.667 38.8259 203.616 38.8928C203.565 38.9662 203.54 39.0528 203.542 39.141C203.542 39.2239 203.567 39.3048 203.616 39.373C203.67 39.4421 203.739 39.4991 203.818 39.5401C203.915 39.5936 204.017 39.6378 204.123 39.6723L204.504 39.7953C204.699 39.8563 204.887 39.9339 205.067 40.0273C205.232 40.1153 205.373 40.2401 205.479 40.3915C205.588 40.5685 205.641 40.7726 205.632 40.9785C205.632 41.1846 205.573 41.3866 205.46 41.5609C205.341 41.746 205.172 41.896 204.971 41.9947C204.729 42.1169 204.459 42.179 204.185 42.1757Z" fill="#7FB51F"/>
<path d="M48.1377 11.7942C45.9421 9.80986 43.065 8.69462 40.0695 8.66675C38.6564 8.66712 37.2578 8.94418 35.9569 9.48146C34.656 10.0187 33.4794 10.8052 32.4969 11.7942C31.344 12.9353 30.4281 14.2824 29.7996 15.7616C28.814 14.0949 27.3785 12.7228 25.6488 11.7942C24.1741 11.0111 22.52 10.6041 20.8403 10.611C19.0893 10.6165 17.364 11.0218 15.803 11.7942C13.7293 12.8218 11.9869 14.3865 10.7677 16.3161C9.54856 18.2458 8.8998 20.4655 8.89288 22.7311L8.89288 43.3334H52.4553V21.2718C52.4545 19.4861 52.07 17.7204 51.3264 16.0882C50.5828 14.4559 49.4966 12.9933 48.1377 11.7942ZM15.6434 34.7166L16.3415 33.538L20.44 26.6288C20.5493 26.4432 20.707 26.2891 20.8972 26.1818C21.0873 26.0746 21.3032 26.0181 21.5229 26.0181C21.7427 26.0181 21.9585 26.0746 22.1487 26.1818C22.3388 26.2891 22.4966 26.4432 22.6059 26.6288L26.7043 33.538L27.4025 34.7166L30.6908 29.174L34.8655 22.1232C35.0367 21.8352 35.2826 21.596 35.5788 21.4297C35.8749 21.2635 36.2107 21.176 36.5525 21.176C36.8943 21.176 37.2301 21.2635 37.5262 21.4297C37.8223 21.596 38.0683 21.8352 38.2395 22.1232L41.9376 28.3642L45.7048 34.7166H15.6434Z" fill="#7FB51F"/>
</svg>
