<svg xmlns="http://www.w3.org/2000/svg" width="40" height="40" fill="none"><g fill="#7FB51F" clip-path="url(#a)"><path d="M.279 28.952c-.353-3.012-.402-5.968.031-8.642.532-3.288 1.921-6.946 3.439-10.218 2.966-6.394 8.275-8.63 14.74-9.64C27.501-.952 39.922.453 40 11.36c-.452 3.9-3.435 14.743-13.506 15.57-3.33.274-4.575 3.618-6.042 7.447C16.592 44.45 1.57 39.979.279 28.952" opacity=".1"/><path d="M14.75 8.917a1.167 1.167 0 1 0-2.334 0v1.166a1.167 1.167 0 0 0 2.333 0zm12.833 0a1.167 1.167 0 1 0-2.333 0v1.166a1.167 1.167 0 1 0 2.333 0zM8.334 16.5v13.417a2.333 2.333 0 0 0 2.333 2.333h18.667a2.333 2.333 0 0 0 2.333-2.333V16.5zm7 11.667c0 .644-.522 1.166-1.167 1.166h-1.166a1.166 1.166 0 0 1-1.167-1.166V27c0-.645.522-1.167 1.167-1.167h1.166c.645 0 1.167.522 1.167 1.167zm0-6.417c0 .645-.522 1.167-1.167 1.167h-1.166a1.166 1.166 0 0 1-1.167-1.167v-1.167c0-.644.522-1.166 1.167-1.166h1.166c.645 0 1.167.522 1.167 1.166zm6.417 6.417c0 .644-.522 1.166-1.167 1.166h-1.167a1.166 1.166 0 0 1-1.166-1.166V27c0-.645.522-1.167 1.166-1.167h1.167c.645 0 1.167.522 1.167 1.167zm0-6.417c0 .645-.522 1.167-1.167 1.167h-1.167a1.166 1.166 0 0 1-1.166-1.167v-1.167c0-.644.522-1.166 1.166-1.166h1.167c.645 0 1.167.522 1.167 1.166zm6.416 6.417c0 .644-.522 1.166-1.166 1.166h-1.167a1.166 1.166 0 0 1-1.167-1.166V27c0-.645.522-1.167 1.167-1.167h1.167c.644 0 1.166.522 1.166 1.167zm0-6.417c0 .645-.522 1.167-1.166 1.167h-1.167a1.166 1.166 0 0 1-1.167-1.167v-1.167c0-.644.522-1.166 1.167-1.166h1.167c.644 0 1.166.522 1.166 1.166z"/><path d="M31.667 15.333v-3.5A2.333 2.333 0 0 0 29.334 9.5h-.583v.583a2.336 2.336 0 0 1-2.334 2.334 2.336 2.336 0 0 1-2.333-2.334V9.5h-8.167v.583a2.336 2.336 0 0 1-2.333 2.334 2.336 2.336 0 0 1-2.333-2.334V9.5h-.584a2.333 2.333 0 0 0-2.333 2.333v3.5z"/></g><defs><clipPath id="a"><path fill="#fff" d="M0 0h40v40H0z"/></clipPath></defs></svg>