<svg xmlns="http://www.w3.org/2000/svg" width="32" height="32" fill="none"><g clip-path="url(#a)"><path fill="#015637" d="M.223 23.162c-.282-2.41-.321-4.775.025-6.914.426-2.63 1.537-5.557 2.75-8.174C5.373 2.958 9.62 1.169 14.792.362 22.001-.763 31.937.362 32 9.087c-.362 3.12-2.748 11.795-10.805 12.456-2.664.22-3.66 2.895-4.834 5.958-3.088 8.06-15.105 4.482-16.138-4.34" opacity=".1"/><g fill="#7FB51F"><path d="M9.162 9.024a.759.759 0 1 0 .001 1.517.759.759 0 0 0-.001-1.517m11.595 16.501a1.65 1.65 0 1 0-3.047-1.263 1.65 1.65 0 0 0 3.047 1.263m-4.482-.636q.001-.256.043-.499H7.771a1.26 1.26 0 0 1-1.259-1.26 1.26 1.26 0 0 1 1.26-1.258h5.891c1.34 0 2.43-1.09 2.43-2.43s-1.09-2.43-2.43-2.43H11.07l-.78 1.303h3.374c.622 0 1.128.505 1.128 1.127s-.506 1.127-1.128 1.127H7.771a2.564 2.564 0 0 0-2.561 2.562 2.564 2.564 0 0 0 2.561 2.561h8.617a3 3 0 0 1-.113-.803M26.8 15.875a.65.65 0 0 0-.41-.578l-6.921-2.77a.65.65 0 0 0-.893.605v8.878a2.95 2.95 0 0 1 1.302 0v-2.27l6.56-3.256a.65.65 0 0 0 .361-.61"/><path d="M13.186 9.701a3.993 3.993 0 0 0-7.986 0v.017c0 .797.213 1.58.618 2.266l3.038 5.161a.357.357 0 0 0 .614.002l3.083-5.153a4.47 4.47 0 0 0 .633-2.293m-4.024 2.141a2.063 2.063 0 0 1-2.06-2.06c0-1.136.924-2.06 2.06-2.06s2.06.924 2.06 2.06-.924 2.06-2.06 2.06"/></g></g><defs><clipPath id="a"><path fill="#fff" d="M0 0h32v32H0z"/></clipPath></defs></svg>