<svg xmlns="http://www.w3.org/2000/svg" width="24" height="24" fill="none"><g fill="#7FB51F" clip-path="url(#a)"><path d="M.167 17.371c-.211-1.807-.24-3.58.019-5.185.32-1.973 1.153-4.168 2.063-6.13C4.03 2.218 7.214.875 11.093.271 16.5-.572 23.953.272 24 6.815c-.271 2.34-2.061 8.846-8.104 9.343-1.998.164-2.745 2.17-3.625 4.467C9.955 26.67.94 23.989.167 17.371" opacity=".1"/><path d="M16.851 12.873a3.148 3.148 0 1 0 0 6.296 3.148 3.148 0 0 0 0-6.296m1.394 3.014-1.537 1.238a.516.516 0 0 1-.73-.084l-.603-.77a.516.516 0 0 1 .811-.637l.282.359 1.13-.91a.516.516 0 1 1 .647.804"/><path d="M12.844 16.022a4.01 4.01 0 0 1 4.008-4.008c.734 0 1.42.202 2.013.548V7.403c0-1.3-1.054-2.355-2.355-2.355h-1.238v-.264a.517.517 0 0 0-.516-.515.514.514 0 0 0-.516.515v.264H8.068v-.264a.514.514 0 0 0-.516-.515.514.514 0 0 0-.515.515v.264H5.793a2.355 2.355 0 0 0-2.355 2.355v8.448a2.355 2.355 0 0 0 2.355 2.355h7.703a4 4 0 0 1-.652-2.184m2.016-6.198a.595.595 0 1 1 0 1.19.595.595 0 0 1 0-1.19M7.446 14.26a.595.595 0 1 1 0-1.19.595.595 0 0 1 0 1.19m0-3.244a.595.595 0 1 1 0-1.19.595.595 0 0 1 0 1.19m3.707 3.244a.595.595 0 1 1 0-1.19.595.595 0 0 1 0 1.19m0-3.244a.595.595 0 1 1 0-1.19.595.595 0 0 1 0 1.19"/></g><defs><clipPath id="a"><path fill="#fff" d="M0 0h24v24H0z"/></clipPath></defs></svg>