<svg xmlns="http://www.w3.org/2000/svg" width="14" height="14" fill="none"><path fill="#7FB51F" d="M4 4a.286.286 0 0 1 0-.572A.429.429 0 1 0 3.57 3 .286.286 0 0 1 3 3a1 1 0 1 1 1 1"/><path fill="#7FB51F" d="M6 4a.286.286 0 0 1 0-.572A.429.429 0 1 0 5.57 3 .286.286 0 0 1 5 3a1 1 0 1 1 1 1"/><path fill="#7FB51F" d="M8 4a.286.286 0 0 1 0-.572A.429.429 0 1 0 7.57 3 .286.286 0 0 1 7 3a1 1 0 1 1 1 1"/><path fill="#7FB51F" d="M9.999 4a.286.286 0 1 1 0-.572A.429.429 0 1 0 9.57 3 .286.286 0 0 1 9 3a1 1 0 1 1 1 1"/><path fill="#7FB51F" d="m11.85 4.657-.282-1.703a.286.286 0 0 0-.283-.24h-8.57a.1.1 0 0 0-.046.006.284.284 0 0 0-.24.28v.02l-1.426 8.502a.3.3 0 0 0 .066.235.3.3 0 0 0 .217.1h11.428a.286.286 0 0 0 .282-.332zm-1.708 3.486a2.286 2.286 0 1 1-4.571 0 2.286 2.286 0 0 1 4.571 0m.9-4.857.192 1.142H3.248l-.19-1.142zm-8.613 8h-.806l.806-4.81.29-1.736.006.026L3 6.426l.806 4.86z"/><path fill="#7FB51F" d="M6.143 8.143a1.714 1.714 0 1 0 3.428 0 1.714 1.714 0 0 0-3.428 0m2-.858v.74l.487.487a.286.286 0 1 1-.404.404l-.571-.571a.3.3 0 0 1-.084-.202v-.858a.286.286 0 0 1 .571 0"/></svg>