<svg xmlns="http://www.w3.org/2000/svg" width="20" height="21" fill="none"><g fill="#7FB51F"><path d="M6.25 2.583a.833.833 0 0 0-1.666 0v.834a.833.833 0 0 0 1.667 0zm9.167 0a.833.833 0 0 0-1.667 0v.834a.833.833 0 0 0 1.667 0zM1.666 8v9.583c0 .92.746 1.667 1.667 1.667h13.333c.92 0 1.667-.746 1.667-1.667V8zm5 8.333c0 .46-.373.834-.833.834h-.834a.833.833 0 0 1-.833-.834V15.5c0-.46.373-.833.833-.833h.834c.46 0 .833.373.833.833zm0-4.583c0 .46-.373.833-.833.833h-.834a.833.833 0 0 1-.833-.833v-.833c0-.46.373-.834.833-.834h.834c.46 0 .833.373.833.834zm4.583 4.583c0 .46-.373.834-.833.834h-.833a.833.833 0 0 1-.834-.834V15.5c0-.46.373-.833.834-.833h.833c.46 0 .833.373.833.833zm0-4.583c0 .46-.373.833-.833.833h-.833a.833.833 0 0 1-.834-.833v-.833c0-.46.373-.834.834-.834h.833c.46 0 .833.373.833.834zm4.584 4.583c0 .46-.373.834-.834.834h-.833a.833.833 0 0 1-.833-.834V15.5c0-.46.373-.833.833-.833h.833c.46 0 .834.373.834.833zm0-4.583c0 .46-.373.833-.834.833h-.833a.833.833 0 0 1-.833-.833v-.833c0-.46.373-.834.833-.834h.833c.46 0 .834.373.834.834z"/><path d="M18.333 7.167v-2.5c0-.92-.747-1.667-1.667-1.667h-.417v.417a1.667 1.667 0 0 1-3.333 0V3H7.083v.417a1.668 1.668 0 0 1-3.334 0V3h-.416c-.92 0-1.667.746-1.667 1.667v2.5z"/></g></svg>