<svg xmlns="http://www.w3.org/2000/svg" width="412" height="542" fill="none"><path fill="#7FB51F" d="M246.079 536.745c31.812-7.589 58.102-26.424 73.726-52.817 7.229-12.531 11.516-26.59 12.606-41.341 1.089-14.75-1.041-29.89-6.265-44.521-5.928-17.053-15.206-33.236-27.323-47.663 22.324 1.238 43.897-3.278 62.379-13.056 15.667-8.388 28.355-20.618 36.882-35.553 8.906-15.558 13.536-33.281 13.519-51.745-.037-24.537-7.34-49.351-21.104-71.711s-33.456-41.399-56.908-55.021L120 0l-223 386.247 228.72 132.052c18.516 10.681 38.791 17.84 59.519 21.017s41.453 2.301 60.84-2.571M174.776 111.43l8.645 13.245 50.65 77.694c1.364 2.08 2.156 4.402 2.294 6.73.138 2.327-.381 4.579-1.506 6.528s-2.816 3.524-4.901 4.568-4.491 1.52-6.975 1.379l-92.61-5.017-15.793-.865 40.63 62.332 51.727 79.218c2.11 3.242 3.33 6.854 3.538 10.475s-.604 7.122-2.354 10.153c-1.749 3.03-4.376 5.484-7.615 7.114-3.24 1.63-6.978 2.38-10.841 2.174l-83.634-4.567-85.142-4.621z" opacity=".05"/></svg>