<svg xmlns="http://www.w3.org/2000/svg" width="40" height="41" fill="none"><g fill="#7FB51F" clip-path="url(#a)"><path d="M.279 29.452c-.353-3.012-.402-5.968.031-8.642.532-3.288 1.921-6.946 3.439-10.218 2.966-6.394 8.275-8.63 14.74-9.64C27.501-.452 39.922.953 40 11.86c-.452 3.9-3.435 14.743-13.506 15.57-3.33.274-4.575 3.618-6.042 7.447C16.592 44.95 1.57 40.479.279 29.452" opacity=".1"/><path d="M27.148 9.811a11.33 11.33 0 0 0-9.405-2.341 11.25 11.25 0 0 0-4.59 19.946 19.1 19.1 0 0 1 4.902 5.271l.875 1.455a1.25 1.25 0 0 0 2.143 0l.838-1.397a15.9 15.9 0 0 1 4.473-5 11.238 11.238 0 0 0 .765-17.94zM20 23.5a5 5 0 1 1 0-10 5 5 0 0 1 0 10"/></g><defs><clipPath id="a"><path fill="#fff" d="M0 .5h40v40H0z"/></clipPath></defs></svg>