<svg xmlns="http://www.w3.org/2000/svg" width="32" height="32" fill="none"><path fill="#7FB51F" d="M.223 23.162c-.282-2.41-.321-4.775.025-6.914.426-2.63 1.537-5.557 2.75-8.174C5.373 2.958 9.62 1.169 14.792.362 22.001-.763 31.937.362 32 9.087c-.362 3.12-2.748 11.795-10.805 12.456-2.664.22-3.66 2.895-4.834 5.958-3.088 8.06-15.105 4.482-16.138-4.34" opacity=".1"/><path fill="#7FB51F" d="M10.856 24.159a3.33 3.33 0 0 1-2.04.707 3.37 3.37 0 0 1-3.367-3.367 3.37 3.37 0 0 1 3.367-3.367c1.4 0 2.602.861 3.109 2.081l1.054-1.093c-.83-1.45-2.373-2.437-4.163-2.437a4.816 4.816 0 1 0 0 9.632c1.251 0 2.38-.49 3.237-1.272a2.4 2.4 0 0 1-.907-.542 2.5 2.5 0 0 1-.29-.342"/><path fill="#7FB51F" d="m18.168 16.72-2.55-1.482 1.853-1.16-.036.363c-.061.616.393 1.18.965 1.297.014.002 4.477.76 4.64.76a1.208 1.208 0 0 0 .196-2.398l-3.286-.546.156-1.568c.158-1.002.226-1.316-.148-1.914l-.47-.751a2.077 2.077 0 0 0-2.862-.658l-5.147 3.222c-1.264.792-1.881 2.46-.849 3.689.403.48 4.324 2.889 4.324 2.889l-3.175 3.293a1.448 1.448 0 1 0 2.086 2.012l4.618-4.79a1.45 1.45 0 0 0-.315-2.258m5.41-6.58a2.411 2.411 0 1 0-2.56-4.087 2.411 2.411 0 0 0 2.56 4.088"/><path fill="#7FB51F" d="M23.183 16.683c-2.688 0-4.816 2.217-4.816 4.816a4.816 4.816 0 1 0 4.816-4.816m0 8.183a3.37 3.37 0 0 1-3.367-3.367 3.37 3.37 0 0 1 3.367-3.367 3.37 3.37 0 0 1 3.367 3.367 3.37 3.37 0 0 1-3.367 3.367"/></svg>