<svg xmlns="http://www.w3.org/2000/svg" width="14" height="15" fill="none"><g clip-path="url(#a)"><path fill="#fff" d="M7 3.327c-2.675 0-5.1 1.464-6.89 3.84a.55.55 0 0 0 0 .662C1.9 10.21 4.325 11.673 7 11.673s5.1-1.464 6.89-3.84a.55.55 0 0 0 0-.662C12.1 4.79 9.676 3.327 7 3.327m.192 7.111a2.946 2.946 0 0 1-3.13-3.13 2.95 2.95 0 0 1 2.746-2.746 2.946 2.946 0 0 1 3.13 3.13 2.96 2.96 0 0 1-2.746 2.746m-.089-1.357A1.583 1.583 0 0 1 5.42 7.397a1.59 1.59 0 0 1 1.48-1.48A1.583 1.583 0 0 1 8.585 7.6a1.59 1.59 0 0 1-1.48 1.48"/></g><defs><clipPath id="a"><path fill="#fff" d="M0 .5h14v14H0z"/></clipPath></defs></svg>