<svg xmlns="http://www.w3.org/2000/svg" width="16" height="16" fill="none"><g fill="#7FB51F" clip-path="url(#a)"><path d="M1.501 4.979h13.003a.575.575 0 0 0 .575-.609l-.008-.15a2.88 2.88 0 0 0-2.876-2.694h-.74V.95a.576.576 0 0 0-1.15 0v.576H5.7V.95a.576.576 0 0 0-1.151 0v.576h-.74A2.88 2.88 0 0 0 .934 4.222l-.007.148a.576.576 0 0 0 .574.609M15.167 6.69a.575.575 0 0 0-.575-.56H1.41a.576.576 0 0 0-.576.56 71 71 0 0 0 .109 6.108 2.88 2.88 0 0 0 2.69 2.69 70 70 0 0 0 8.733 0 2.88 2.88 0 0 0 2.691-2.69c.124-1.991.16-4.046.109-6.107m-4.288 2.892a.863.863 0 1 1 0-1.726.863.863 0 0 1 0 1.726m.863 2.015a.863.863 0 1 1-1.727 0 .863.863 0 0 1 1.727 0m-6.618-.864a.863.863 0 1 1 0 1.727.863.863 0 0 1 0-1.727M4.26 8.72a.863.863 0 1 1 1.726 0 .863.863 0 0 1-1.726 0m2.877 2.878a.863.863 0 1 1 1.726 0 .863.863 0 0 1-1.726 0M8 9.583a.863.863 0 1 1 0-1.726.863.863 0 0 1 0 1.726"/></g><defs><clipPath id="a"><path fill="#fff" d="M0 0h16v16H0z"/></clipPath></defs></svg>