<svg xmlns="http://www.w3.org/2000/svg" width="16" height="16" fill="none"><g clip-path="url(#a)"><path fill="#7FB51F" d="M8.64 2.798 10.437.203a.47.47 0 0 1 .72-.065l4.705 4.706a.47.47 0 0 1-.065.72L13.202 7.36zm3.776 5.106-1.52 1.052a2.35 2.35 0 0 0-1.013 1.935v2.285a.47.47 0 0 1-.351.455L.59 15.984a.47.47 0 0 1-.575-.575l2.353-8.94a.47.47 0 0 1 .455-.352h2.285c.772 0 1.495-.378 1.935-1.013l1.052-1.52zm-8.218 3.232L1.55 13.785a.47.47 0 0 0 .666.665l2.648-2.648a1.647 1.647 0 1 0-.665-.665m1.45-.077a.706.706 0 1 1 0-1.412.706.706 0 0 1 0 1.412"/></g><defs><clipPath id="a"><path fill="#fff" d="M0 0h16v16H0z"/></clipPath></defs></svg>