<svg xmlns="http://www.w3.org/2000/svg" width="16" height="16" fill="none"><path fill="#7FB51F" d="M8 3.231c-3.057 0-5.83 1.673-7.875 4.39a.63.63 0 0 0 0 .755C2.171 11.096 4.943 12.77 8 12.77s5.83-1.673 7.875-4.39a.63.63 0 0 0 0-.755C13.829 4.904 11.057 3.23 8 3.23m.22 8.127A3.367 3.367 0 0 1 4.642 7.78 3.37 3.37 0 0 1 7.78 4.64a3.367 3.367 0 0 1 3.577 3.578 3.38 3.38 0 0 1-3.139 3.139m-.102-1.551a1.81 1.81 0 0 1-1.925-1.925A1.82 1.82 0 0 1 7.885 6.19 1.81 1.81 0 0 1 9.81 8.114a1.82 1.82 0 0 1-1.692 1.693"/></svg>