<svg width="40" height="41" viewBox="0 0 40 41" fill="none" xmlns="http://www.w3.org/2000/svg">
<g clip-path="url(#clip0_228_4043)">
<path opacity="0.1" d="M0.278944 29.4522C-0.0736318 26.4401 -0.122607 23.4843 0.310078 20.8101C0.84212 17.5218 2.23117 13.8636 3.74867 10.592C6.71454 4.19799 12.0239 1.96106 18.489 0.952582C27.5008 -0.453153 39.9215 0.952613 40 11.8589C39.5479 15.7591 36.5646 26.6018 26.4939 27.4292C23.1642 27.7028 21.9185 31.0473 20.4515 34.8758C16.5911 44.9503 1.56969 40.4794 0.278944 29.4522Z" fill="#7FB51F"/>
<path d="M31.9507 15.2429L30.2143 16.71V14.1193L31.6721 15.0479C31.7683 15.108 31.8613 15.173 31.9507 15.2429ZM32.9257 16.8493L30.2143 19.1429L21.7921 26.2743C21.4751 26.5318 21.1084 26.7215 20.715 26.8314C20.5589 26.8683 20.4007 26.8962 20.2414 26.915H19.7586C19.5993 26.8962 19.4411 26.8683 19.285 26.8314C18.895 26.7246 18.5314 26.538 18.2171 26.2836L9.78571 19.1429L7.07429 16.8493C7.03073 17.0289 7.00583 17.2125 7 17.3971V31.2143C7 31.9531 7.29349 32.6617 7.81592 33.1841C8.33834 33.7065 9.0469 34 9.78571 34H30.2143C30.9531 34 31.6617 33.7065 32.1841 33.1841C32.7065 32.6617 33 31.9531 33 31.2143V17.3971C32.9942 17.2125 32.9693 17.0289 32.9257 16.8493ZM19.4057 24.8536L11.6429 18.2793V10.7857C11.6429 10.0469 11.9364 9.33834 12.4588 8.81592C12.9812 8.29349 13.6898 8 14.4286 8H25.5714C26.3102 8 27.0188 8.29349 27.5412 8.81592C28.0636 9.33834 28.3571 10.0469 28.3571 10.7857V18.2793L20.5943 24.8536C20.4274 24.9925 20.2171 25.0687 20 25.0687C19.7828 25.0687 19.5726 24.9925 19.4057 24.8536ZM15.3571 13.5714C15.3571 13.8177 15.455 14.0539 15.6291 14.228C15.8033 14.4022 16.0394 14.5 16.2857 14.5H23.7143C23.9606 14.5 24.1967 14.4022 24.3709 14.228C24.545 14.0539 24.6429 13.8177 24.6429 13.5714C24.6429 13.3252 24.545 13.089 24.3709 12.9148C24.1967 12.7407 23.9606 12.6429 23.7143 12.6429H16.2857C16.0394 12.6429 15.8033 12.7407 15.6291 12.9148C15.455 13.089 15.3571 13.3252 15.3571 13.5714ZM16.2857 18.2143H23.7143C23.9606 18.2143 24.1967 18.1165 24.3709 17.9423C24.545 17.7682 24.6429 17.532 24.6429 17.2857C24.6429 17.0394 24.545 16.8033 24.3709 16.6291C24.1967 16.455 23.9606 16.3571 23.7143 16.3571H16.2857C16.0394 16.3571 15.8033 16.455 15.6291 16.6291C15.455 16.8033 15.3571 17.0394 15.3571 17.2857C15.3571 17.532 15.455 17.7682 15.6291 17.9423C15.8033 18.1165 16.0394 18.2143 16.2857 18.2143ZM9.78571 14.1193L8.31857 15.0479C8.22472 15.1171 8.13481 15.1915 8.04929 15.2707L9.78571 16.71V14.1193Z" fill="#7FB51F"/>
</g>
<defs>
<clipPath id="clip0_228_4043">
<rect width="40" height="40" fill="white" transform="translate(0 0.5)"/>
</clipPath>
</defs>
</svg>
