<svg xmlns="http://www.w3.org/2000/svg" width="16" height="16" fill="none"><path fill="#7FB51F" fill-rule="evenodd" d="m1.964 3.074 4.322 4.324a2.433 2.433 0 0 0 3.428 0l4.322-4.324a.098.098 0 0 0-.013-.15 2.7 2.7 0 0 0-1.555-.49H3.532c-.578 0-1.114.182-1.555.49a.098.098 0 0 0-.013.15M.809 5.157a2.7 2.7 0 0 1 .31-1.26.098.098 0 0 1 .158-.025L5.544 8.14a3.477 3.477 0 0 0 4.912 0l4.267-4.268a.098.098 0 0 1 .157.024c.198.377.311.807.311 1.261v5.686a2.726 2.726 0 0 1-2.723 2.723H3.532A2.726 2.726 0 0 1 .81 10.843z" clip-rule="evenodd"/></svg>