<svg xmlns="http://www.w3.org/2000/svg" width="12" height="12" fill="none"><path fill="#F5213A" d="M3.66 11.64a1 1 0 0 1-.58.341c-.23.045-.47.01-.675-.1a.73.73 0 0 1-.36-.392.7.7 0 0 1 .013-.522c.747-1.416 1.786-3.071 2.518-4.192.37-.566.501-.668.09-1.186a45 45 0 0 0-1.088-1.297C3.072 3.706 2.34 2.9 2.148 2.466a1.03 1.03 0 0 1-.018-.669c.069-.219.209-.41.4-.548.394-.277.76-.183 1.207.242.291.275 1.99 2.342 2.224 2.636.283.354.354.345.653-.051.303-.402 1.513-1.883 1.824-2.28.56-.713 1.197-1.004 1.598-.636q.143.106.234.259a.85.85 0 0 1 .085.666.9.9 0 0 1-.162.305c-.555.834-1.236 1.589-1.851 2.38q-.258.296-.473.623c-.305.522-.338.545-.02 1.068.222.364.625.864.856 1.179.639.868 1.33 1.822 2.038 2.638.605.697-.004 1.27-.346 1.44a.95.95 0 0 1-.68.092.9.9 0 0 1-.554-.387c-.414-.526-.753-1.11-1.139-1.655-.314-.446-.7-1.116-1.036-1.55-.51-.66-.608-.902-.827-.53-.76 1.29-2.086 3.415-2.5 3.951"/></svg>