<svg xmlns="http://www.w3.org/2000/svg" width="14" height="14" fill="none"><path fill="#000" fill-rule="evenodd" d="M2.1 4.868A6.95 6.95 0 0 1 7 2.917c2.28 0 3.88.98 4.9 1.95a8 8 0 0 1 1.114 1.33 6 6 0 0 1 .337.572l.018.037.005.01.002.004v.002l-.42.178c.421.178.42.179.42.179v.001l-.002.004-.005.01a2 2 0 0 1-.086.166 7.8 7.8 0 0 1-1.384 1.773A6.95 6.95 0 0 1 7 11.083a6.95 6.95 0 0 1-4.9-1.95 7.8 7.8 0 0 1-1.113-1.33 6 6 0 0 1-.356-.608l-.005-.011-.002-.004s-.001-.002.42-.18l-.42-.178V6.82l.002-.003.005-.011a3 3 0 0 1 .086-.166c.06-.108.15-.26.27-.443A7.8 7.8 0 0 1 2.1 4.867M1.045 7l-.42-.178a.42.42 0 0 0-.001.356zm.515 0a7 7 0 0 0 1.193 1.513c.895.852 2.274 1.694 4.248 1.694s3.352-.842 4.248-1.694A7 7 0 0 0 12.441 7a7 7 0 0 0-1.193-1.513C10.352 4.635 8.974 3.793 7 3.793s-3.352.842-4.248 1.694A7 7 0 0 0 1.559 7m11.397 0 .42.179a.42.42 0 0 0 .001-.357zM7 5.414c-.92 0-1.667.71-1.667 1.587 0 .876.746 1.586 1.667 1.586.92 0 1.667-.71 1.667-1.586S7.921 5.414 7 5.414M4.412 7c0-1.36 1.159-2.464 2.588-2.464S9.588 5.64 9.588 7.001 8.429 9.464 7 9.464 4.412 8.36 4.412 7" clip-rule="evenodd"/></svg>