<svg xmlns="http://www.w3.org/2000/svg" width="14" height="14" fill="none"><path fill="#000" fill-rule="evenodd" d="M.736 3.889a.434.434 0 0 1 .603.053c1 1.175 2.812 2.64 5.66 2.64 2.847 0 4.66-1.465 5.66-2.64a.434.434 0 0 1 .602-.053.41.41 0 0 1 .055.589c-.308.362-.69.753-1.15 1.127a.4.4 0 0 1 .063.092l1.141 2.232a.414.414 0 0 1-.191.561.43.43 0 0 1-.574-.187l-1.123-2.197a7.9 7.9 0 0 1-2.579 1.102l.511 2.5a.42.42 0 0 1-.335.492.43.43 0 0 1-.504-.328l-.514-2.517a8.8 8.8 0 0 1-2.125 0l-.514 2.517a.43.43 0 0 1-.504.328.42.42 0 0 1-.335-.492l.511-2.5a7.9 7.9 0 0 1-2.192-.863l-1.55 2.022a.434.434 0 0 1-.599.084.413.413 0 0 1-.085-.586L2.189 5.88A8.8 8.8 0 0 1 .681 4.478a.41.41 0 0 1 .055-.59" clip-rule="evenodd"/></svg>