<svg xmlns="http://www.w3.org/2000/svg" width="40" height="40" fill="none"><g fill="#7FB51F" clip-path="url(#a)"><path d="M.279 28.952c-.353-3.012-.402-5.968.031-8.642.532-3.288 1.921-6.946 3.439-10.218 2.966-6.394 8.275-8.63 14.74-9.64C27.501-.952 39.922.453 40 11.36c-.452 3.9-3.435 14.743-13.506 15.57-3.33.274-4.575 3.618-6.042 7.447C16.592 44.45 1.57 39.979.279 28.952" opacity=".1"/><path d="M33.685 17.433c-.27-1.49-1.636-2.789-3.13-3.024-.686-.113-2.54-.244-4.129-.293q.044.795.047 1.64v.003c0 1.56-.115 2.967-.344 4.3v.011c-.189 1.039-.744 2.043-1.565 2.832-.81.78-1.827 1.298-2.865 1.462-.95.157-3.541.321-5.37.35l-.009.012q.027.172.055.328c.27 1.491 1.636 2.79 3.13 3.023.903.15 3.822.329 5.506.314l1.925 3.057a.93.93 0 0 0 1.573 0l2.132-3.385c1.462-.268 2.783-1.545 3.048-3.008.155-.902.301-2.133.304-3.814a21.7 21.7 0 0 0-.308-3.808"/><path d="M24.836 11.683c-.29-1.595-1.75-2.983-3.347-3.234-.97-.16-4.113-.352-5.91-.335-1.798-.017-4.941.175-5.91.335-1.598.251-3.059 1.641-3.347 3.234-.166.964-.322 2.28-.322 4.078s.156 3.113.322 4.075c.283 1.565 1.695 2.93 3.259 3.217l2.28 3.62a.995.995 0 0 0 1.681 0l2.058-3.269c1.801.016 4.922-.175 5.889-.335 1.598-.251 3.058-1.64 3.346-3.233.165-.964.323-2.28.325-4.078.003-1.797-.158-3.111-.325-4.075m-8.327 6.19a.9.9 0 0 1-.901.924 196 196 0 0 1-4.782-.107 1.025 1.025 0 0 1-.966-.94c-.03-.5.365-.896.875-.884q2.424.054 4.849.072a.94.94 0 0 1 .926.935zm3.741-3.117q-4.77.027-9.54-.037c-.512-.008-.938-.42-.946-.92-.009-.501.407-.906.921-.905q4.788.01 9.576.006a.92.92 0 0 1 .926.925.944.944 0 0 1-.937.934z"/></g><defs><clipPath id="a"><path fill="#fff" d="M0 0h40v40H0z"/></clipPath></defs></svg>