<svg xmlns="http://www.w3.org/2000/svg" width="32" height="32" fill="none"><g fill="#7FB51F" clip-path="url(#a)"><path d="M.223 23.162c-.282-2.41-.321-4.775.025-6.914.426-2.63 1.537-5.557 2.75-8.174C5.373 2.958 9.62 1.169 14.792.362 22.001-.763 31.937.362 32 9.087c-.362 3.12-2.748 11.795-10.805 12.456-2.664.22-3.66 2.895-4.834 5.958-3.088 8.06-15.105 4.482-16.138-4.34" opacity=".1"/><path d="M26.875 16.75a10.88 10.88 0 0 1-16.69 9.191A10.87 10.87 0 0 1 7.587 9.865a10.82 10.82 0 0 1 9.763-3.9 4.9 4.9 0 0 0-.743 1.432 9.32 9.32 0 0 0-7.58 3.094c1.001.729 3.046 2.519 2.447 4.614a1.87 1.87 0 0 0 .121 1.492c.5.87 1.69 1.181 1.703 1.184.093.03 1.644.563 1.985 1.795.199.721-.052 1.496-.746 2.305a5.7 5.7 0 0 1-2.55 1.783c-.572.223-.896.35-1.084.95a9.36 9.36 0 0 0 12.522-2.142c.045-.058.084-.12.127-.179-.266-1.537-.746-1.725-1.293-1.935a2.5 2.5 0 0 1-.937-.55 6 6 0 0 1-.822-1.15c-.508-.838-1.084-1.788-2.4-2.447l-.274-.136c-1.941-.963-3.113-1.544-2.007-4.855a4 4 0 0 1 .695-1.277c.332 1.408 1.266 3.213 2.794 5.39a2.372 2.372 0 0 0 3.882 0 23 23 0 0 0 2.288-3.91 10.85 10.85 0 0 1 1.397 5.327m-6.645-2.062c-1.11-1.583-2.73-4.17-2.73-5.813a3.75 3.75 0 0 1 7.5 0c0 1.643-1.62 4.23-2.73 5.813a1.247 1.247 0 0 1-2.04 0m1.02-3.938a1.875 1.875 0 1 0 0-3.75 1.875 1.875 0 0 0 0 3.75"/></g><defs><clipPath id="a"><path fill="#fff" d="M0 0h32v32H0z"/></clipPath></defs></svg>