<svg xmlns="http://www.w3.org/2000/svg" width="40" height="40" fill="none"><g fill="#7FB51F" clip-path="url(#a)"><path d="M.279 28.952c-.353-3.012-.402-5.968.031-8.642.532-3.288 1.921-6.946 3.439-10.218 2.966-6.394 8.275-8.63 14.74-9.64C27.501-.952 39.922.453 40 11.36c-.452 3.9-3.435 14.743-13.506 15.57-3.33.274-4.575 3.618-6.042 7.447C16.592 44.45 1.57 39.979.279 28.952" opacity=".1"/><g clip-path="url(#b)"><path d="m13.619 12.46-2.32-2.32a.82.82 0 1 0-1.16 1.16l2.32 2.32a.82.82 0 1 0 1.16-1.16m-3.463 6.72H6.82a.82.82 0 1 0 0 1.64h3.336a.82.82 0 1 0 0-1.64m23.024 0h-3.336a.82.82 0 1 0 0 1.64h3.336a.82.82 0 1 0 0-1.64m-3.32-9.04a.82.82 0 0 0-1.16 0l-2.32 2.32a.82.82 0 1 0 1.16 1.16l2.32-2.32a.82.82 0 0 0 0-1.16M20 6a.82.82 0 0 0-.82.82v3.336a.82.82 0 1 0 1.64 0V6.82A.82.82 0 0 0 20 6m4.594 8.209c-1.789-1.412-4.102-1.92-6.366-1.379-2.625.607-4.741 2.691-5.381 5.3-.64 2.625.098 5.282 1.985 7.136.673.673 1.066 1.728 1.066 2.811v.18c0 .46.361.821.82.821h6.563c.46 0 .82-.36.82-.82v-.18c0-1.067.41-2.155 1.133-2.86A7.4 7.4 0 0 0 27.383 20a7.37 7.37 0 0 0-2.79-5.791M20 17.539c-1.238 0-2.139.82-2.374 1.771a.82.82 0 0 1-1.593-.394c.406-1.64 1.947-3.018 3.967-3.018a.82.82 0 1 1 0 1.641m-3.281 13.18v.82A2.464 2.464 0 0 0 19.179 34h1.641a2.464 2.464 0 0 0 2.461-2.46v-.821z"/></g></g><defs><clipPath id="a"><path fill="#fff" d="M0 0h40v40H0z"/></clipPath><clipPath id="b"><path fill="#fff" d="M6 6h28v28H6z"/></clipPath></defs></svg>