<svg xmlns="http://www.w3.org/2000/svg" width="32" height="32" fill="none"><g fill="#7FB51F" clip-path="url(#a)"><path d="M.223 23.162c-.282-2.41-.321-4.775.025-6.914.426-2.63 1.537-5.557 2.75-8.174C5.373 2.958 9.62 1.169 14.792.362 22.001-.763 31.937.362 32 9.087c-.362 3.12-2.748 11.795-10.805 12.456-2.664.22-3.66 2.895-4.834 5.958-3.088 8.06-15.105 4.482-16.138-4.34" opacity=".1"/><path d="M10.587 8.077a3.077 3.077 0 1 1 6.153 0 3.077 3.077 0 0 1-6.153 0m4.555 5.173c.031-.67.262-1.29.633-1.803a4 4 0 0 0-.806-.083h-2.61a4 4 0 0 0-.803.082c.394.548.63 1.217.634 1.94a3.34 3.34 0 0 1 1.616-.413c.474 0 .926.098 1.336.277m.52.276a3.51 3.51 0 0 1 1.636 2.609c.364.17.769.268 1.197.268a2.834 2.834 0 1 0-2.832-2.877m-1.856 5.804a2.835 2.835 0 1 0 0-5.67 2.835 2.835 0 0 0 0 5.67m1.202.193h-2.405a3.634 3.634 0 0 0-3.63 3.63v2.94l.008.047.203.063c1.91.596 3.569.796 4.935.796 2.667 0 4.213-.76 4.308-.81l.19-.095h.02v-2.942a3.633 3.633 0 0 0-3.629-3.63m4.69-2.926h-2.387a3.5 3.5 0 0 1-1.078 2.433 4.31 4.31 0 0 1 3.08 4.127v.906c2.357-.087 3.715-.754 3.804-.8l.19-.095h.02v-2.942a3.634 3.634 0 0 0-3.629-3.63m.638-5.923a3.51 3.51 0 0 1 1.635 2.609 2.834 2.834 0 1 0-1.635-2.609m4.035 3.07h-2.386a3.5 3.5 0 0 1-1.078 2.434 4.31 4.31 0 0 1 3.08 4.127v.906c2.356-.087 3.714-.754 3.804-.8l.189-.095H28v-2.943c0-2-1.628-3.629-3.63-3.629m-15.539 2.66c.555 0 1.07-.163 1.508-.438a3.5 3.5 0 0 1 1.318-2.238q.006-.08.008-.16a2.834 2.834 0 1 0-2.834 2.835m2.546 2.626a3.5 3.5 0 0 1-1.078-2.42q-.131-.012-.266-.013H7.63A3.633 3.633 0 0 0 4 20.226v2.942l.007.045.203.064c1.532.479 2.9.699 4.087.767v-.888a4.31 4.31 0 0 1 3.08-4.126"/></g><defs><clipPath id="a"><path fill="#fff" d="M0 0h32v32H0z"/></clipPath></defs></svg>