<svg xmlns="http://www.w3.org/2000/svg" width="20" height="21" fill="none"><g fill="#7FB51F" clip-path="url(#a)"><path d="M3.334 8a2.5 2.5 0 1 0 0-5 2.5 2.5 0 0 0 0 5m2.741 1.725a5.83 5.83 0 0 0-2.742 4.942H1.667A1.67 1.67 0 0 1 0 13v-1.667a2.51 2.51 0 0 1 2.5-2.5h1.667a2.5 2.5 0 0 1 1.908.892M16.666 8a2.5 2.5 0 1 0 0-5 2.5 2.5 0 0 0 0 5M20 11.333V13a1.67 1.67 0 0 1-1.666 1.666h-1.667a5.83 5.83 0 0 0-2.741-4.941 2.5 2.5 0 0 1 1.908-.892h1.667a2.51 2.51 0 0 1 2.5 2.5M10 9.667A3.333 3.333 0 1 0 10 3a3.333 3.333 0 0 0 0 6.667m5 5v.833a2.51 2.51 0 0 1-2.5 2.5h-5A2.51 2.51 0 0 1 5 15.5v-.833A4.167 4.167 0 0 1 9.167 10.5h1.666A4.167 4.167 0 0 1 15 14.667"/></g><defs><clipPath id="a"><path fill="#fff" d="M0 .5h20v20H0z"/></clipPath></defs></svg>