<svg xmlns="http://www.w3.org/2000/svg" width="32" height="32" fill="none"><path fill="#7FB51F" d="M.223 23.162c-.282-2.41-.321-4.775.025-6.914.426-2.63 1.537-5.557 2.75-8.174C5.373 2.958 9.62 1.169 14.792.362 22.001-.763 31.937.362 32 9.087c-.362 3.12-2.748 11.795-10.805 12.456-2.664.22-3.66 2.895-4.834 5.958-3.088 8.06-15.105 4.482-16.138-4.34" opacity=".1"/><path fill="#7FB51F" d="M6 16.5a2 2 0 1 0 0-4 2 2 0 0 0 0 4m14-3a.5.5 0 0 0 0 1c4.102 0 7 3.752 7 4.5a.5.5 0 0 0 1 0c0-1.55-3.548-5.5-8-5.5"/><path fill="#7FB51F" d="M27.5 18.5h-4.512c-.668 0-1.245-.43-1.438-1.069l-1.104-3.655-1-2A.5.5 0 0 0 19 11.5h-1.5a.5.5 0 0 0-.354.146L15.293 13.5H7.5a.5.5 0 0 0-.5.5v1a.5.5 0 0 0 .418.493c1.832.306 4.95 1.057 5.667 1.794l.032.062c.945 1.85 2.122 4.151 4.383 4.151h7c1.994 0 3.5-1.075 3.5-2.5a.5.5 0 0 0-.5-.5M6.964 12.837l-1-2a.5.5 0 0 0-.646-.233l-1.015.437a.5.5 0 0 0-.277.617l.5 1.5a.5.5 0 0 0 .633.316.495.495 0 0 0 .338-.454l.448.018.124.247a.501.501 0 0 0 .895-.448m-.24 2.716a.503.503 0 0 0-.671.224l-.063.124A.5.5 0 0 0 5 16v1a.5.5 0 0 0 .5.5H6a.5.5 0 0 0 .447-.276l.5-1a.5.5 0 0 0-.223-.671M18.5 8.5a.5.5 0 0 0-.5.5v.5a.5.5 0 0 0 1 0V9a.5.5 0 0 0-.5-.5"/><path fill="#7FB51F" d="M27.5 9.5h-9a.5.5 0 0 0 0 1h9a.5.5 0 0 0 0-1"/><path fill="#7FB51F" d="M18.5 9.5h-9a.5.5 0 0 0 0 1h9a.5.5 0 0 0 0-1m2 11a.5.5 0 0 0-.5.5v2a.5.5 0 0 0 1 0v-2a.5.5 0 0 0-.5-.5m4 0a.5.5 0 0 0-.5.5v2a.5.5 0 0 0 1 0v-2a.5.5 0 0 0-.5-.5"/><path fill="#7FB51F" d="M27.744 21.564a.5.5 0 0 0-.681.192c-.237.423-1.203.687-1.563.744h-10a.5.5 0 0 0 0 1l10.069-.005c.185-.026 1.824-.281 2.367-1.251a.5.5 0 0 0-.192-.68"/></svg>