<svg xmlns="http://www.w3.org/2000/svg" width="32" height="32" fill="none"><path fill="#7FB51F" d="M.223 23.162c-.282-2.41-.321-4.775.025-6.914.426-2.63 1.537-5.557 2.75-8.174C5.373 2.958 9.62 1.169 14.792.362 22.001-.763 31.937.362 32 9.087c-.362 3.12-2.748 11.795-10.805 12.456-2.664.22-3.66 2.895-4.834 5.958-3.088 8.06-15.105 4.482-16.138-4.34" opacity=".1"/><g fill="#7FB51F" clip-path="url(#a)"><path d="M13.934 17.864a2.28 2.28 0 0 0-2.275-2.275 2.33 2.33 0 0 0-1.638.641l-2.615 2.81a4.8 4.8 0 0 1 1.15-.141 4.96 4.96 0 0 1 4.596 3.098l.753-3.665q.034-.233.03-.468m3.313.232-.004-.025a1.241 1.241 0 0 0-2.482 0l-.004.025a2.6 2.6 0 0 1-.041.393v.004l-.733 3.583a3.28 3.28 0 0 1 4.038 0l-.732-3.583v-.004a2.6 2.6 0 0 1-.042-.393m-1.245 7.422a.827.827 0 1 0 0-1.655.827.827 0 0 0 0 1.655"/><path d="M8.555 19.726a4.137 4.137 0 1 0 4.137 4.137 4.143 4.143 0 0 0-4.137-4.137M5.78 22.33l1.241-1.24a.414.414 0 0 1 .585.584l-1.24 1.241a.414.414 0 0 1-.586-.585m4.309-1.07-4.137 4.138a.414.414 0 0 1-.585-.585l4.136-4.137a.414.414 0 0 1 .585.585m13.361-2.362a4.8 4.8 0 0 1 1.15.14l-2.627-2.821a2.32 2.32 0 0 0-1.626-.629 2.28 2.28 0 0 0-2.275 2.275q-.004.236.029.468l.753 3.665a4.96 4.96 0 0 1 4.596-3.098m-7.447 3.309a2.482 2.482 0 1 0 0 4.965 2.482 2.482 0 0 0 0-4.965m0 4.137a1.655 1.655 0 1 1 0-3.31 1.655 1.655 0 0 1 0 3.31"/><path d="M23.45 19.726a4.137 4.137 0 1 0 4.136 4.137 4.144 4.144 0 0 0-4.137-4.137m-2.775 2.603 1.24-1.24a.414.414 0 0 1 .586.584l-1.241 1.241a.414.414 0 0 1-.585-.585m4.308-1.07-4.137 4.138a.414.414 0 0 1-.585-.585l4.137-4.137a.414.414 0 0 1 .585.585m-15.29-7.588a.414.414 0 1 0 .696-.446 6.34 6.34 0 0 1 0-6.857.414.414 0 0 0-.696-.446 7.17 7.17 0 0 0 0 7.75m12.05.124a.414.414 0 0 0 .57-.124 7.17 7.17 0 0 0 0-7.75.414.414 0 1 0-.696.447 6.34 6.34 0 0 1 0 6.857.414.414 0 0 0 .125.57m-10.702-3.586h.848a4.14 4.14 0 0 0 3.702 3.703v.848a.414.414 0 1 0 .828 0v-.848a4.14 4.14 0 0 0 3.702-3.703h.848a.414.414 0 1 0 0-.827h-.848a4.14 4.14 0 0 0-3.702-3.703v-.848a.414.414 0 1 0-.828 0v.848a4.14 4.14 0 0 0-3.702 3.703h-.848a.414.414 0 0 0 0 .827m2.482-.827h-.799a3.31 3.31 0 0 1 2.867-2.867v.798a.414.414 0 1 0 .828 0v-.798a3.31 3.31 0 0 1 2.867 2.867h-.799a.414.414 0 1 0 0 .827h.799a3.31 3.31 0 0 1-2.867 2.867v-.798a.414.414 0 0 0-.828 0v.798a3.31 3.31 0 0 1-2.867-2.867h.799a.414.414 0 1 0 0-.827"/><path d="M16 10.211a.414.414 0 1 0 0-.827.414.414 0 0 0 0 .827m-7.71 4.324a.414.414 0 1 0 .695-.446 7.94 7.94 0 0 1 0-8.583.414.414 0 1 0-.697-.446 8.77 8.77 0 0 0 0 9.474zm15.986-4.737a7.94 7.94 0 0 1-1.26 4.29.414.414 0 1 0 .695.447 8.77 8.77 0 0 0 0-9.473.414.414 0 1 0-.696.446 7.94 7.94 0 0 1 1.26 4.29"/><path d="M7.239 15.59a.414.414 0 0 0 .348-.638 9.54 9.54 0 0 1 0-10.31.414.414 0 1 0-.696-.446 10.36 10.36 0 0 0 0 11.203c.076.119.207.19.348.19M25.93 9.798a9.54 9.54 0 0 1-1.513 5.154.414.414 0 1 0 .696.447 10.36 10.36 0 0 0 0-11.203.414.414 0 1 0-.696.447 9.54 9.54 0 0 1 1.513 5.155"/></g><defs><clipPath id="a"><path fill="#fff" d="M4 4h24v24H4z"/></clipPath></defs></svg>