<svg xmlns="http://www.w3.org/2000/svg" width="40" height="40" fill="none"><g fill="#7FB51F" clip-path="url(#a)"><path d="M.279 28.952c-.353-3.012-.402-5.968.031-8.642.532-3.288 1.921-6.946 3.439-10.218 2.966-6.394 8.275-8.63 14.74-9.64C27.501-.952 39.922.453 40 11.36c-.452 3.9-3.435 14.743-13.506 15.57-3.33.274-4.575 3.618-6.042 7.447C16.592 44.45 1.57 39.979.279 28.952" opacity=".1"/><path d="M24.889 8.333h-9.777c-4.246 0-6.778 2.532-6.778 6.779v9.776c0 4.247 2.532 6.779 6.778 6.779h9.777c4.247 0 6.778-2.532 6.778-6.779v-9.776c0-4.247-2.531-6.779-6.778-6.779m-7.257 15.05-2.625 2.625a.87.87 0 0 1-.618.257.85.85 0 0 1-.618-.257l-.875-.875a.86.86 0 0 1 0-1.236.88.88 0 0 1 1.236 0l.257.256 2.007-2.006a.88.88 0 0 1 1.236 0 .88.88 0 0 1 0 1.236m0-8.166-2.625 2.625a.87.87 0 0 1-.618.256.85.85 0 0 1-.618-.256l-.875-.875a.86.86 0 0 1 0-1.237.88.88 0 0 1 1.236 0l.257.257 2.007-2.007a.88.88 0 0 1 1.236 0 .88.88 0 0 1 0 1.237m8.855 10.173h-6.125a.88.88 0 0 1-.875-.875c0-.478.397-.875.875-.875h6.125a.874.874 0 1 1 0 1.75m0-8.167h-6.125a.88.88 0 0 1-.875-.875c0-.478.397-.875.875-.875h6.125a.874.874 0 1 1 0 1.75"/></g><defs><clipPath id="a"><path fill="#fff" d="M0 0h40v40H0z"/></clipPath></defs></svg>