<svg xmlns="http://www.w3.org/2000/svg" width="32" height="32" fill="none"><g clip-path="url(#a)"><path fill="#1884D2" d="M16 0c8.837 0 16 7.164 16 16s-7.163 16-16 16S0 24.837 0 16C-.025 7.189 7.098.025 15.91 0z"/><path fill="#fff" d="M14 8.875C14 7.841 14.841 7 15.875 7s1.875.841 1.875 1.875a1.877 1.877 0 0 1-1.875 1.875A1.877 1.877 0 0 1 14 8.875m1.875 3.75c1.034 0 1.875.841 1.875 1.875v9.375a1.877 1.877 0 0 1-1.875 1.875A1.877 1.877 0 0 1 14 23.875V14.5c0-1.034.841-1.875 1.875-1.875"/></g><defs><clipPath id="a"><path fill="#fff" d="M0 0h32v32H0z"/></clipPath></defs></svg>