<svg xmlns="http://www.w3.org/2000/svg" width="14" height="15" fill="none"><path fill="#015637" fill-rule="evenodd" d="M2.917 1.667h8.166a1.17 1.17 0 0 1 1.167 1.166V11.7c0 .817-.817 1.4-1.575 1.108l-.933-.35c-.292-.116-.584-.116-.875.059l-1.4.641a1.3 1.3 0 0 1-.934 0l-1.4-.641c-.291-.117-.583-.117-.875-.059l-.933.292c-.758.292-1.575-.292-1.575-1.05V2.833a1.17 1.17 0 0 1 1.167-1.166m7 3.383a.46.46 0 0 0 .466-.467.46.46 0 0 0-.466-.466H4.083a.5.5 0 0 0-.466.466c0 .234.233.467.466.467zm.466 1.867a.46.46 0 0 1-.466.466H4.083a.46.46 0 0 1-.466-.466c0-.292.175-.467.466-.467h5.834c.233 0 .466.233.466.467M7 9.717a.46.46 0 0 0 .467-.467c0-.292-.175-.467-.467-.467H4.083a.46.46 0 0 0-.466.467c0 .292.175.467.466.467z" clip-rule="evenodd"/></svg>