<svg xmlns="http://www.w3.org/2000/svg" width="40" height="40" fill="none"><g clip-path="url(#a)"><path fill="#7FB51F" d="M.279 28.952c-.353-3.012-.402-5.968.031-8.642.532-3.288 1.921-6.946 3.439-10.218 2.966-6.394 8.275-8.63 14.74-9.64C27.501-.952 39.922.453 40 11.36c-.452 3.9-3.435 14.743-13.506 15.57-3.33.274-4.575 3.618-6.042 7.447C16.592 44.45 1.57 39.979.279 28.952" opacity=".1"/><g clip-path="url(#b)"><path fill="#7FB51F" d="M24.118 21.647h4.117c.31 0 .607-.148.793-.396C30.557 19.211 34 14.298 34 11.765A5.77 5.77 0 0 0 28.235 6a5.77 5.77 0 0 0-5.764 5.765c0 2.277 2.725 6.337 4.064 8.235h-2.417A4.12 4.12 0 0 0 20 24.118a4.12 4.12 0 0 0 4.118 4.117h1.235c1.135 0 2.059.924 2.059 2.06a2.06 2.06 0 0 1-2.06 2.058H13.467c1.337-1.895 4.063-5.958 4.063-8.235a5.77 5.77 0 0 0-5.764-5.765A5.77 5.77 0 0 0 6 24.118c0 2.535 3.448 7.454 4.973 9.486a1 1 0 0 0 .792.396h13.588a3.71 3.71 0 0 0 3.706-3.706 3.71 3.71 0 0 0-3.706-3.706h-1.235a2.473 2.473 0 0 1-2.47-2.47 2.473 2.473 0 0 1 2.47-2.47m4.117-11.53c.909 0 1.647.74 1.647 1.648s-.739 1.647-1.647 1.647a1.65 1.65 0 0 1-1.647-1.647c0-.909.74-1.647 1.647-1.647m-18.117 14a1.648 1.648 0 0 1 3.294.001 1.65 1.65 0 0 1-1.647 1.647 1.65 1.65 0 0 1-1.647-1.647"/></g></g><defs><clipPath id="a"><path fill="#fff" d="M0 0h40v40H0z"/></clipPath><clipPath id="b"><path fill="#fff" d="M6 6h28v28H6z"/></clipPath></defs></svg>