<svg xmlns="http://www.w3.org/2000/svg" width="40" height="40" fill="none"><g clip-path="url(#a)"><path fill="#015637" d="M.279 28.952c-.353-3.012-.402-5.968.031-8.642.532-3.288 1.921-6.946 3.439-10.218 2.966-6.394 8.275-8.63 14.74-9.64C27.501-.952 39.922.453 40 11.36c-.452 3.9-3.435 14.743-13.506 15.57-3.33.274-4.575 3.618-6.042 7.447C16.592 44.45 1.57 39.979.279 28.952" opacity=".1"/><path fill="#7FB51F" d="M31.875 11.563h-3.437V8.124a1.563 1.563 0 0 0-1.563-1.562H8.125a1.56 1.56 0 0 0-1.562 1.562V28.75a4.69 4.69 0 0 0 4.687 4.688H30A3.44 3.44 0 0 0 33.438 30V13.125a1.563 1.563 0 0 0-1.563-1.562M18.75 27.813h-7.5a.938.938 0 0 1 0-1.875h7.5a.938.938 0 0 1 0 1.875m5-3.75h-12.5a.938.938 0 0 1 0-1.875h12.5a.938.938 0 0 1 0 1.875m.938-5.313a.95.95 0 0 1-.938.938h-12.5a.95.95 0 0 1-.937-.938V12.5a.95.95 0 0 1 .937-.937h12.5a.95.95 0 0 1 .938.937zM31.563 30a1.563 1.563 0 0 1-3.125 0V13.438h3.125z"/><path fill="#7FB51F" d="M12.188 13.437h10.625v4.375H12.188z"/></g><defs><clipPath id="a"><path fill="#fff" d="M0 0h40v40H0z"/></clipPath></defs></svg>