<svg xmlns="http://www.w3.org/2000/svg" width="32" height="32" fill="none"><g fill="#7FB51F" clip-path="url(#a)"><path d="M.223 23.162c-.282-2.41-.321-4.775.025-6.914.426-2.63 1.537-5.557 2.75-8.174C5.373 2.958 9.62 1.169 14.792.362 22.001-.763 31.937.362 32 9.087c-.362 3.12-2.748 11.795-10.805 12.456-2.664.22-3.66 2.895-4.834 5.958-3.088 8.06-15.105 4.482-16.138-4.34" opacity=".1"/><path d="M6.397 19.516a4 4 0 0 1 .349-1.418 4.3 4.3 0 0 1-.35-1.49 2.95 2.95 0 0 0-1.18 2.908zM9.35 15.9a4 4 0 0 1 2.57-2.235 2.956 2.956 0 0 0-4.106 3.033A4 4 0 0 1 9.35 15.9m1.092 1.273h-.068a2.6 2.6 0 0 0-1.877.81 2.55 2.55 0 0 0-.69 1.533h10.667a5 5 0 0 1-.084-.89c0-1.12.4-2.517 1.05-3.667a2.64 2.64 0 0 0-1.231.087 2.58 2.58 0 0 0-2.21-1.249c-.905 0-1.743.476-2.209 1.249a2.6 2.6 0 0 0-1-.115 2.57 2.57 0 0 0-2.348 2.242M22.328 19c0 .197.072.377.19.516h1.214A.798.798 0 1 0 22.328 19"/><path d="M19.918 19.516h1.065a2.205 2.205 0 0 1 2.142-2.719 2.205 2.205 0 0 1 2.142 2.719h1.065q.12-.427.121-.89c0-1.659-1.296-4.829-3.328-4.829s-3.328 3.17-3.328 4.828q.001.465.121.89m7.379 1.407H4.703a.703.703 0 0 0 0 1.406h.32l.97 2.424a2.1 2.1 0 0 0 1.959 1.326h16.096c.868 0 1.636-.52 1.958-1.326l.97-2.424h.32a.703.703 0 0 0 0-1.406M15.577 9.743l-.162.242a.703.703 0 1 0 1.17.78l.162-.242a2 2 0 0 0-.25-2.52.59.59 0 0 1-.073-.745l.162-.243a.703.703 0 1 0-1.17-.78l-.162.243a2 2 0 0 0 .25 2.52.59.59 0 0 1 .073.745m-4.125 1.125-.162.242a.703.703 0 1 0 1.17.78l.162-.242a2 2 0 0 0-.25-2.52.59.59 0 0 1-.073-.745l.162-.243a.703.703 0 1 0-1.17-.78l-.162.243a2 2 0 0 0 .25 2.52.59.59 0 0 1 .073.745m8.25 0-.162.242a.703.703 0 1 0 1.17.78l.162-.242a2 2 0 0 0-.25-2.52.59.59 0 0 1-.073-.745l.162-.243a.703.703 0 1 0-1.17-.78l-.162.243a2 2 0 0 0 .25 2.52.59.59 0 0 1 .073.745"/></g><defs><clipPath id="a"><path fill="#fff" d="M0 0h32v32H0z"/></clipPath></defs></svg>