<svg xmlns="http://www.w3.org/2000/svg" width="32" height="32" fill="none"><g fill="#7FB51F" clip-path="url(#a)"><path d="M.223 23.162c-.282-2.41-.321-4.775.025-6.914.426-2.63 1.537-5.557 2.75-8.174C5.373 2.958 9.62 1.169 14.792.362 22.001-.763 31.937.362 32 9.087c-.362 3.12-2.748 11.795-10.805 12.456-2.664.22-3.66 2.895-4.834 5.958-3.088 8.06-15.105 4.482-16.138-4.34" opacity=".1"/><g clip-path="url(#b)"><path d="m8.072 11.28 4 3.999a6.26 6.26 0 0 1 3.225-1.335v-5.66a11.9 11.9 0 0 0-7.225 2.995m-.994.994C5.2 14.386 4 17.158 4 20.201c0 .389.314.703.703.703H8.97a.703.703 0 0 0 .703-.703c0-1.491.54-2.845 1.406-3.928zm14.355 2.43a.7.7 0 0 0-.842-.064l-6.102 3.893a2.8 2.8 0 0 0-1.302 2.372A2.815 2.815 0 0 0 16 23.716a2.82 2.82 0 0 0 2.55-1.626l3.056-6.562a.7.7 0 0 0-.173-.825m3.489-2.43-2.066 2.067c.26.556.294 1.206.026 1.782l-.925 1.985c.238.654.372 1.357.372 2.094 0 .389.314.703.703.703h4.266a.703.703 0 0 0 .703-.703c0-3.043-1.2-5.815-3.079-7.928m-8.219-3.99v5.66a6.3 6.3 0 0 1 1.685.433l1.447-.923c.58-.375 1.288-.456 2.025-.106l2.067-2.068a11.9 11.9 0 0 0-7.224-2.996"/></g></g><defs><clipPath id="a"><path fill="#fff" d="M0 0h32v32H0z"/></clipPath><clipPath id="b"><path fill="#fff" d="M4 4h24v24H4z"/></clipPath></defs></svg>