<svg xmlns="http://www.w3.org/2000/svg" width="32" height="32" fill="none"><g fill="#7FB51F" clip-path="url(#a)"><path d="M.223 23.162c-.282-2.41-.321-4.775.025-6.914.426-2.63 1.537-5.557 2.75-8.174C5.373 2.958 9.62 1.169 14.792.362 22.001-.763 31.937.362 32 9.087c-.362 3.12-2.748 11.795-10.805 12.456-2.664.22-3.66 2.895-4.834 5.958-3.088 8.06-15.105 4.482-16.138-4.34" opacity=".1"/><path fill-rule="evenodd" d="m13.955 22.82.046.002h11.52a1.251 1.251 0 0 0 1.04-1.944l-5.338-8.007a1.25 1.25 0 0 0-2.08 0l-5.857 8.785a.751.751 0 0 0 .669 1.164m1.357-1.498h9.742l-4.871-7.307z" clip-rule="evenodd"/><path fill-rule="evenodd" d="M13.908 22.822H25.52a1.251 1.251 0 0 0 1.04-1.944l-2.618-3.927a.75.75 0 0 0-1.04-.208l-1.057.705-.61-.61a.75.75 0 0 0-.947-.095l-1.056.705-1.238-1.238a.75.75 0 0 0-1.154.114l-3.555 5.332a.75.75 0 0 0 .624 1.166m-1.581 0H6.48a1.25 1.25 0 0 1-1.04-1.944l7.429-11.143a1.25 1.25 0 0 1 2.08 0l2.54 3.811-.901 1.352-2.68-4.019-6.961 10.443h5.38a1.75 1.75 0 0 0 0 1.5" clip-rule="evenodd"/><path fill-rule="evenodd" d="M12.328 22.822a1.75 1.75 0 0 1 .125-1.72l5-7.5a.75.75 0 0 0-.938.099l-1.133 1.133-1.057-.704a.75.75 0 0 0-.946.094l-1.561 1.56-1.142-1.142a.75.75 0 0 0-1.154.114L5.44 20.878a1.253 1.253 0 0 0 1.04 1.944z" clip-rule="evenodd"/></g><defs><clipPath id="a"><path fill="#fff" d="M0 0h32v32H0z"/></clipPath></defs></svg>