<svg xmlns="http://www.w3.org/2000/svg" width="32" height="32" fill="none"><g fill="#7FB51F" clip-path="url(#a)"><path d="M.223 23.162c-.282-2.41-.321-4.775.025-6.914.426-2.63 1.537-5.557 2.75-8.174C5.373 2.958 9.62 1.169 14.792.362 22.001-.763 31.937.362 32 9.087c-.362 3.12-2.748 11.795-10.805 12.456-2.664.22-3.66 2.895-4.834 5.958-3.088 8.06-15.105 4.482-16.138-4.34" opacity=".1"/><path d="M4 22.778v1.506a.703.703 0 0 0 1.406 0v-.803h21.188v.803a.703.703 0 0 0 1.406 0v-3.816H4zm21.414-8.234H6.586A2.59 2.59 0 0 0 4 17.13v1.933h24V17.13a2.59 2.59 0 0 0-2.586-2.586m-12.051-3.113c-.65 0-1.18.53-1.18 1.18v.526h7.632v-.526c0-.65-.53-1.18-1.18-1.18z"/><path d="M10.777 12.61a2.59 2.59 0 0 1 2.586-2.585h5.272a2.59 2.59 0 0 1 2.586 2.586v.526h3.766V9.598A2.59 2.59 0 0 0 22.4 7.012H9.598a2.59 2.59 0 0 0-2.586 2.586v3.54h3.765z"/></g><defs><clipPath id="a"><path fill="#fff" d="M0 0h32v32H0z"/></clipPath></defs></svg>