<svg xmlns="http://www.w3.org/2000/svg" width="32" height="32" fill="none"><g fill="#7FB51F" clip-path="url(#a)"><path d="M.223 23.162c-.282-2.41-.321-4.775.025-6.914.426-2.63 1.537-5.557 2.75-8.174C5.373 2.958 9.62 1.169 14.792.362 22.001-.763 31.937.362 32 9.087c-.362 3.12-2.748 11.795-10.805 12.456-2.664.22-3.66 2.895-4.834 5.958-3.088 8.06-15.105 4.482-16.138-4.34" opacity=".1"/><g clip-path="url(#b)"><path d="M24.705 14.989c-.424.393-1.846 1.733-2.295 2.153a1.1 1.1 0 0 0-.308.763c-.007.865.145 2.032-.596 2.667l-2.166 2.094a2.43 2.43 0 0 1-3.38-.03c-1.072-.869-1.45-2.328-.603-3.49.14-.19.216-.419.214-.655v-2.376a1.104 1.104 0 0 0-1.1-1.096 1.96 1.96 0 0 1-1.426-.621l-2.903-3.203a9.4 9.4 0 0 0-3.126 4.564c0 .005 2.736 2.784 2.736 2.784.247.247.576.396.925.42a2.29 2.29 0 0 1 2.132 2.273v1.546a2.66 2.66 0 0 1-.779 1.888 1.9 1.9 0 0 0-.544 1.174l-.154.907c7.73 4.415 16.77-3.538 13.373-11.763"/><path d="M11.952 22.782v-1.546a1.43 1.43 0 0 0-1.332-1.417 2.32 2.32 0 0 1-1.477-.673l-2.377-2.415a9.38 9.38 0 0 0 3.781 9.515l.124-.724c.082-1.121 1.317-1.613 1.28-2.74m5.884-9.669a1.126 1.126 0 0 0 1.94 0l2.14-3.713a3.55 3.55 0 0 0 0-3.592c-2.515-4.05-8.465-.611-6.22 3.592zm.972-7.485c2.603.082 2.602 3.866 0 3.948a1.974 1.974 0 0 1 0-3.948"/><path d="M13.673 13.815a1.1 1.1 0 0 0 .796.347 1.966 1.966 0 0 1 1.957 1.953v2.376c.074.799-.7 1.297-.677 2.077-.03.607.399 1.08.818 1.46a1.56 1.56 0 0 0 2.176.022l2.166-2.094c.513-.451.289-1.398.334-2.051a1.94 1.94 0 0 1 .566-1.375l2.513-2.36a9.2 9.2 0 0 0-2.29-2.825c-.274.47-1.049 1.812-1.332 2.303a2.2 2.2 0 0 1-3.79 0s-2.356-4.088-2.458-4.367a9.3 9.3 0 0 0-3.614 1.413c.36.394 2.426 2.673 2.835 3.121m5.134-5.095a1.118 1.118 0 0 0 0-2.236 1.118 1.118 0 0 0 0 2.236"/></g></g><defs><clipPath id="a"><path fill="#fff" d="M0 0h32v32H0z"/></clipPath><clipPath id="b"><path fill="#fff" d="M4 4h24v24H4z"/></clipPath></defs></svg>