<svg xmlns="http://www.w3.org/2000/svg" width="40" height="40" fill="none"><g clip-path="url(#a)"><path fill="#015637" d="M.279 28.952c-.353-3.012-.402-5.968.031-8.642.532-3.288 1.921-6.946 3.439-10.218 2.966-6.394 8.275-8.63 14.74-9.64C27.501-.952 39.922.453 40 11.36c-.452 3.9-3.435 14.743-13.506 15.57-3.33.274-4.575 3.618-6.042 7.447C16.592 44.45 1.57 39.979.279 28.952" opacity=".1"/><g fill="#7FB51F" clip-path="url(#b)"><path fill-rule="evenodd" d="M13.68 5.3a1.5 1.5 0 0 0-1.93 1.437v28.242H17v-5.25a1.5 1.5 0 0 1 1.5-1.5h3a1.5 1.5 0 0 1 1.5 1.5v5.25h5.25V10.787a1.5 1.5 0 0 0-1.07-1.437zM17 13.98a.75.75 0 0 0-.75.75v1.5c0 .414.335.75.75.75h1.5a.75.75 0 0 0 .75-.75v-1.5a.75.75 0 0 0-.75-.75zm-.75 5.25a.75.75 0 0 1 .75-.75h1.5a.75.75 0 0 1 .75.75v1.5a.75.75 0 0 1-.75.75H17a.75.75 0 0 1-.75-.75zm.75 3.75a.75.75 0 0 0-.75.75v1.5c0 .414.335.75.75.75h1.5a.75.75 0 0 0 .75-.75v-1.5a.75.75 0 0 0-.75-.75zm3.75-8.25a.75.75 0 0 1 .75-.75H23a.75.75 0 0 1 .75.75v1.5a.75.75 0 0 1-.75.75h-1.5a.75.75 0 0 1-.75-.75zm.75 3.75a.75.75 0 0 0-.75.75v1.5c0 .414.336.75.75.75H23a.75.75 0 0 0 .75-.75v-1.5a.75.75 0 0 0-.75-.75zm-.75 5.25a.75.75 0 0 1 .75-.75H23a.75.75 0 0 1 .75.75v1.5a.75.75 0 0 1-.75.75h-1.5a.75.75 0 0 1-.75-.75z" clip-rule="evenodd"/><path d="M10.25 34.979v-25.5H8a1.5 1.5 0 0 0-1.5 1.5v22.5h-.75a.75.75 0 0 0 0 1.5zm24 .001h-4.5V15.15l2.994 1.711a1.5 1.5 0 0 1 .756 1.302V33.48h.75a.75.75 0 0 1 0 1.5m-12.75-.001v-5.25h-3v5.25z"/></g></g><defs><clipPath id="a"><path fill="#fff" d="M0 0h40v40H0z"/></clipPath><clipPath id="b"><path fill="#fff" d="M5 5h30v30H5z"/></clipPath></defs></svg>