<svg xmlns="http://www.w3.org/2000/svg" width="32" height="32" fill="none"><g fill="#7FB51F" clip-path="url(#a)"><path d="M.223 23.162c-.282-2.41-.321-4.775.025-6.914.426-2.63 1.537-5.557 2.75-8.174C5.373 2.958 9.62 1.169 14.792.362 22.001-.763 31.937.362 32 9.087c-.362 3.12-2.748 11.795-10.805 12.456-2.664.22-3.66 2.895-4.834 5.958-3.088 8.06-15.105 4.482-16.138-4.34" opacity=".1"/><path d="M24.625 10.75h-.375V10a3.754 3.754 0 0 0-3.75-3.75h-9A3.754 3.754 0 0 0 7.75 10v.75h-.375A1.877 1.877 0 0 0 5.5 12.625V14.5a.75.75 0 1 0 1.5 0v-1.875c0-.207.169-.375.375-.375h.375v7.5c0 1.221.595 2.297 1.502 2.982l-.002.018v1.5a1.5 1.5 0 0 0 1.5 1.5h.75a1.5 1.5 0 0 0 1.5-1.5v-.75h6v.75a1.5 1.5 0 0 0 1.5 1.5h.75a1.5 1.5 0 0 0 1.5-1.5v-1.5l-.002-.018a3.74 3.74 0 0 0 1.502-2.982v-7.5h.375c.206 0 .375.168.375.375V14.5a.75.75 0 1 0 1.5 0v-1.875c0-1.033-.84-1.875-1.875-1.875m-13.5 10.5a1.125 1.125 0 1 1 0-2.25 1.125 1.125 0 0 1 0 2.25m9.75 0a1.125 1.125 0 1 1 0-2.25 1.125 1.125 0 0 1 0 2.25m1.875-6.394a1.49 1.49 0 0 1-1.252 1.48 37 37 0 0 1-10.996 0 1.49 1.49 0 0 1-1.252-1.48V10.75a1.5 1.5 0 0 1 1.5-1.5h10.5a1.5 1.5 0 0 1 1.5 1.5z"/></g><defs><clipPath id="a"><path fill="#fff" d="M0 0h32v32H0z"/></clipPath></defs></svg>