<svg xmlns="http://www.w3.org/2000/svg" width="40" height="40" fill="none"><g clip-path="url(#a)"><path fill="#015637" d="M.279 28.952c-.353-3.012-.402-5.968.031-8.642.532-3.288 1.921-6.946 3.439-10.218 2.966-6.394 8.275-8.63 14.74-9.64C27.501-.952 39.922.453 40 11.36c-.452 3.9-3.435 14.743-13.506 15.57-3.33.274-4.575 3.618-6.042 7.447C16.592 44.45 1.57 39.979.279 28.952" opacity=".1"/><g fill="#7FB51F" clip-path="url(#b)"><path d="M10.502 10.14a1.054 1.054 0 0 0 0 2.106 1.054 1.054 0 0 0 0-2.106m16.104 22.918a2.29 2.29 0 1 0-4.232-1.754 2.29 2.29 0 0 0 4.232 1.754m-6.224-.883q0-.354.06-.693H8.57a1.75 1.75 0 0 1-1.75-1.749 1.75 1.75 0 0 1 1.75-1.748h8.183a3.38 3.38 0 0 0 3.375-3.375 3.38 3.38 0 0 0-3.375-3.375H13.15l-1.081 1.81h4.685c.864 0 1.566.702 1.566 1.565s-.703 1.566-1.566 1.566H8.571a3.56 3.56 0 0 0-3.558 3.557 3.56 3.56 0 0 0 3.558 3.558h11.967c-.1-.355-.156-.73-.156-1.116m14.617-12.519a.9.9 0 0 0-.568-.803l-9.614-3.846a.905.905 0 0 0-1.24.84v12.33a4.1 4.1 0 0 1 1.809 0v-3.152l9.11-4.523a.9.9 0 0 0 .502-.846"/><path d="M16.092 11.081a5.546 5.546 0 0 0-11.092 0v.023c0 1.107.296 2.194.858 3.148l4.22 7.168c.191.324.66.326.853.003l4.28-7.157c.576-.963.88-2.063.88-3.185m-5.59 2.973a2.865 2.865 0 0 1-2.862-2.861 2.865 2.865 0 0 1 2.862-2.862 2.865 2.865 0 0 1 2.862 2.862 2.865 2.865 0 0 1-2.862 2.861"/></g></g><defs><clipPath id="a"><path fill="#fff" d="M0 0h40v40H0z"/></clipPath><clipPath id="b"><path fill="#fff" d="M5 5h30v30H5z"/></clipPath></defs></svg>