<svg xmlns="http://www.w3.org/2000/svg" width="32" height="32" fill="none"><g fill="#7FB51F" clip-path="url(#a)"><path d="M.223 23.162c-.282-2.41-.321-4.775.025-6.914.426-2.63 1.537-5.557 2.75-8.174C5.373 2.958 9.62 1.169 14.792.362 22.001-.763 31.937.362 32 9.087c-.362 3.12-2.748 11.795-10.805 12.456-2.664.22-3.66 2.895-4.834 5.958-3.088 8.06-15.105 4.482-16.138-4.34" opacity=".1"/><g clip-path="url(#b)"><path d="m25.735 9.439-1.513.877V8.562c0-1.197-1.857-1.197-1.857 0v2.826l-1.4.807a1.41 1.41 0 0 1-1.393 0l-.696-.404-.928 1.606.696.404c.432.25.696.71.696 1.207v1.605c0 .497-.264.96-.696 1.207l-1.392.803c-.432.25-.96.25-1.392 0l-.696-.4-.928 1.606.696.404c.431.246.696.705.696 1.207v1.614l-2.446 1.411c-1.034.599-.106 2.21.928 1.606l1.518-.873v1.75c0 1.197 1.856 1.197 1.856 0v-1.75l1.518.873c1.034.598 1.963-1.007.928-1.606l-2.446-1.411v-1.615c0-.501.264-.96.696-1.206l1.392-.803c.432-.25.96-.25 1.393 0l1.401.807v2.822c0 1.197 1.856 1.197 1.856 0v-1.75l1.513.873c1.04.598 1.968-1.007.928-1.606l-1.513-.877 1.514-.873c1.038-.598.11-2.208-.929-1.61l-2.44 1.411-1.402-.807a1.39 1.39 0 0 1-.696-1.207v-1.606c0-.496.264-.956.696-1.207l1.401-.807 2.441 1.41c1.04.6 1.968-1.006.928-1.605l-1.513-.877 1.514-.877c1.038-.598.11-2.204-.929-1.605m-5.793-2.682.39-1.462c.311-1.16-1.48-1.638-1.79-.483l-.396 1.462c-.306 1.16 1.485 1.638 1.796.483M7.018 17.407l-1.462.39c-1.155.31-.677 2.102.478 1.79l1.467-.39c1.155-.31.673-2.101-.483-1.79m-.984-5.374c-1.155-.311-1.633 1.48-.478 1.791l1.462.395c1.155.306 1.638-1.485.483-1.796zm3.059-2.371c.849.849 2.162-.464 1.313-1.314L9.333 7.281c-.844-.85-2.157.464-1.313 1.313zm.001 12.298-1.072 1.07c-.844.844.47 2.157 1.313 1.313l1.073-1.072c.849-.849-.465-2.162-1.314-1.313M14.96 6.274l-.39-1.462c-.311-1.155-2.103-.677-1.792.483l.39 1.462c.311 1.155 2.102.677 1.791-.483m-4.341 6.144c-1.643 2.9-.887 6.752 1.75 8.794L19.141 9.48c-3.109-1.272-6.863.014-8.524 2.937"/></g></g><defs><clipPath id="a"><path fill="#fff" d="M0 0h32v32H0z"/></clipPath><clipPath id="b"><path fill="#fff" d="M4 4h24v24H4z"/></clipPath></defs></svg>