<svg xmlns="http://www.w3.org/2000/svg" width="32" height="32" fill="none"><g fill="#7FB51F" clip-path="url(#a)"><path d="M.223 23.162c-.282-2.41-.321-4.775.025-6.914.426-2.63 1.537-5.557 2.75-8.174C5.373 2.958 9.62 1.169 14.792.362 22.001-.763 31.937.362 32 9.087c-.362 3.12-2.748 11.795-10.805 12.456-2.664.22-3.66 2.895-4.834 5.958-3.088 8.06-15.105 4.482-16.138-4.34" opacity=".1"/><path d="M7.527 11.5h16.946a.75.75 0 0 0 .75-.793l-.01-.195A3.756 3.756 0 0 0 21.464 7h-.963v-.75a.75.75 0 0 0-1.5 0V7h-6v-.75a.75.75 0 0 0-1.5 0V7h-.964a3.757 3.757 0 0 0-3.749 3.514l-.01.193a.75.75 0 0 0 .75.793m17.811 2.231a.75.75 0 0 0-.75-.731H7.41a.75.75 0 0 0-.75.731 92 92 0 0 0 .142 7.96 3.75 3.75 0 0 0 3.507 3.506 91 91 0 0 0 11.381 0 3.75 3.75 0 0 0 3.507-3.507c.162-2.594.21-5.272.142-7.959m-5.59 3.769a1.125 1.125 0 1 1 0-2.25 1.125 1.125 0 0 1 0 2.25m1.126 2.625a1.125 1.125 0 1 1-2.25 0 1.125 1.125 0 0 1 2.25 0M12.25 19a1.125 1.125 0 1 1 0 2.25 1.125 1.125 0 0 1 0-2.25m-1.125-2.625a1.125 1.125 0 1 1 2.25 0 1.125 1.125 0 0 1-2.25 0m3.75 3.75a1.125 1.125 0 1 1 2.25 0 1.125 1.125 0 0 1-2.25 0M16 17.5a1.125 1.125 0 1 1 0-2.25 1.125 1.125 0 0 1 0 2.25"/></g><defs><clipPath id="a"><path fill="#fff" d="M0 0h32v32H0z"/></clipPath></defs></svg>