<svg xmlns="http://www.w3.org/2000/svg" width="40" height="40" fill="none"><g clip-path="url(#a)"><path fill="#015637" d="M.279 28.952c-.353-3.012-.402-5.968.031-8.642.532-3.288 1.921-6.946 3.439-10.218 2.966-6.394 8.275-8.63 14.74-9.64C27.501-.952 39.922.453 40 11.36c-.452 3.9-3.435 14.743-13.506 15.57-3.33.274-4.575 3.618-6.042 7.447C16.592 44.45 1.57 39.979.279 28.952" opacity=".1"/><path fill="#7FB51F" d="M15.519 24.463a6.23 6.23 0 0 0-2.394 4.912v1.875h-3.75A1.87 1.87 0 0 1 7.5 29.375v-1.25a4.37 4.37 0 0 1 4.375-4.375h1.25c.888 0 1.706.262 2.394.712M27.5 23.75a2.813 2.813 0 1 0 0-5.625 2.813 2.813 0 0 0 0 5.625"/><path fill="#7FB51F" d="M12.5 23.75a2.813 2.813 0 1 0 0-5.625 2.813 2.813 0 0 0 0 5.625m20 4.375v1.25a1.87 1.87 0 0 1-1.875 1.875h-3.75v-1.875a6.23 6.23 0 0 0-2.394-4.913 4.35 4.35 0 0 1 2.394-.712h1.25a4.37 4.37 0 0 1 4.375 4.375M20 24.375a3.438 3.438 0 1 0 0-6.875 3.438 3.438 0 0 0 0 6.875"/><path fill="#7FB51F" d="M20.625 24.375h-1.25c-2.757 0-5 2.243-5 5v1.875c0 1.034.841 1.875 1.875 1.875h7.5a1.877 1.877 0 0 0 1.875-1.875v-1.875c0-2.757-2.243-5-5-5m8.437-8.947-1.508.536a.646.646 0 0 1-.862-.627l.043-1.6-.976-1.269a.647.647 0 0 1 .33-1.014L27.624 11l.905-1.32a.646.646 0 0 1 1.067 0L30.5 11l1.536.453a.647.647 0 0 1 .33 1.014l-.977 1.269.044 1.6a.647.647 0 0 1-.863.627zm-18.125 0-1.508.536a.646.646 0 0 1-.862-.627l.044-1.6-.977-1.269a.647.647 0 0 1 .33-1.014L9.499 11l.905-1.32a.646.646 0 0 1 1.066 0l.906 1.32 1.535.453a.647.647 0 0 1 .33 1.014l-.977 1.269.044 1.6a.647.647 0 0 1-.863.627zM20 14.021l-1.788.636a.766.766 0 0 1-1.023-.743l.052-1.897-1.157-1.505a.767.767 0 0 1 .39-1.202l1.821-.537 1.073-1.565a.766.766 0 0 1 1.265 0l1.073 1.565 1.82.537a.767.767 0 0 1 .391 1.202l-1.158 1.505.052 1.897a.766.766 0 0 1-1.022.743z"/></g><defs><clipPath id="a"><path fill="#fff" d="M0 0h40v40H0z"/></clipPath></defs></svg>