<svg xmlns="http://www.w3.org/2000/svg" width="20" height="21" fill="none"><g clip-path="url(#a)"><path fill="#7FB51F" d="m8.6 6.625 1.4-.58 1.4.58a.587.587 0 0 0 .808-.588l-.119-1.51.985-1.154a.586.586 0 0 0-.309-.95l-1.474-.354L10.5.776c-.21-.368-.788-.368-.999 0L8.708 2.07l-1.474.354a.585.585 0 0 0-.308.95l.984 1.153-.119 1.511a.587.587 0 0 0 .808.588M19.97 5.117a.59.59 0 0 0-.42-.39l-1.474-.353-.791-1.293a.586.586 0 0 0-1 0l-.792 1.293-1.473.354a.584.584 0 0 0-.31.95l.985 1.153-.119 1.511a.587.587 0 0 0 .808.588l1.4-.58 1.401.58a.587.587 0 0 0 .809-.588l-.12-1.511.985-1.153a.59.59 0 0 0 .112-.561M4.84 8.975a.587.587 0 0 0 .583-.632L5.304 6.83l.985-1.153a.586.586 0 0 0-.31-.95l-1.473-.354-.792-1.293a.586.586 0 0 0-.999 0l-.792 1.293-1.474.354a.585.585 0 0 0-.309.95l.985 1.153-.119 1.512a.587.587 0 0 0 .808.587l1.4-.58 1.401.58a.6.6 0 0 0 .224.045m12.059 5.621-.693 3.973a2.08 2.08 0 0 1-2.048 1.721H10.16a2.1 2.1 0 0 1-1.49-.617l-.038-.036v-6.601l.026-.01a1.94 1.94 0 0 0 1.19-1.223l.35-1.119.47-1.507a.807.807 0 0 1 1.018-.516 1.84 1.84 0 0 1 1.179 2.322l-.525 1.723h2.971c1.002 0 1.761.903 1.588 1.89M6.875 20.5H4.163a.583.583 0 0 1-.583-.582v-7.025c0-.322.26-.583.583-.583h2.712c.322 0 .583.261.583.583v7.025a.583.583 0 0 1-.583.582"/></g><defs><clipPath id="a"><path fill="#fff" d="M0 .5h20v20H0z"/></clipPath></defs></svg>