<svg xmlns="http://www.w3.org/2000/svg" width="32" height="32" fill="none"><path fill="#CB1520" d="M20.847 17.258a.88.88 0 0 0-.648.213.92.92 0 0 0-.312.621c-.079.954-.176 1.785-.262 2.22v.006c-.251 1.334-1.48 2.652-2.742 2.942l-.328.067c.094-1.24.164-2.824.154-4.045.014-1.866-.16-4.74-.314-5.884-.277-2.105-1.537-4.44-2.93-5.433l-.01-.006a15.7 15.7 0 0 0-3.673-1.888 19.4 19.4 0 0 1 3.126-.24c1.425 0 2.725.133 3.975.4 1.261.288 2.49 1.608 2.742 2.941v.006c.085.433.183 1.263.261 2.215.02.241.133.465.314.622a.874.874 0 0 0 1.255-.11.93.93 0 0 0 .206-.667c-.085-1.03-.19-1.911-.289-2.418-.388-2.051-2.155-3.933-4.11-4.378l-.012-.003A20.8 20.8 0 0 0 12.906 4a20.2 20.2 0 0 0-4.34.44l-.012.002c-.873.199-1.707.684-2.4 1.343-.186.144-.35.319-.483.516-.611.733-1.055 1.61-1.227 2.52-.217 1.112-.46 3.998-.442 5.924-.01 1.033.055 2.343.151 3.507.052.746.11 1.396.167 1.813.277 2.106 1.537 4.441 2.931 5.434l.008.005c.97.673 2.009 1.234 3.098 1.672 1.103.44 2.116.707 3.095.816h.009c1.317.12 2.514-1.054 2.876-2.771q.46-.075.911-.171l.012-.003c1.955-.444 3.722-2.327 4.11-4.378.099-.508.204-1.39.29-2.423a.93.93 0 0 0-.207-.667.88.88 0 0 0-.605-.321"/><path fill="#CB1520" d="M28 14.743q.001-.045-.005-.09v-.007l-.012-.084v-.006a.9.9 0 0 0-.242-.46l-3.186-3.277a.88.88 0 0 0-.63-.268.88.88 0 0 0-.63.268.93.93 0 0 0 0 1.294l1.672 1.717H18.82a.88.88 0 0 0-.63.268.93.93 0 0 0-.26.647c0 .243.093.476.26.647a.88.88 0 0 0 .63.268h6.139l-1.67 1.716a.93.93 0 0 0 .001 1.293.88.88 0 0 0 .629.268.88.88 0 0 0 .629-.267l3.172-3.26a.9.9 0 0 0 .263-.502q.007-.036.011-.074c.002-.026 0-.038 0-.056v-.032z"/></svg>