<svg xmlns="http://www.w3.org/2000/svg" width="40" height="40" fill="none"><g fill="#7FB51F" clip-path="url(#a)"><path d="M.279 28.952c-.353-3.012-.402-5.968.031-8.642.532-3.288 1.921-6.946 3.439-10.218 2.966-6.394 8.275-8.63 14.74-9.64C27.501-.952 39.922.453 40 11.36c-.452 3.9-3.435 14.743-13.506 15.57-3.33.274-4.575 3.618-6.042 7.447C16.592 44.45 1.57 39.979.279 28.952" opacity=".1"/><g clip-path="url(#b)"><path d="m30.045 32.353-11.013-5.83a.88.88 0 0 0-.908.052l-8.421 5.83A.874.874 0 0 0 10.2 34h19.434a.874.874 0 0 0 .41-1.647m3.686-1.663-2.59-11.66a.874.874 0 0 0-1.353-.53l-8.422 5.831a.87.87 0 0 0-.375.77.87.87 0 0 0 .464.721l11.01 5.831a.86.86 0 0 0 .94-.077.88.88 0 0 0 .326-.885m-6.093-13.577a.88.88 0 0 0-.837-.614h-7.987c-1.453 2.63-3.601 5.145-4.485 6.128a2.63 2.63 0 0 1-1.953.872 2.63 2.63 0 0 1-1.953-.872 43 43 0 0 1-1.476-1.739l-2.117 9.53a.878.878 0 0 0 .854 1.064c.175 0 .348-.05.499-.155l19.115-13.235a.87.87 0 0 0 .34-.979"/><path d="M12.375 6a6.13 6.13 0 0 0-6.125 6.125c0 3.143 4.914 8.71 5.474 9.334a.88.88 0 0 0 .651.291.88.88 0 0 0 .651-.29c.56-.625 5.474-6.192 5.474-9.335A6.13 6.13 0 0 0 12.375 6m0 8.75a2.626 2.626 0 0 1 0-5.25 2.626 2.626 0 0 1 0 5.25"/></g></g><defs><clipPath id="a"><path fill="#fff" d="M0 0h40v40H0z"/></clipPath><clipPath id="b"><path fill="#fff" d="M6 6h28v28H6z"/></clipPath></defs></svg>