<svg xmlns="http://www.w3.org/2000/svg" width="20" height="21" fill="none"><g clip-path="url(#a)"><path fill="#7FB51F" d="M10 1c5.514 0 10 4.037 10 9 0 1.735-.549 3.415-1.59 4.868.198 2.179.726 3.797 1.492 4.563a.333.333 0 0 1-.282.566c-.135-.02-3.27-.47-5.539-1.78A10.9 10.9 0 0 1 10 19c-5.514 0-10-4.037-10-9s4.486-9 10-9m4.667 10.333c.735 0 1.333-.598 1.333-1.333a1.335 1.335 0 0 0-2.667 0c0 .735.598 1.333 1.334 1.333m-4.667 0c.735 0 1.333-.598 1.333-1.333S10.735 8.667 10 8.667 8.667 9.265 8.667 10s.598 1.333 1.333 1.333m-4.667 0c.736 0 1.334-.598 1.334-1.333A1.335 1.335 0 0 0 4 10c0 .735.598 1.333 1.333 1.333"/></g><defs><clipPath id="a"><path fill="#fff" d="M20 .5H0v20h20z"/></clipPath></defs></svg>