<svg xmlns="http://www.w3.org/2000/svg" width="32" height="32" fill="none"><path fill="#7FB51F" d="M.223 23.162c-.282-2.41-.321-4.775.025-6.914.426-2.63 1.537-5.557 2.75-8.174C5.373 2.958 9.62 1.169 14.792.362 22.001-.763 31.937.362 32 9.087c-.362 3.12-2.748 11.795-10.805 12.456-2.664.22-3.66 2.895-4.834 5.958-3.088 8.06-15.105 4.482-16.138-4.34" opacity=".1"/><path fill="#7FB51F" d="m17.159 6.232-5.215 10.43a.328.328 0 0 1-.586 0l-.864-1.729a.328.328 0 0 0-.587 0l-5.27 10.542a.328.328 0 0 0 .293.474h22.144a.328.328 0 0 0 .293-.474L17.745 6.232a.328.328 0 0 0-.586 0m.293 2.657 2.815 5.63-1.244 2.488a.44.44 0 0 1-.39.24h-.912a.44.44 0 0 0-.39.242l-.94 1.879a.436.436 0 0 1-.78 0l-1.7-3.4z"/></svg>