<svg xmlns="http://www.w3.org/2000/svg" width="16" height="17" fill="none"><g fill="#7FB51F" clip-path="url(#a)"><path d="M15.387 3.767c-.614-.845-1.69-1.607-3.027-2.147A12 12 0 0 0 8.008.784a11.9 11.9 0 0 0-4.356.823c-1.34.536-2.418 1.295-3.035 2.138-.591.81-.762 1.682-.493 2.523.175.545.684.913 1.268.914l1.998.001h.002c.398 0 .773-.174 1.027-.478A1.31 1.31 0 0 0 4.7 5.59l-.106-.409c.582-.277 1.902-.814 3.408-.806s2.825.545 3.408.822l-.107.407-.008.035c-.07.385.032.778.283 1.08.254.306.629.481 1.028.482l1.999.002h.002c.582 0 1.092-.366 1.268-.91.271-.841.103-1.715-.487-2.527"/><path d="m12.519 9.244-1.49-1.565a.48.48 0 0 0-.346-.148H9.72v-.65a.477.477 0 0 0-.955 0v.65h-1.53v-.65a.477.477 0 0 0-.954 0v.65h-.963a.48.48 0 0 0-.346.148l-1.49 1.565a6.54 6.54 0 0 0-1.812 4.53v1.964c0 .264.214.478.477.478h11.706a.477.477 0 0 0 .478-.478v-1.964a6.54 6.54 0 0 0-1.812-4.53M8 14.471a2.5 2.5 0 0 1-2.498-2.5A2.5 2.5 0 0 1 8 9.474a2.5 2.5 0 0 1 2.5 2.499A2.5 2.5 0 0 1 8 14.47"/><path d="M8 10.428c-.85 0-1.543.692-1.543 1.544 0 .85.693 1.543 1.544 1.543s1.544-.692 1.544-1.543c0-.852-.693-1.544-1.544-1.544"/></g><defs><clipPath id="a"><path fill="#fff" d="M0 .5h16v16H0z"/></clipPath></defs></svg>