<svg xmlns="http://www.w3.org/2000/svg" width="20" height="20" fill="none"><g fill="#7FB51F" clip-path="url(#a)"><path d="M15.205 13.23c-.653-.645-1.469-.645-2.118 0-.495.492-.99.983-1.478 1.482-.133.137-.245.167-.408.075-.32-.175-.661-.316-.97-.508-1.435-.903-2.638-2.064-3.703-3.37-.529-.65-1-1.345-1.328-2.128-.066-.158-.054-.262.075-.39.495-.48.978-.97 1.465-1.462.678-.682.678-1.481-.004-2.168-.387-.391-.774-.774-1.161-1.165-.4-.4-.795-.803-1.199-1.199-.653-.637-1.47-.637-2.118.004-.5.491-.978.995-1.486 1.478-.47.445-.708.99-.758 1.627C-.065 6.542.19 7.52.547 8.473c.733 1.973 1.848 3.725 3.2 5.332a19.8 19.8 0 0 0 6.56 5.131c1.148.558 2.339.987 3.633 1.057.89.05 1.665-.174 2.285-.87.424-.474.903-.907 1.352-1.36.666-.675.67-1.49.009-2.156q-1.188-1.192-2.38-2.377m-.796-3.317 1.535-.262a6.86 6.86 0 0 0-1.918-3.704 6.83 6.83 0 0 0-3.912-1.952L9.898 5.54a5.3 5.3 0 0 1 3.03 1.511 5.3 5.3 0 0 1 1.482 2.863m2.402-6.676A11.32 11.32 0 0 0 10.32 0l-.216 1.544a9.82 9.82 0 0 1 5.61 2.797 9.8 9.8 0 0 1 2.75 5.306L20 9.385a11.4 11.4 0 0 0-3.188-6.147"/></g><defs><clipPath id="a"><path fill="#fff" d="M0 0h20v20H0z"/></clipPath></defs></svg>