<svg xmlns="http://www.w3.org/2000/svg" width="16" height="17" fill="none"><g clip-path="url(#a)"><path fill="#4CAF50" d="M8.002.5h-.004C3.587.5 0 4.088 0 8.5a7.94 7.94 0 0 0 1.523 4.689l-.997 2.972 3.075-.983A7.93 7.93 0 0 0 8.002 16.5c4.411 0 7.998-3.589 7.998-8s-3.587-8-7.998-8"/><path fill="#FAFAFA" d="M12.657 11.797c-.193.545-.96.997-1.57 1.129-.418.089-.964.16-2.802-.602C5.934 11.35 4.42 8.96 4.302 8.806c-.113-.155-.95-1.265-.95-2.413s.583-1.707.818-1.947c.193-.197.512-.287.818-.287q.148.001.268.009c.235.01.353.024.508.395.193.465.663 1.613.719 1.73.057.119.114.279.034.434-.075.16-.141.23-.26.367-.117.136-.23.24-.347.386-.108.127-.23.263-.094.498.136.23.606.997 1.298 1.613.893.795 1.617 1.049 1.876 1.157.193.08.423.06.564-.09.179-.192.4-.512.625-.827.16-.226.362-.254.574-.174.216.075 1.359.64 1.594.757.235.118.39.174.447.273s.056.564-.137 1.11"/></g><defs><clipPath id="a"><path fill="#fff" d="M0 .5h16v16H0z"/></clipPath></defs></svg>