<svg xmlns="http://www.w3.org/2000/svg" width="33" height="32" fill="none"><g clip-path="url(#a)"><path fill="#fff" d="M.723 23.162c-.282-2.41-.321-4.775.025-6.914.426-2.63 1.537-5.557 2.75-8.174C5.873 2.958 10.12 1.169 15.292.362c7.21-1.125 17.146 0 17.209 8.725-.362 3.12-2.748 11.795-10.805 12.456-2.664.22-3.66 2.895-4.834 5.958-3.088 8.06-15.105 4.482-16.138-4.34" opacity=".1"/><path fill="#7FB51F" d="m24.076 20.791-2.681-1.873a2.066 2.066 0 0 0-2.883.512l-.622.892c-1.044-.7-2.209-1.676-3.318-2.786-1.11-1.11-2.087-2.274-2.786-3.317l.891-.622c.455-.317.758-.791.855-1.336a2.06 2.06 0 0 0-.342-1.548l-1.873-2.682c-.528-.754-1.526-1.085-2.366-.774-.245.09-.473.202-.697.342l-.37.261q-.139.108-.261.233c-.452.452-.773 1.024-.953 1.7-.773 2.894 1.14 7.269 4.758 10.887 3.039 3.038 6.689 4.926 9.527 4.926.485 0 .944-.056 1.361-.168.675-.18 1.247-.5 1.699-.953a3 3 0 0 0 .245-.277l.261-.372q.194-.31.33-.68c.316-.852-.002-1.825-.775-2.365"/><path fill="#7FB51F" d="M26.086 6.393H16.15a.414.414 0 0 0-.414.414v5.796c0 .228.185.414.414.414h1.47l.987 2.103a.414.414 0 0 0 .75 0l.987-2.103h5.74a.414.414 0 0 0 .415-.414V6.807a.414.414 0 0 0-.414-.414m-2.096 4.554h-5.744a.414.414 0 1 1 0-.828h5.744a.414.414 0 1 1 0 .828m0-1.656h-5.744a.414.414 0 1 1 0-.828h5.744a.414.414 0 1 1 0 .828"/></g><defs><clipPath id="a"><path fill="#fff" d="M.5 0h32v32H.5z"/></clipPath></defs></svg>