<svg xmlns="http://www.w3.org/2000/svg" width="40" height="40" fill="none"><g fill="#7FB51F" clip-path="url(#a)"><path d="M.279 28.952c-.353-3.012-.402-5.968.031-8.642.532-3.288 1.921-6.946 3.439-10.218 2.966-6.394 8.275-8.63 14.74-9.64C27.501-.952 39.922.453 40 11.36c-.452 3.9-3.435 14.743-13.506 15.57-3.33.274-4.575 3.618-6.042 7.447C16.592 44.45 1.57 39.979.279 28.952" opacity=".1"/><path d="M28.758 18.52c.03-3.476-2.93-6.661-6.598-7.102a5 5 0 0 1-.236-.035 3.4 3.4 0 0 0-.559-.061c-.752 0-.952.528-1.005.842q-.078.462.145.765c.25.338.687.399 1.039.447.103.014.2.027.282.045 3.295.737 4.404 1.894 4.947 5.161.013.08.019.178.025.283.024.39.073 1.203.947 1.203q.108 0 .232-.019c.813-.123.788-.866.776-1.223a2 2 0 0 1 .005-.307"/><path d="M21.152 10.143c.098.007.19.013.267.025 5.41.832 7.899 3.396 8.589 8.85.011.092.013.205.015.325.007.426.021 1.312.973 1.33h.03q.448 0 .705-.267c.297-.31.276-.77.26-1.14q-.009-.138-.008-.252c.07-5.577-4.759-10.634-10.33-10.822q-.036 0-.068.003l-.066.004q-.086-.001-.196-.01a4 4 0 0 0-.288-.012c-.887 0-1.056.63-1.078 1.006-.05.87.791.93 1.195.96m8.595 15.922a17 17 0 0 1-.345-.269c-.591-.475-1.22-.913-1.827-1.337l-.378-.264c-.779-.547-1.479-.813-2.14-.813-.891 0-1.668.492-2.309 1.463-.284.43-.628.64-1.053.64-.25 0-.536-.072-.847-.214-2.514-1.14-4.308-2.887-5.334-5.193-.496-1.115-.336-1.844.538-2.437.495-.336 1.418-.963 1.353-2.162-.074-1.362-3.08-5.461-4.347-5.927-.536-.197-1.099-.199-1.677-.004-1.456.49-2.5 1.349-3.021 2.485-.504 1.098-.481 2.388.065 3.729 1.58 3.878 3.801 7.26 6.602 10.05 2.741 2.73 6.11 4.968 10.015 6.65.351.15.72.233.99.293q.14.031.229.055a.4.4 0 0 0 .097.013h.031c1.837 0 4.041-1.678 4.718-3.59.593-1.675-.49-2.503-1.36-3.168m-7.782-11.492c-.314.008-.968.024-1.198.69q-.16.47.038.804c.195.325.569.425.908.48 1.232.197 1.865.878 1.991 2.143.059.59.456 1.001.966 1.001a1 1 0 0 0 .114-.007c.613-.073.91-.523.884-1.338.01-.851-.436-1.817-1.193-2.587-.76-.772-1.676-1.206-2.51-1.186"/></g><defs><clipPath id="a"><path fill="#fff" d="M0 0h40v40H0z"/></clipPath></defs></svg>