<svg xmlns="http://www.w3.org/2000/svg" width="48" height="48" fill="none"><path fill="#7FB51F" d="M31.324 24h7.324v5.86a5.865 5.865 0 0 1-5.859 5.859h-.732c-1.218 0-2.198.98-2.198 2.197v4.395c0 1.217.98 2.197 2.198 2.197h.732c8.093 0 14.648-6.555 14.648-14.649V7.887a4.396 4.396 0 0 0-4.394-4.395H31.324a4.396 4.396 0 0 0-4.394 4.395v11.718A4.396 4.396 0 0 0 31.324 24M4.957 24h7.324v5.86a5.865 5.865 0 0 1-5.86 5.859H5.69c-1.217 0-2.197.98-2.197 2.197v4.395c0 1.217.98 2.197 2.198 2.197h.732c8.093 0 14.648-6.555 14.648-14.649V7.887a4.396 4.396 0 0 0-4.394-4.395H4.957A4.396 4.396 0 0 0 .563 7.887v11.718A4.396 4.396 0 0 0 4.957 24" opacity=".1"/></svg>