<svg xmlns="http://www.w3.org/2000/svg" width="32" height="32" fill="none"><path fill="#7FB51F" d="M.223 23.162c-.282-2.41-.321-4.775.025-6.914.426-2.63 1.537-5.557 2.75-8.174C5.373 2.958 9.62 1.169 14.792.362 22.001-.763 31.937.362 32 9.087c-.362 3.12-2.748 11.795-10.805 12.456-2.664.22-3.66 2.895-4.834 5.958-3.088 8.06-15.105 4.482-16.138-4.34" opacity=".1"/><g clip-path="url(#a)"><path fill="#7FB51F" d="M26.493 19.332h-.805a.8.8 0 0 1-.65-.331l-4.508-6.197a1.9 1.9 0 0 0-1.513-.748h-.991a.39.39 0 0 1-.388-.388v-.918c0-.181.092-.35.244-.449a3.42 3.42 0 0 0 1.547-2.906 3.44 3.44 0 0 0-3.441-3.385 3.426 3.426 0 0 0-1.864 6.29.54.54 0 0 1 .246.45v.918a.39.39 0 0 1-.388.388h-1.254c-.594 0-1.153.277-1.513.748L6.713 19.05a.8.8 0 0 1-.652.334h-.554a1.507 1.507 0 1 0 0 3.014h1.48a2.983 2.983 0 0 0 1.454 5.592h12.644l-9.933-5.504a6.9 6.9 0 0 0-2.482-.465h-.059q.177-.14.313-.325l2.862-4.261v3.756l.042.02 4.206 2.331 3.924-2.354v-3.753l2.87 4.209q.142.192.328.337a6.94 6.94 0 0 0-3.198.851v-.005l-2.504 1.503 6.427 3.562a2.985 2.985 0 0 0 2.407-2.929v-.014a2.96 2.96 0 0 0-1.544-2.603h1.749a1.507 1.507 0 1 0 0-3.015"/></g><defs><clipPath id="a"><path fill="#fff" d="M4 4h24v24H4z"/></clipPath></defs></svg>