<svg xmlns="http://www.w3.org/2000/svg" width="24" height="24" fill="none"><g fill="#7FB51F" clip-path="url(#a)"><path d="M.167 17.371c-.211-1.807-.24-3.58.019-5.185.32-1.973 1.153-4.168 2.063-6.13C4.03 2.218 7.214.875 11.093.271 16.5-.572 23.953.272 24 6.815c-.271 2.34-2.061 8.846-8.104 9.343-1.998.164-2.745 2.17-3.625 4.467C9.955 26.67.94 23.989.167 17.371" opacity=".1"/><g clip-path="url(#b)"><path d="m14.078 6.264 1.174-1.144a.625.625 0 0 0-.347-1.066l-1.622-.236-.725-1.47a.652.652 0 0 0-1.121 0l-.725 1.47-1.622.236a.625.625 0 0 0-.346 1.066l1.173 1.144-.277 1.615a.625.625 0 0 0 .907.66l1.45-.764 1.451.763a.625.625 0 0 0 .907-.658zm7.894.063a.63.63 0 0 0-.504-.426l-1.622-.235-.726-1.47a.65.65 0 0 0-1.12 0l-.726 1.47-1.622.235a.625.625 0 0 0-.346 1.066l1.174 1.144-.278 1.616a.625.625 0 0 0 .907.659l1.45-.762 1.451.762a.624.624 0 0 0 .907-.659l-.277-1.615 1.174-1.144a.63.63 0 0 0 .158-.641M8.35 5.901l-1.62-.235-.725-1.47a.625.625 0 0 0-1.121 0l-.726 1.47-1.622.235a.625.625 0 0 0-.346 1.067L3.363 8.11l-.278 1.616a.625.625 0 0 0 .907.659l1.451-.763 1.45.763a.624.624 0 0 0 .908-.659L7.524 8.11l1.173-1.143A.625.625 0 0 0 8.35 5.9m9.9 5.475H5.75a1.877 1.877 0 0 0-1.875 1.875v5a1.877 1.877 0 0 0 1.875 1.875h4.116l1.692 1.692a.625.625 0 0 0 .884 0l1.692-1.692h4.116a1.877 1.877 0 0 0 1.875-1.875v-5a1.877 1.877 0 0 0-1.875-1.875M17 17.625H7a.625.625 0 1 1 0-1.25h10a.624.624 0 1 1 0 1.25m0-2.5H7a.625.625 0 1 1 0-1.25h10a.624.624 0 1 1 0 1.25"/></g></g><defs><clipPath id="a"><path fill="#fff" d="M0 0h24v24H0z"/></clipPath><clipPath id="b"><path fill="#fff" d="M2 2h20v20H2z"/></clipPath></defs></svg>