<svg xmlns="http://www.w3.org/2000/svg" width="40" height="40" fill="none"><g fill="#7FB51F" clip-path="url(#a)"><path d="M.279 28.952c-.353-3.012-.402-5.968.031-8.642.532-3.288 1.921-6.946 3.439-10.218 2.966-6.394 8.275-8.63 14.74-9.64C27.501-.952 39.922.453 40 11.36c-.452 3.9-3.435 14.743-13.506 15.57-3.33.274-4.575 3.618-6.042 7.447C16.592 44.45 1.57 39.979.279 28.952" opacity=".1"/><g clip-path="url(#b)"><path d="m22.913 11.97 1.642-1.602a.874.874 0 0 0-.484-1.493l-2.271-.33-1.015-2.057a.912.912 0 0 0-1.57 0L18.2 8.546l-2.27.33a.875.875 0 0 0-.486 1.492l1.643 1.601-.388 2.262a.876.876 0 0 0 1.27.923l2.03-1.068 2.032 1.068a.876.876 0 0 0 1.27-.923zm11.046.088a.88.88 0 0 0-.707-.596l-2.27-.33-1.017-2.057a.91.91 0 0 0-1.569 0l-1.015 2.057-2.27.33a.876.876 0 0 0-.486 1.492l1.644 1.602-.388 2.262a.876.876 0 0 0 1.269.922l2.03-1.067 2.032 1.067a.875.875 0 0 0 1.27-.922l-.388-2.262 1.643-1.601a.88.88 0 0 0 .221-.897m-19.068-.596-2.27-.33-1.015-2.058a.874.874 0 0 0-1.57 0L9.02 11.132l-2.27.33a.874.874 0 0 0-.486 1.493l1.644 1.601-.388 2.262a.875.875 0 0 0 1.27.922l2.03-1.067 2.031 1.067a.875.875 0 0 0 1.27-.922l-.388-2.262 1.643-1.601a.875.875 0 0 0-.485-1.493m13.859 7.663h-17.5a2.63 2.63 0 0 0-2.625 2.625v7a2.63 2.63 0 0 0 2.625 2.625h5.763l2.368 2.369a.874.874 0 0 0 1.238 0l2.368-2.369h5.763a2.63 2.63 0 0 0 2.625-2.625v-7a2.63 2.63 0 0 0-2.625-2.625M27 27.875H13a.875.875 0 1 1 0-1.75h14a.875.875 0 1 1 0 1.75m0-3.5H13a.875.875 0 1 1 0-1.75h14a.875.875 0 1 1 0 1.75"/></g></g><defs><clipPath id="a"><path fill="#fff" d="M0 0h40v40H0z"/></clipPath><clipPath id="b"><path fill="#fff" d="M6 6h28v28H6z"/></clipPath></defs></svg>