<svg xmlns="http://www.w3.org/2000/svg" width="166" height="84" fill="none"><path fill="#F9F9F9" d="M.5 8A7.5 7.5 0 0 1 8 .5h150a7.5 7.5 0 0 1 7.5 7.5v68a7.5 7.5 0 0 1-7.5 7.5H8A7.5 7.5 0 0 1 .5 76z"/><path stroke="#E5E5E5" d="M.5 8A7.5 7.5 0 0 1 8 .5h150a7.5 7.5 0 0 1 7.5 7.5v68a7.5 7.5 0 0 1-7.5 7.5H8A7.5 7.5 0 0 1 .5 76z"/><path fill="#7FB51F" d="M16.223 35.162c-.282-2.41-.321-4.775.025-6.914.426-2.63 1.537-5.557 2.75-8.174 2.374-5.116 6.621-6.905 11.793-7.712 7.21-1.124 17.146 0 17.209 8.725-.362 3.12-2.748 11.795-10.805 12.456-2.664.22-3.66 2.895-4.834 5.958-3.088 8.06-15.105 4.483-16.138-4.34" opacity=".1"/><g fill="#7FB51F" clip-path="url(#a)"><path d="M23.563 25.89h-2.86a.703.703 0 1 0 0 1.407h2.86a.703.703 0 1 0 0-1.406m18.281-.001H39.03a.703.703 0 1 0 0 1.407h2.813a.703.703 0 1 0 0-1.406m-2.592-7.251a.703.703 0 0 0-.994 0l-1.988 1.988a.703.703 0 1 0 .994.994l1.988-1.989a.703.703 0 0 0 0-.994m-12.925 1.989-1.989-1.989a.703.703 0 1 0-.994.994l1.988 1.989a.703.703 0 1 0 .995-.994M31.297 16a.703.703 0 0 0-.703.703v2.86a.703.703 0 1 0 1.406 0v-2.86a.703.703 0 0 0-.703-.703m-.116 14.416.002.003zm-.001 0a.723.723 0 0 0-1.179.003l-3.08 4.64-1.392-1.856a.698.698 0 0 0-1.125 0l-4.265 5.672a.72.72 0 0 0-.07.731.72.72 0 0 0 .632.394h16.824c-.089-.133-5.987-9.041-6.345-9.584"/><path d="M31.297 21.672a5.63 5.63 0 0 0-5.625 5.625 5.6 5.6 0 0 0 1.918 4.215l1.242-1.87a2.13 2.13 0 0 1 1.762-.936c.144 0 .284.024.423.052l2.034-3.056a2.12 2.12 0 0 1 1.761-.922c.711 0 1.367.34 1.754.912l.177.264c-.606-2.453-2.809-4.284-5.446-4.284"/><path d="m43.873 38.903-8.47-12.422c-.267-.393-.914-.393-1.181 0l-2 3.004c.291.351 2.034 3.083 6.993 10.515h4.08c.254 0 .493-.14.62-.366a.69.69 0 0 0-.042-.73"/></g><path fill="#1E201F" d="M19.276 67v-8.442h-2.884V57.2h7.434v1.358h-2.884V67zm7.876.168a3.6 3.6 0 0 1-1.82-.462 3.45 3.45 0 0 1-1.26-1.302q-.448-.84-.448-1.918 0-1.105.462-1.932.462-.84 1.26-1.302a3.53 3.53 0 0 1 1.82-.476q1.008 0 1.806.476.812.462 1.26 1.288.462.826.462 1.932t-.462 1.932-1.274 1.302q-.798.462-1.806.462m0-1.442q.505 0 .91-.252.42-.252.672-.756t.252-1.246-.252-1.232a1.7 1.7 0 0 0-1.568-1.008q-.49 0-.91.252a1.8 1.8 0 0 0-.672.756q-.252.49-.252 1.232t.252 1.246.658.756q.42.252.91.252m7.77 1.442q-.855 0-1.47-.336a2.3 2.3 0 0 1-.924-1.036q-.322-.7-.322-1.722v-4.13h1.68v3.962q0 .91.377 1.386.393.462 1.177.462.504 0 .896-.238.405-.238.63-.686.237-.462.237-1.12v-3.766h1.68V67H37.4l-.127-1.176q-.322.615-.937.98-.603.364-1.414.364M40.718 67v-7.056h1.498l.154 1.316q.252-.462.63-.784.378-.336.882-.518a3.4 3.4 0 0 1 1.134-.182v1.778h-.588q-.42 0-.798.112a1.6 1.6 0 0 0-.658.336q-.267.225-.42.63-.154.392-.154.994V67zm8.343.168q-.937 0-1.638-.294a2.8 2.8 0 0 1-1.092-.84 2.53 2.53 0 0 1-.462-1.246h1.68q.07.294.252.546.183.239.49.378.323.14.756.14.42 0 .686-.112a.9.9 0 0 0 .392-.322.76.76 0 0 0 .126-.42q0-.336-.182-.518-.181-.182-.532-.28a7 7 0 0 0-.812-.21 11 11 0 0 1-.98-.238 4.3 4.3 0 0 1-.84-.378 1.8 1.8 0 0 1-.588-.574q-.21-.35-.21-.854 0-.616.322-1.106.336-.49.952-.77.63-.294 1.498-.294 1.233 0 1.96.574.742.56.868 1.582h-1.596a.87.87 0 0 0-.392-.602q-.322-.224-.854-.224-.546 0-.84.21a.62.62 0 0 0-.28.532q0 .21.168.392.182.168.518.294.337.113.826.224.784.154 1.386.364.603.21.952.616.35.405.35 1.148.015.672-.35 1.19-.35.518-.994.812-.644.28-1.54.28m10.676 0q-.938 0-1.638-.294a2.8 2.8 0 0 1-1.092-.84 2.53 2.53 0 0 1-.462-1.246h1.68q.07.294.252.546.183.239.49.378.323.14.756.14.42 0 .686-.112a.9.9 0 0 0 .392-.322.76.76 0 0 0 .126-.42q0-.336-.182-.518-.181-.182-.532-.28a7 7 0 0 0-.812-.21 11 11 0 0 1-.98-.238 4.3 4.3 0 0 1-.84-.378 1.8 1.8 0 0 1-.588-.574q-.21-.35-.21-.854 0-.616.322-1.106.337-.49.952-.77.63-.294 1.498-.294 1.233 0 1.96.574.742.56.868 1.582h-1.596a.87.87 0 0 0-.392-.602q-.321-.224-.854-.224-.546 0-.84.21a.62.62 0 0 0-.28.532q0 .21.168.392.182.168.518.294.336.113.826.224.785.154 1.386.364.603.21.952.616.35.405.35 1.148.015.672-.35 1.19-.35.518-.994.812-.643.28-1.54.28m4.55-.168v-7.056h1.68V67zm.84-8.176q-.463 0-.77-.28a.97.97 0 0 1-.295-.714q0-.435.294-.7.309-.28.77-.28.462 0 .756.28a.88.88 0 0 1 .308.7.95.95 0 0 1-.308.714q-.294.28-.756.28m5.714 11.424q-.994 0-1.75-.252-.742-.238-1.162-.742-.405-.49-.406-1.232 0-.434.21-.854.224-.406.658-.756a4.2 4.2 0 0 1 1.134-.63l.742.812q-.671.238-.938.574t-.266.686q0 .364.224.602.237.252.63.378.405.126.91.126.49 0 .854-.14a1.2 1.2 0 0 0 .56-.364q.21-.238.21-.574a.88.88 0 0 0-.294-.686q-.294-.251-1.162-.308a14 14 0 0 1-1.302-.154 8 8 0 0 1-.966-.252 4 4 0 0 1-.672-.308 3 3 0 0 1-.462-.364v-.322l1.47-1.54 1.246.406-1.652 1.61.434-.812q.14.098.28.182.154.084.378.154.238.056.616.112t.98.112q.938.07 1.526.336t.868.714.28 1.078q0 .615-.35 1.162-.337.546-1.036.896t-1.792.35m0-5.362q-.882 0-1.526-.336a2.5 2.5 0 0 1-.966-.924 2.55 2.55 0 0 1-.336-1.288q0-.714.336-1.288t.966-.924q.645-.35 1.526-.35.882 0 1.512.35t.966.924.336 1.288q0 .7-.336 1.288-.336.574-.966.924-.63.336-1.512.336m0-1.302q.601 0 .966-.322.364-.323.364-.924 0-.602-.364-.91-.365-.322-.966-.322-.602 0-.98.322-.378.308-.378.91t.378.924q.377.322.98.322m1.162-2.408-.322-1.232h2.898v1.05zM76.027 67V56.92h1.68v4.116q.35-.574.952-.91.602-.35 1.358-.35.869 0 1.47.364.603.35.91 1.05.322.685.322 1.722V67h-1.666v-3.934q0-.91-.392-1.386-.378-.476-1.162-.476-.504 0-.91.252-.405.238-.644.7-.238.448-.238 1.106V67zm11.508 0q-.714 0-1.246-.224a1.7 1.7 0 0 1-.812-.742q-.294-.518-.294-1.4v-3.276h-1.204v-1.414h1.204l.196-1.862h1.484v1.862h1.918v1.414h-1.918v3.276q0 .532.224.742.238.195.784.196h.868V67zm5.605.168q-.937 0-1.638-.294a2.8 2.8 0 0 1-1.092-.84 2.53 2.53 0 0 1-.462-1.246h1.68q.07.294.252.546.183.239.49.378.323.14.756.14.421 0 .686-.112a.9.9 0 0 0 .392-.322.76.76 0 0 0 .126-.42q0-.336-.182-.518-.18-.182-.532-.28a7 7 0 0 0-.812-.21 11 11 0 0 1-.98-.238 4.3 4.3 0 0 1-.84-.378 1.8 1.8 0 0 1-.588-.574q-.21-.35-.21-.854 0-.616.322-1.106.337-.49.952-.77.63-.294 1.498-.294 1.233 0 1.96.574.742.56.868 1.582H94.19a.87.87 0 0 0-.392-.602q-.321-.224-.854-.224-.546 0-.84.21a.62.62 0 0 0-.28.532q0 .21.168.392.183.168.518.294.337.113.826.224.785.154 1.386.364.603.21.952.616.35.405.35 1.148.015.672-.35 1.19-.35.518-.994.812-.643.28-1.54.28m7.784 0q-1.05 0-1.848-.448a3.24 3.24 0 0 1-1.246-1.288q-.449-.825-.448-1.904 0-1.12.434-1.96.447-.84 1.246-1.316.81-.476 1.876-.476 1.035 0 1.806.462.77.462 1.19 1.246.42.77.42 1.736v.308q0 .168-.028.35h-5.74V62.8h4.074q-.029-.77-.518-1.204-.49-.448-1.218-.448-.519 0-.952.238-.435.238-.686.714-.252.462-.252 1.176v.406q0 .658.238 1.134.252.476.672.728.434.238.966.238.588 0 .966-.252.391-.252.574-.672h1.708a3.3 3.3 0 0 1-.644 1.19q-.449.517-1.106.826a3.6 3.6 0 0 1-1.484.294m8.25 0q-1.05 0-1.848-.448a3.24 3.24 0 0 1-1.246-1.288q-.448-.825-.448-1.904 0-1.12.434-1.96.447-.84 1.246-1.316.811-.476 1.876-.476 1.035 0 1.806.462.77.462 1.19 1.246.42.77.42 1.736v.308q0 .168-.028.35h-5.74V62.8h4.074q-.029-.77-.518-1.204-.49-.448-1.218-.448-.519 0-.952.238-.435.238-.686.714-.252.462-.252 1.176v.406q0 .658.238 1.134.252.476.672.728.433.238.966.238.588 0 .966-.252.391-.252.574-.672h1.708a3.3 3.3 0 0 1-.644 1.19q-.449.517-1.106.826a3.6 3.6 0 0 1-1.484.294M114.12 67v-7.056h1.484l.126 1.176a2.46 2.46 0 0 1 .924-.98q.601-.364 1.428-.364.854 0 1.456.364.602.35.924 1.036.336.686.336 1.708V67h-1.68v-3.962q0-.882-.392-1.358t-1.162-.476q-.504 0-.91.238a1.7 1.7 0 0 0-.63.7q-.224.448-.224 1.092V67z"/><defs><clipPath id="a"><path fill="#fff" d="M20 16h24v24H20z"/></clipPath></defs></svg>