<svg width="166" height="84" viewBox="0 0 166 84" fill="none" xmlns="http://www.w3.org/2000/svg">
<path d="M0.5 8C0.5 3.85786 3.85786 0.5 8 0.5H158C162.142 0.5 165.5 3.85786 165.5 8V76C165.5 80.1421 162.142 83.5 158 83.5H8C3.85787 83.5 0.5 80.1421 0.5 76V8Z" fill="#F9F9F9"/>
<path d="M0.5 8C0.5 3.85786 3.85786 0.5 8 0.5H158C162.142 0.5 165.5 3.85786 165.5 8V76C165.5 80.1421 162.142 83.5 158 83.5H8C3.85787 83.5 0.5 80.1421 0.5 76V8Z" stroke="#E5E5E5"/>
<path opacity="0.1" d="M16.2232 35.1618C15.9411 32.752 15.9019 30.3874 16.2481 28.248C16.6737 25.6174 17.7849 22.6909 18.9989 20.0736C21.3716 14.9584 25.6191 13.1689 30.7912 12.3621C38.0007 11.2375 47.9372 12.3621 48 21.0871C47.6383 24.2073 45.2517 32.8815 37.1951 33.5434C34.5313 33.7622 33.5348 36.4378 32.3612 39.5006C29.2729 47.5602 17.2558 43.9835 16.2232 35.1618Z" fill="#7FB51F"/>
<g clip-path="url(#clip0_242_6345)">
<path d="M23.5625 25.8906H20.7031C20.3145 25.8906 20 26.2051 20 26.5938C20 26.9824 20.3145 27.2969 20.7031 27.2969H23.5625C23.9511 27.2969 24.2656 26.9824 24.2656 26.5938C24.2656 26.2051 23.9511 25.8906 23.5625 25.8906Z" fill="#7FB51F"/>
<path d="M41.8438 25.8906H39.0312C38.6426 25.8906 38.3281 26.2051 38.3281 26.5938C38.3281 26.9824 38.6426 27.2969 39.0312 27.2969H41.8438C42.2324 27.2969 42.5469 26.9824 42.5469 26.5938C42.5469 26.2051 42.2324 25.8906 41.8438 25.8906Z" fill="#7FB51F"/>
<path d="M39.2513 18.6391C38.9766 18.3644 38.5317 18.3644 38.257 18.6391L36.2685 20.6276C35.9938 20.9023 35.9938 21.3472 36.2685 21.6219C36.5431 21.8965 36.9881 21.8965 37.2627 21.6219L39.2513 19.6334C39.5259 19.3587 39.5259 18.9137 39.2513 18.6391Z" fill="#7FB51F"/>
<path d="M26.3255 20.6276L24.337 18.6391C24.0623 18.3644 23.6173 18.3644 23.3427 18.6391C23.0681 18.9137 23.0681 19.3587 23.3427 19.6334L25.3312 21.6219C25.6059 21.8965 26.0509 21.8965 26.3255 21.6219C26.6001 21.3472 26.6001 20.9023 26.3255 20.6276Z" fill="#7FB51F"/>
<path d="M31.2969 16C30.9082 16 30.5938 16.3145 30.5938 16.7031V19.5625C30.5938 19.9511 30.9082 20.2656 31.2969 20.2656C31.6855 20.2656 32 19.9511 32 19.5625V16.7031C32 16.3145 31.6855 16 31.2969 16Z" fill="#7FB51F"/>
<path d="M31.1811 30.4162C31.1818 30.4171 31.1826 30.4179 31.1832 30.4188C31.1578 30.3806 31.1583 30.3814 31.1811 30.4162Z" fill="#7FB51F"/>
<path d="M31.1804 30.4161C30.8981 30.0112 30.2819 30.012 30.0013 30.4188L26.9216 35.0594L25.5294 33.2032C25.2482 32.8234 24.6856 32.8234 24.4044 33.2032L20.1387 38.8751C19.9841 39.0859 19.9559 39.3672 20.0684 39.6063C20.195 39.8454 20.4341 40.0001 20.7012 40.0001H37.5247C37.4364 39.8673 31.5381 30.9588 31.1804 30.4161Z" fill="#7FB51F"/>
<path d="M31.2969 21.6719C28.1953 21.6719 25.6719 24.1953 25.6719 27.2969C25.6719 28.9597 26.4014 30.4698 27.5897 31.5125L28.8318 29.6411C29.241 29.0478 29.8948 28.7065 30.5938 28.7065C30.738 28.7065 30.8784 28.7298 31.0169 28.758L33.0513 25.7018C33.4461 25.1202 34.1018 24.7796 34.8125 24.7796C35.5232 24.7796 36.1789 25.1202 36.5662 25.6915L36.7426 25.9563C36.1372 23.5031 33.9342 21.6719 31.2969 21.6719Z" fill="#7FB51F"/>
<path d="M43.8725 38.9031L35.4032 26.4813C35.136 26.0876 34.4892 26.0876 34.222 26.4813L32.2227 29.4853C32.513 29.8364 34.2556 32.5679 39.2147 40.0001H43.2959C43.549 40.0001 43.788 39.8594 43.9146 39.6344C44.0412 39.3954 44.0272 39.1282 43.8725 38.9031Z" fill="#7FB51F"/>
</g>
<path d="M19.276 67V58.558H16.392V57.2H23.826V58.558H20.942V67H19.276ZM27.152 67.168C26.48 67.168 25.8733 67.014 25.332 66.706C24.8 66.3887 24.38 65.9547 24.072 65.404C23.7733 64.844 23.624 64.2047 23.624 63.486C23.624 62.7487 23.778 62.1047 24.086 61.554C24.394 60.994 24.814 60.56 25.346 60.252C25.8873 59.9347 26.494 59.776 27.166 59.776C27.838 59.776 28.44 59.9347 28.972 60.252C29.5133 60.56 29.9333 60.9893 30.232 61.54C30.54 62.0907 30.694 62.7347 30.694 63.472C30.694 64.2093 30.54 64.8533 30.232 65.404C29.924 65.9547 29.4993 66.3887 28.958 66.706C28.426 67.014 27.824 67.168 27.152 67.168ZM27.152 65.726C27.488 65.726 27.7913 65.642 28.062 65.474C28.342 65.306 28.566 65.054 28.734 64.718C28.902 64.382 28.986 63.9667 28.986 63.472C28.986 62.9773 28.902 62.5667 28.734 62.24C28.5753 61.904 28.356 61.652 28.076 61.484C27.8053 61.316 27.502 61.232 27.166 61.232C26.8393 61.232 26.536 61.316 26.256 61.484C25.976 61.652 25.752 61.904 25.584 62.24C25.416 62.5667 25.332 62.9773 25.332 63.472C25.332 63.9667 25.416 64.382 25.584 64.718C25.752 65.054 25.9713 65.306 26.242 65.474C26.522 65.642 26.8253 65.726 27.152 65.726ZM34.9215 67.168C34.3522 67.168 33.8622 67.056 33.4515 66.832C33.0502 66.5987 32.7422 66.2533 32.5275 65.796C32.3129 65.3293 32.2055 64.7553 32.2055 64.074V59.944H33.8855V63.906C33.8855 64.5127 34.0115 64.9747 34.2635 65.292C34.5249 65.6 34.9169 65.754 35.4395 65.754C35.7755 65.754 36.0742 65.6747 36.3355 65.516C36.6062 65.3573 36.8162 65.1287 36.9655 64.83C37.1242 64.522 37.2035 64.1487 37.2035 63.71V59.944H38.8835V67H37.3995L37.2735 65.824C37.0589 66.2347 36.7462 66.5613 36.3355 66.804C35.9342 67.0467 35.4629 67.168 34.9215 67.168ZM40.7178 67V59.944H42.2158L42.3698 61.26C42.5378 60.952 42.7478 60.6907 42.9998 60.476C43.2518 60.252 43.5458 60.0793 43.8818 59.958C44.2271 59.8367 44.6051 59.776 45.0158 59.776V61.554H44.4278C44.1478 61.554 43.8818 61.5913 43.6298 61.666C43.3778 61.7313 43.1584 61.8433 42.9718 62.002C42.7944 62.1513 42.6544 62.3613 42.5518 62.632C42.4491 62.8933 42.3978 63.2247 42.3978 63.626V67H40.7178ZM49.0612 67.168C48.4359 67.168 47.8899 67.07 47.4232 66.874C46.9659 66.6687 46.6019 66.3887 46.3312 66.034C46.0699 65.67 45.9159 65.2547 45.8692 64.788H47.5492C47.5959 64.984 47.6799 65.166 47.8012 65.334C47.9226 65.4927 48.0859 65.6187 48.2912 65.712C48.5059 65.8053 48.7579 65.852 49.0472 65.852C49.3272 65.852 49.5559 65.8147 49.7332 65.74C49.9106 65.656 50.0412 65.5487 50.1252 65.418C50.2092 65.2873 50.2512 65.1473 50.2512 64.998C50.2512 64.774 50.1906 64.6013 50.0692 64.48C49.9479 64.3587 49.7706 64.2653 49.5372 64.2C49.3132 64.1253 49.0426 64.0553 48.7252 63.99C48.3892 63.9247 48.0626 63.8453 47.7452 63.752C47.4372 63.6493 47.1572 63.5233 46.9052 63.374C46.6626 63.2247 46.4666 63.0333 46.3172 62.8C46.1772 62.5667 46.1072 62.282 46.1072 61.946C46.1072 61.5353 46.2146 61.1667 46.4292 60.84C46.6532 60.5133 46.9706 60.2567 47.3812 60.07C47.8012 59.874 48.3006 59.776 48.8792 59.776C49.7006 59.776 50.3539 59.9673 50.8392 60.35C51.3339 60.7233 51.6232 61.2507 51.7072 61.932H50.1112C50.0646 61.6707 49.9339 61.47 49.7192 61.33C49.5046 61.1807 49.2199 61.106 48.8652 61.106C48.5012 61.106 48.2212 61.176 48.0252 61.316C47.8386 61.4467 47.7452 61.624 47.7452 61.848C47.7452 61.988 47.8012 62.1187 47.9132 62.24C48.0346 62.352 48.2072 62.45 48.4312 62.534C48.6552 62.6087 48.9306 62.6833 49.2572 62.758C49.7799 62.8607 50.2419 62.982 50.6432 63.122C51.0446 63.262 51.3619 63.4673 51.5952 63.738C51.8286 64.0087 51.9452 64.3913 51.9452 64.886C51.9546 65.334 51.8379 65.7307 51.5952 66.076C51.3619 66.4213 51.0306 66.692 50.6012 66.888C50.1719 67.0747 49.6586 67.168 49.0612 67.168ZM59.7373 67.168C59.112 67.168 58.566 67.07 58.0993 66.874C57.642 66.6687 57.278 66.3887 57.0073 66.034C56.746 65.67 56.592 65.2547 56.5453 64.788H58.2253C58.272 64.984 58.356 65.166 58.4773 65.334C58.5986 65.4927 58.762 65.6187 58.9673 65.712C59.182 65.8053 59.434 65.852 59.7233 65.852C60.0033 65.852 60.232 65.8147 60.4093 65.74C60.5866 65.656 60.7173 65.5487 60.8013 65.418C60.8853 65.2873 60.9273 65.1473 60.9273 64.998C60.9273 64.774 60.8666 64.6013 60.7453 64.48C60.624 64.3587 60.4466 64.2653 60.2133 64.2C59.9893 64.1253 59.7186 64.0553 59.4013 63.99C59.0653 63.9247 58.7386 63.8453 58.4213 63.752C58.1133 63.6493 57.8333 63.5233 57.5813 63.374C57.3386 63.2247 57.1426 63.0333 56.9933 62.8C56.8533 62.5667 56.7833 62.282 56.7833 61.946C56.7833 61.5353 56.8906 61.1667 57.1053 60.84C57.3293 60.5133 57.6466 60.2567 58.0573 60.07C58.4773 59.874 58.9766 59.776 59.5553 59.776C60.3766 59.776 61.03 59.9673 61.5153 60.35C62.01 60.7233 62.2993 61.2507 62.3833 61.932H60.7873C60.7406 61.6707 60.61 61.47 60.3953 61.33C60.1806 61.1807 59.896 61.106 59.5413 61.106C59.1773 61.106 58.8973 61.176 58.7013 61.316C58.5146 61.4467 58.4213 61.624 58.4213 61.848C58.4213 61.988 58.4773 62.1187 58.5893 62.24C58.7106 62.352 58.8833 62.45 59.1073 62.534C59.3313 62.6087 59.6066 62.6833 59.9333 62.758C60.456 62.8607 60.918 62.982 61.3193 63.122C61.7206 63.262 62.038 63.4673 62.2713 63.738C62.5046 64.0087 62.6213 64.3913 62.6213 64.886C62.6306 65.334 62.514 65.7307 62.2713 66.076C62.038 66.4213 61.7066 66.692 61.2773 66.888C60.848 67.0747 60.3346 67.168 59.7373 67.168ZM64.2864 67V59.944H65.9664V67H64.2864ZM65.1264 58.824C64.8184 58.824 64.5618 58.7307 64.3564 58.544C64.1604 58.348 64.0624 58.11 64.0624 57.83C64.0624 57.5407 64.1604 57.3073 64.3564 57.13C64.5618 56.9433 64.8184 56.85 65.1264 56.85C65.4344 56.85 65.6864 56.9433 65.8824 57.13C66.0878 57.3073 66.1904 57.5407 66.1904 57.83C66.1904 58.11 66.0878 58.348 65.8824 58.544C65.6864 58.7307 65.4344 58.824 65.1264 58.824ZM70.8408 70.248C70.1782 70.248 69.5948 70.164 69.0908 69.996C68.5962 69.8373 68.2088 69.59 67.9288 69.254C67.6582 68.9273 67.5228 68.5167 67.5228 68.022C67.5228 67.7327 67.5928 67.448 67.7328 67.168C67.8822 66.8973 68.1015 66.6453 68.3908 66.412C68.6895 66.1693 69.0675 65.9593 69.5248 65.782L70.2668 66.594C69.8188 66.7527 69.5062 66.944 69.3288 67.168C69.1515 67.392 69.0628 67.6207 69.0628 67.854C69.0628 68.0967 69.1375 68.2973 69.2868 68.456C69.4455 68.624 69.6555 68.75 69.9168 68.834C70.1875 68.918 70.4908 68.96 70.8268 68.96C71.1535 68.96 71.4382 68.9133 71.6808 68.82C71.9235 68.736 72.1102 68.6147 72.2408 68.456C72.3808 68.2973 72.4508 68.106 72.4508 67.882C72.4508 67.602 72.3528 67.3733 72.1568 67.196C71.9608 67.028 71.5735 66.9253 70.9948 66.888C70.5002 66.8507 70.0662 66.7993 69.6928 66.734C69.3195 66.6593 68.9975 66.5753 68.7268 66.482C68.4655 66.3887 68.2415 66.286 68.0548 66.174C67.8682 66.0527 67.7142 65.9313 67.5928 65.81V65.488L69.0628 63.948L70.3088 64.354L68.6568 65.964L69.0908 65.152C69.1842 65.2173 69.2775 65.278 69.3708 65.334C69.4735 65.39 69.5995 65.4413 69.7488 65.488C69.9075 65.5253 70.1128 65.5627 70.3648 65.6C70.6168 65.6373 70.9435 65.6747 71.3448 65.712C71.9702 65.7587 72.4788 65.8707 72.8708 66.048C73.2628 66.2253 73.5522 66.4633 73.7388 66.762C73.9255 67.0607 74.0188 67.42 74.0188 67.84C74.0188 68.2507 73.9022 68.638 73.6688 69.002C73.4448 69.366 73.0995 69.6647 72.6328 69.898C72.1662 70.1313 71.5688 70.248 70.8408 70.248ZM70.8408 64.886C70.2528 64.886 69.7442 64.774 69.3148 64.55C68.8948 64.3167 68.5728 64.0087 68.3488 63.626C68.1248 63.234 68.0128 62.8047 68.0128 62.338C68.0128 61.862 68.1248 61.4327 68.3488 61.05C68.5728 60.6673 68.8948 60.3593 69.3148 60.126C69.7442 59.8927 70.2528 59.776 70.8408 59.776C71.4288 59.776 71.9328 59.8927 72.3528 60.126C72.7728 60.3593 73.0948 60.6673 73.3188 61.05C73.5428 61.4327 73.6548 61.862 73.6548 62.338C73.6548 62.8047 73.5428 63.234 73.3188 63.626C73.0948 64.0087 72.7728 64.3167 72.3528 64.55C71.9328 64.774 71.4288 64.886 70.8408 64.886ZM70.8408 63.584C71.2422 63.584 71.5642 63.4767 71.8068 63.262C72.0495 63.0473 72.1708 62.7393 72.1708 62.338C72.1708 61.9367 72.0495 61.6333 71.8068 61.428C71.5642 61.2133 71.2422 61.106 70.8408 61.106C70.4395 61.106 70.1128 61.2133 69.8608 61.428C69.6088 61.6333 69.4828 61.9367 69.4828 62.338C69.4828 62.7393 69.6088 63.0473 69.8608 63.262C70.1128 63.4767 70.4395 63.584 70.8408 63.584ZM72.0028 61.176L71.6808 59.944H74.5788V60.994L72.0028 61.176ZM76.0273 67V56.92H77.7073V61.036C77.9406 60.6533 78.258 60.35 78.6593 60.126C79.0606 59.8927 79.5133 59.776 80.0173 59.776C80.596 59.776 81.086 59.8973 81.4873 60.14C81.8886 60.3733 82.192 60.7233 82.3973 61.19C82.612 61.6473 82.7193 62.2213 82.7193 62.912V67H81.0533V63.066C81.0533 62.4593 80.9226 61.9973 80.6613 61.68C80.4093 61.3627 80.022 61.204 79.4993 61.204C79.1633 61.204 78.86 61.288 78.5893 61.456C78.3186 61.6147 78.104 61.848 77.9453 62.156C77.7866 62.4547 77.7073 62.8233 77.7073 63.262V67H76.0273ZM87.5349 67C87.0589 67 86.6435 66.9253 86.2889 66.776C85.9435 66.6267 85.6729 66.3793 85.4769 66.034C85.2809 65.6887 85.1829 65.222 85.1829 64.634V61.358H83.9789V59.944H85.1829L85.3789 58.082H86.8629V59.944H88.7809V61.358H86.8629V64.634C86.8629 64.9887 86.9375 65.236 87.0869 65.376C87.2455 65.5067 87.5069 65.572 87.8709 65.572H88.7389V67H87.5349ZM93.1404 67.168C92.5151 67.168 91.9691 67.07 91.5024 66.874C91.0451 66.6687 90.6811 66.3887 90.4104 66.034C90.1491 65.67 89.9951 65.2547 89.9484 64.788H91.6284C91.6751 64.984 91.7591 65.166 91.8804 65.334C92.0018 65.4927 92.1651 65.6187 92.3704 65.712C92.5851 65.8053 92.8371 65.852 93.1264 65.852C93.4064 65.852 93.6351 65.8147 93.8124 65.74C93.9898 65.656 94.1204 65.5487 94.2044 65.418C94.2884 65.2873 94.3304 65.1473 94.3304 64.998C94.3304 64.774 94.2698 64.6013 94.1484 64.48C94.0271 64.3587 93.8498 64.2653 93.6164 64.2C93.3924 64.1253 93.1218 64.0553 92.8044 63.99C92.4684 63.9247 92.1418 63.8453 91.8244 63.752C91.5164 63.6493 91.2364 63.5233 90.9844 63.374C90.7418 63.2247 90.5458 63.0333 90.3964 62.8C90.2564 62.5667 90.1864 62.282 90.1864 61.946C90.1864 61.5353 90.2938 61.1667 90.5084 60.84C90.7324 60.5133 91.0498 60.2567 91.4604 60.07C91.8804 59.874 92.3798 59.776 92.9584 59.776C93.7798 59.776 94.4331 59.9673 94.9184 60.35C95.4131 60.7233 95.7024 61.2507 95.7864 61.932H94.1904C94.1438 61.6707 94.0131 61.47 93.7984 61.33C93.5838 61.1807 93.2991 61.106 92.9444 61.106C92.5804 61.106 92.3004 61.176 92.1044 61.316C91.9178 61.4467 91.8244 61.624 91.8244 61.848C91.8244 61.988 91.8804 62.1187 91.9924 62.24C92.1138 62.352 92.2864 62.45 92.5104 62.534C92.7344 62.6087 93.0098 62.6833 93.3364 62.758C93.8591 62.8607 94.3211 62.982 94.7224 63.122C95.1238 63.262 95.4411 63.4673 95.6744 63.738C95.9078 64.0087 96.0244 64.3913 96.0244 64.886C96.0338 65.334 95.9171 65.7307 95.6744 66.076C95.4411 66.4213 95.1098 66.692 94.6804 66.888C94.2511 67.0747 93.7378 67.168 93.1404 67.168ZM100.924 67.168C100.224 67.168 99.6076 67.0187 99.0756 66.72C98.5436 66.412 98.1282 65.9827 97.8296 65.432C97.5309 64.8813 97.3816 64.2467 97.3816 63.528C97.3816 62.7813 97.5262 62.128 97.8156 61.568C98.1142 61.008 98.5296 60.5693 99.0616 60.252C99.6029 59.9347 100.228 59.776 100.938 59.776C101.628 59.776 102.23 59.93 102.744 60.238C103.257 60.546 103.654 60.9613 103.934 61.484C104.214 61.9973 104.354 62.576 104.354 63.22C104.354 63.3133 104.354 63.416 104.354 63.528C104.354 63.64 104.344 63.7567 104.326 63.878H98.5856V62.8H102.66C102.641 62.2867 102.468 61.8853 102.142 61.596C101.815 61.2973 101.409 61.148 100.924 61.148C100.578 61.148 100.261 61.2273 99.9716 61.386C99.6822 61.5447 99.4536 61.7827 99.2856 62.1C99.1176 62.408 99.0336 62.8 99.0336 63.276V63.682C99.0336 64.1207 99.1129 64.4987 99.2716 64.816C99.4396 65.1333 99.6636 65.376 99.9436 65.544C100.233 65.7027 100.555 65.782 100.91 65.782C101.302 65.782 101.624 65.698 101.876 65.53C102.137 65.362 102.328 65.138 102.45 64.858H104.158C104.027 65.2967 103.812 65.6933 103.514 66.048C103.215 66.3933 102.846 66.6687 102.408 66.874C101.969 67.07 101.474 67.168 100.924 67.168ZM109.174 67.168C108.474 67.168 107.858 67.0187 107.326 66.72C106.794 66.412 106.378 65.9827 106.08 65.432C105.781 64.8813 105.632 64.2467 105.632 63.528C105.632 62.7813 105.776 62.128 106.066 61.568C106.364 61.008 106.78 60.5693 107.312 60.252C107.853 59.9347 108.478 59.776 109.188 59.776C109.878 59.776 110.48 59.93 110.994 60.238C111.507 60.546 111.904 60.9613 112.184 61.484C112.464 61.9973 112.604 62.576 112.604 63.22C112.604 63.3133 112.604 63.416 112.604 63.528C112.604 63.64 112.594 63.7567 112.576 63.878H106.836V62.8H110.91C110.891 62.2867 110.718 61.8853 110.392 61.596C110.065 61.2973 109.659 61.148 109.174 61.148C108.828 61.148 108.511 61.2273 108.222 61.386C107.932 61.5447 107.704 61.7827 107.536 62.1C107.368 62.408 107.284 62.8 107.284 63.276V63.682C107.284 64.1207 107.363 64.4987 107.522 64.816C107.69 65.1333 107.914 65.376 108.194 65.544C108.483 65.7027 108.805 65.782 109.16 65.782C109.552 65.782 109.874 65.698 110.126 65.53C110.387 65.362 110.578 65.138 110.7 64.858H112.408C112.277 65.2967 112.062 65.6933 111.764 66.048C111.465 66.3933 111.096 66.6687 110.658 66.874C110.219 67.07 109.724 67.168 109.174 67.168ZM114.12 67V59.944H115.604L115.73 61.12C115.945 60.7093 116.253 60.3827 116.654 60.14C117.055 59.8973 117.531 59.776 118.082 59.776C118.651 59.776 119.137 59.8973 119.538 60.14C119.939 60.3733 120.247 60.7187 120.462 61.176C120.686 61.6333 120.798 62.2027 120.798 62.884V67H119.118V63.038C119.118 62.45 118.987 61.9973 118.726 61.68C118.465 61.3627 118.077 61.204 117.564 61.204C117.228 61.204 116.925 61.2833 116.654 61.442C116.393 61.6007 116.183 61.834 116.024 62.142C115.875 62.4407 115.8 62.8047 115.8 63.234V67H114.12Z" fill="#1E201F"/>
<defs>
<clipPath id="clip0_242_6345">
<rect width="24" height="24" fill="white" transform="translate(20 16)"/>
</clipPath>
</defs>
</svg>
