<svg xmlns="http://www.w3.org/2000/svg" width="32" height="32" fill="none"><g fill="#7FB51F" clip-path="url(#a)"><path d="M.223 23.162c-.282-2.41-.321-4.775.025-6.914.426-2.63 1.537-5.557 2.75-8.174C5.373 2.958 9.62 1.169 14.792.362 22.001-.763 31.937.362 32 9.087c-.362 3.12-2.748 11.795-10.805 12.456-2.664.22-3.66 2.895-4.834 5.958-3.088 8.06-15.105 4.482-16.138-4.34" opacity=".1"/><path d="M9.25 11A4.756 4.756 0 0 1 14 6.25 4.756 4.756 0 0 1 18.75 11 4.756 4.756 0 0 1 14 15.75 4.756 4.756 0 0 1 9.25 11M17 17.25h-6c-3.17 0-5.75 2.58-5.75 5.75A2.75 2.75 0 0 0 8 25.75h12A2.75 2.75 0 0 0 22.75 23c0-3.17-2.58-5.75-5.75-5.75"/></g><defs><clipPath id="a"><path fill="#fff" d="M0 0h32v32H0z"/></clipPath></defs></svg>