<svg xmlns="http://www.w3.org/2000/svg" width="56" height="56" fill="none"><g clip-path="url(#a)"><path fill="#E0E9E6" d="M.39 40.533c-.493-4.217-.562-8.355.044-12.099.745-4.603 2.69-9.725 4.814-14.305C9.4 5.177 16.833 2.045 25.885.634 38.5-1.334 55.89.634 56 15.903c-.633 5.46-4.81 20.64-18.908 21.798-4.662.383-6.406 5.065-8.46 10.425C23.228 62.23 2.198 55.971.391 40.533"/><g fill="#7FB51F" clip-path="url(#b)"><path d="M21.42 41.617a2.05 2.05 0 1 0 0-4.101 2.05 2.05 0 0 0 0 4.1"/><path d="M42.692 10.784A4.48 4.48 0 0 0 39.5 9.46h-.817v1.64a3.285 3.285 0 0 1-3.28 3.282H20.636a3.285 3.285 0 0 1-3.282-3.282V9.46h-.824a4.52 4.52 0 0 0-4.511 4.506l-.034 30.516a4.48 4.48 0 0 0 1.32 3.194A4.48 4.48 0 0 0 16.497 49h22.97a4.52 4.52 0 0 0 4.511-4.507l.034-30.516a4.48 4.48 0 0 0-1.32-3.193M16.908 39.566a4.517 4.517 0 0 1 4.511-4.512 4.517 4.517 0 0 1 4.512 4.512 4.517 4.517 0 0 1-4.512 4.512 4.517 4.517 0 0 1-4.511-4.512m14.28-20.165a1.23 1.23 0 1 1 1.741-1.74l2.03 2.03 2.03-2.03a1.23 1.23 0 0 1 1.74 1.74l-2.03 2.03 2.03 2.03a1.23 1.23 0 0 1-1.74 1.74l-2.03-2.03-2.03 2.03a1.227 1.227 0 0 1-1.74 0 1.23 1.23 0 0 1 0-1.74l2.03-2.03zm-10.985-1.353a1.23 1.23 0 0 1 1.74 0l2.91 2.91a1.23 1.23 0 0 1-1.74 1.74l-.803-.803v4.25a3.71 3.71 0 0 0 2.38 3.45l7.152 2.718a6.185 6.185 0 0 1 3.967 5.751v4.783a1.23 1.23 0 1 1-2.461 0v-4.783c0-1.523-.956-2.91-2.38-3.45l-7.152-2.718a6.185 6.185 0 0 1-3.967-5.751v-4.263l-.803.803a1.23 1.23 0 0 1-1.74-1.74z"/><path d="M19.817 11.101c0 .453.367.82.82.82h14.766a.82.82 0 0 0 .82-.82v-3.28a.82.82 0 0 0-.82-.821H20.637a.82.82 0 0 0-.82.82z"/></g></g><defs><clipPath id="a"><path fill="#fff" d="M0 0h56v56H0z"/></clipPath><clipPath id="b"><path fill="#fff" d="M7 7h42v42H7z"/></clipPath></defs></svg>