<svg xmlns="http://www.w3.org/2000/svg" width="56" height="56" fill="none"><g clip-path="url(#a)"><path fill="#E0E9E6" d="M.39 40.533c-.493-4.217-.562-8.355.044-12.099.745-4.603 2.69-9.725 4.814-14.305C9.4 5.177 16.833 2.045 25.885.634 38.5-1.334 55.89.634 56 15.903c-.633 5.46-4.81 20.64-18.909 21.798-4.661.383-6.405 5.065-8.459 10.425C23.227 62.23 2.198 55.971.39 40.533"/><path fill="#7FB51F" d="M27.475 29.313a3.423 3.423 0 0 0-3.413 3.412V34.3A3.95 3.95 0 0 0 28 38.238a3.95 3.95 0 0 0 3.938-3.938v-1.575a3.423 3.423 0 0 0-3.413-3.412zM43.75 34.3v-1.575a3.423 3.423 0 0 0-3.413-3.412h-1.05a3.423 3.423 0 0 0-3.412 3.412V34.3a3.95 3.95 0 0 0 3.938 3.938A3.95 3.95 0 0 0 43.75 34.3m1.93 2.888c-1.077 2.165-3.282 3.675-5.867 3.675-.512 0-.998-.066-1.47-.184a11 11 0 0 1 .157 1.759v5.25h6.563a2.633 2.633 0 0 0 2.625-2.625v-2.625a7.84 7.84 0 0 0-2.009-5.25"/><path fill="#7FB51F" d="M28 40.863c-2.56 0-4.751-1.483-5.828-3.61a8.4 8.4 0 0 0-2.047 5.46v4.975h15.75v-5.25a7.84 7.84 0 0 0-2.008-5.25c-1.076 2.165-3.281 3.675-5.867 3.675m0-14.175c5.066 0 9.188-4.121 9.188-9.188 0-5.066-4.122-9.187-9.188-9.187s-9.187 4.121-9.187 9.187c0 5.067 4.12 9.188 9.187 9.188M23.787 16.45a1.295 1.295 0 0 1 1.85-.013l1.352 1.326 3.374-3.295a1.307 1.307 0 0 1 1.85.014 1.307 1.307 0 0 1-.013 1.85l-4.292 4.2c-.25.25-.59.38-.919.38-.328 0-.669-.13-.918-.38L23.8 18.301a1.307 1.307 0 0 1-.013-1.85M39.813 17.5c0 .722.59 1.313 1.312 1.313h1.969c.722 0 1.312-.59 1.312-1.313 0-.722-.59-1.312-1.312-1.312h-1.969c-.722 0-1.312.59-1.312 1.312m-.001-3.439c.223 0 .446-.052.656-.17l1.707-.985c.63-.367.84-1.168.485-1.798a1.326 1.326 0 0 0-1.798-.486l-1.706.985a1.326 1.326 0 0 0-.486 1.798c.25.42.683.656 1.142.656m-.656 9.332 1.706.985c.21.118.434.17.657.17a1.315 1.315 0 0 0 .656-2.454l-1.706-.985a1.315 1.315 0 0 0-1.798.486c-.368.63-.145 1.43.485 1.798m-26.25-4.58h1.969c.722 0 1.313-.59 1.313-1.313 0-.722-.591-1.312-1.313-1.312h-1.969c-.722 0-1.312.59-1.312 1.312s.59 1.313 1.312 1.313m.919-5.92 1.706.984c.21.119.433.171.656.171a1.315 1.315 0 0 0 .656-2.454l-1.706-.985a1.314 1.314 0 0 0-1.798.486c-.367.63-.144 1.43.486 1.798m1.706 8.229-1.706.985a1.326 1.326 0 0 0-.486 1.798c.25.42.683.656 1.142.656.223 0 .446-.052.656-.17l1.707-.985c.63-.367.84-1.168.485-1.798a1.326 1.326 0 0 0-1.798-.486m4.594 11.603a3.423 3.423 0 0 0-3.413-3.412h-1.05a3.423 3.423 0 0 0-3.412 3.412V34.3a3.95 3.95 0 0 0 3.938 3.938 3.95 3.95 0 0 0 3.937-3.938zm-9.805 4.463a7.84 7.84 0 0 0-2.008 5.25v2.625a2.633 2.633 0 0 0 2.626 2.625H17.5v-5.25c0-.604.066-1.181.157-1.759a6.7 6.7 0 0 1-1.47.184c-2.572 0-4.79-1.51-5.866-3.675"/></g><defs><clipPath id="a"><path fill="#fff" d="M0 0h56v56H0z"/></clipPath></defs></svg>