<svg xmlns="http://www.w3.org/2000/svg" width="57" height="56" fill="none"><g clip-path="url(#a)"><path fill="#E0E9E6" d="M1.057 40.533c-.493-4.217-.562-8.355.044-12.099.745-4.603 2.69-9.725 4.814-14.305C10.067 5.177 17.5 2.045 26.55.634c12.617-1.968 30.006 0 30.116 15.269-.633 5.46-4.81 20.64-18.909 21.798-4.662.383-6.406 5.065-8.46 10.425-5.404 14.104-26.434 7.845-28.24-7.593"/><path fill="#7FB51F" fill-rule="evenodd" d="m23.783 32.635 8.147-8.149a1.38 1.38 0 0 1 1.95 1.952l-8.147 8.147 6.395 12.08a2.758 2.758 0 0 0 5.055-.42c2.428-7.28 8.515-25.545 10.787-32.358a2.757 2.757 0 0 0-3.49-3.49L12.12 21.185a2.759 2.759 0 0 0-.418 5.055z" clip-rule="evenodd"/></g><defs><clipPath id="a"><path fill="#fff" d="M.667 0h56v56h-56z"/></clipPath></defs></svg>