<svg xmlns="http://www.w3.org/2000/svg" width="20" height="21" fill="none"><g clip-path="url(#a)"><path fill="#7FB51F" d="M13.15 8.422c1.327-1.209 3.12-2.844 3.283-6.75h1.184V.5H2.383v1.172h1.184c.163 3.906 1.956 5.541 3.282 6.75.89.811 1.393 1.307 1.393 2.078s-.503 1.267-1.393 2.078c-1.326 1.209-3.119 2.844-3.282 6.75H2.383V20.5h15.234v-1.172h-1.184c-.163-3.906-1.956-5.541-3.282-6.75-.89-.811-1.393-1.307-1.393-2.078s.503-1.267 1.393-2.078m-3.736 6.47q-.271.057-.534.164l-3.59 1.485c.587-1.49 1.53-2.351 2.349-3.097.913-.832 1.775-1.618 1.775-2.944zm2.947-1.448c.818.746 1.762 1.607 2.348 3.097l-3.589-1.485a3 3 0 0 0-.534-.164V10.5c0 1.326.862 2.112 1.775 2.944m-7.09-9.038c-.284-.738-.48-1.63-.53-2.734H15.26c-.051 1.105-.247 1.996-.53 2.734z"/></g><defs><clipPath id="a"><path fill="#fff" d="M0 .5h20v20H0z"/></clipPath></defs></svg>