<svg xmlns="http://www.w3.org/2000/svg" width="32" height="32" fill="none"><g fill="#7FB51F" clip-path="url(#a)"><path d="M.223 23.162c-.282-2.41-.321-4.775.025-6.914.426-2.63 1.537-5.557 2.75-8.174C5.373 2.958 9.62 1.169 14.792.362 22.001-.763 31.937.362 32 9.087c-.362 3.12-2.748 11.795-10.805 12.456-2.664.22-3.66 2.895-4.834 5.958-3.088 8.06-15.105 4.482-16.138-4.34" opacity=".1"/><g clip-path="url(#b)"><path d="M17.49 7.606a2.111 2.111 0 1 0-2.985-2.986 2.111 2.111 0 0 0 2.986 2.986m4.756 16.714-.4.11-1.459-10.068c.77-.432.591-1.576-.256-1.768l-.17-1.171a.469.469 0 1 0-.927.134l.148 1.024c-.469.007-2.025.03-2.585.04l-1.262-1.838.963.835.26-.646a1.427 1.427 0 0 0-.792-1.855l-2.245-.902-2.671 6.651a1.433 1.433 0 0 1-1.868.797l-.107-.043.7 4.686-1.292 4.826a1.114 1.114 0 0 0 .855 1.38L4 27.552V28h24v-5.14zm-11.692 1.907-.569.115a1.1 1.1 0 0 0 .45-.633l1.357-5.061a1.1 1.1 0 0 0 .022-.475l-.586-3.454.242.097 2.344 3.681v4.924c0 .257.088.494.234.683zM16 26.035l-.144.005c.118-.177.188-.39.188-.62v-5.248c0-.208-.059-.416-.175-.598l-1.695-2.663.89-2.216c-.1-.092-.229-.239-.278-.365l-.868-2.232 1.393 2.028a.96.96 0 0 0 .803.415l3.346-.05 1.475 10.19z"/><path d="m7.52 14.47 1.671.671a.873.873 0 0 0 1.136-.485l2.758-6.867a.873.873 0 0 0-.485-1.136l-1.67-.67a.873.873 0 0 0-1.136.484l-2.758 6.868a.873.873 0 0 0 .485 1.135"/></g></g><defs><clipPath id="a"><path fill="#fff" d="M0 0h32v32H0z"/></clipPath><clipPath id="b"><path fill="#fff" d="M4 4h24v24H4z"/></clipPath></defs></svg>