<svg xmlns="http://www.w3.org/2000/svg" width="20" height="20" fill="none"><path fill="#34E0A1" d="M10 20c5.523 0 10-4.477 10-10S15.523 0 10 0 0 4.477 0 10s4.477 10 10 10"/><path fill="#000" d="m16.176 8.048 1.206-1.313h-2.675a8.36 8.36 0 0 0-9.406 0H2.62l1.205 1.313a3.69 3.69 0 0 0 4.994 5.432l1.183 1.287 1.182-1.286a3.688 3.688 0 0 0 5.969-1.445 3.69 3.69 0 0 0-.976-3.988M6.31 13.271a2.498 2.498 0 1 1 0-4.997 2.498 2.498 0 0 1 0 4.997M10 10.703c0-1.643-1.195-3.052-2.771-3.655a7.2 7.2 0 0 1 5.541 0C11.196 7.65 10 9.06 10 10.703m3.689 2.568a2.499 2.499 0 1 1 0-4.997 2.499 2.499 0 0 1 0 4.997m0-3.805a1.309 1.309 0 1 0 0 2.618 1.309 1.309 0 0 0 0-2.618m-6.07 1.308a1.309 1.309 0 1 1-2.617.002 1.309 1.309 0 0 1 2.618-.002"/></svg>