<svg width="16" height="16" viewBox="0 0 16 16" fill="none" xmlns="http://www.w3.org/2000/svg">
<path d="M8.0008 7.86385C9.8134 7.86385 11.2829 6.40194 11.2829 4.59856C11.2829 2.79518 9.8134 1.33325 8.0008 1.33325C6.18818 1.33325 4.71875 2.79518 4.71875 4.59856C4.71875 6.40194 6.18818 7.86385 8.0008 7.86385Z" fill="#7FB51F"/>
<path d="M9.7107 9.22437H6.2919C4.309 9.22437 2.66797 10.8571 2.66797 12.8298C2.66797 13.306 2.8731 13.7142 3.28336 13.9183C3.89874 14.2584 5.26626 14.6665 8.0013 14.6665C10.7364 14.6665 12.1038 14.2584 12.7192 13.9183C13.0611 13.7142 13.3346 13.306 13.3346 12.8298C13.3346 10.789 11.6936 9.22437 9.7107 9.22437Z" fill="#7FB51F"/>
</svg>
