<svg xmlns="http://www.w3.org/2000/svg" width="32" height="32" fill="none"><g clip-path="url(#a)"><path fill="#FFA800" d="M31.335 23.997 20.031 3.217c-1.816-3.057-6.243-3.061-8.062 0L.665 23.997c-1.856 3.124.392 7.08 4.03 7.08h22.61c3.635 0 5.887-3.953 4.03-7.08M16 27.327a1.877 1.877 0 0 1-1.875-1.874c0-1.034.841-1.875 1.875-1.875s1.875.84 1.875 1.875A1.877 1.877 0 0 1 16 27.328m1.875-7.5A1.877 1.877 0 0 1 16 21.704a1.877 1.877 0 0 1-1.875-1.875v-9.375c0-1.034.841-1.875 1.875-1.875s1.875.84 1.875 1.875z"/></g><defs><clipPath id="a"><path fill="#fff" d="M0 0h32v32H0z"/></clipPath></defs></svg>