<svg xmlns="http://www.w3.org/2000/svg" width="32" height="32" fill="none"><path fill="#7FB51F" d="M.223 23.162c-.282-2.41-.321-4.775.025-6.914.426-2.63 1.537-5.557 2.75-8.174C5.373 2.958 9.62 1.169 14.792.362 22.001-.763 31.937.362 32 9.087c-.362 3.12-2.748 11.795-10.805 12.456-2.664.22-3.66 2.895-4.834 5.958-3.088 8.06-15.105 4.482-16.138-4.34" opacity=".1"/><path fill="#7FB51F" d="M13.698 14.332a1.683 1.683 0 1 0 0-3.365 1.683 1.683 0 0 0 0 3.365"/><path fill="#7FB51F" d="M25.69 12.522c-1.036-.345-2.038-.28-2.543.11L11.635 8.798a.695.695 0 0 0-.338-.726.71.71 0 0 0-.93.226l-.044.063-1.474-.49c-.17-.616-.933-1.268-1.969-1.613-1.327-.442-2.598-.212-2.84.514s.638 1.673 1.965 2.115c1.035.345 2.037.28 2.542-.11l1.214.404-1.88 2.74a.696.696 0 0 0 .044.844l2.748 3.233-.355 4.885H7.034a.437.437 0 0 0-.4.61l.689 1.595a3.82 3.82 0 0 1 4.99.347.71.71 0 0 0 1.009 0 3.81 3.81 0 0 1 5.39 0 .72.72 0 0 0 1.015 0 3.82 3.82 0 0 1 4.666-.567l.598-1.382a.432.432 0 0 0-.396-.603H14.63l.307-4.229 2.961-1.01a.7.7 0 0 0 .186-.096l3.347-2.48 1.415.47c.17.616.933 1.268 1.968 1.613 1.327.442 2.599.212 2.84-.514.242-.726-.637-1.673-1.964-2.115m-8.34 1.84-2.824.962-2.886-.337-2.31-2.718 1.804-2.63 8.712 2.9z"/><path fill="#7FB51F" d="M27.772 23.982a.774.774 0 0 0-1.094 0 1.49 1.49 0 0 1-2.109 0 3.04 3.04 0 0 0-4.296 0 1.484 1.484 0 0 1-2.103 0 3.045 3.045 0 0 0-4.303 0 1.484 1.484 0 0 1-2.102 0 3.044 3.044 0 0 0-4.297 0 1.49 1.49 0 0 1-2.108 0 .774.774 0 1 0-1.094 1.094 3.036 3.036 0 0 0 4.296 0 1.486 1.486 0 0 1 2.103 0 3.046 3.046 0 0 0 4.303 0 1.484 1.484 0 0 1 2.102 0c1.319 1.32 3.388 1.055 4.34-.04a1.49 1.49 0 0 1 2.065.04 3.037 3.037 0 0 0 4.297 0 .774.774 0 0 0 0-1.094"/></svg>