<svg xmlns="http://www.w3.org/2000/svg" width="33" height="32" fill="none"><g clip-path="url(#a)"><path fill="#fff" d="M.723 23.162c-.282-2.41-.321-4.775.025-6.914.426-2.63 1.537-5.557 2.75-8.174C5.873 2.958 10.12 1.169 15.292.362c7.21-1.125 17.146 0 17.209 8.725-.362 3.12-2.748 11.795-10.805 12.456-2.664.22-3.66 2.895-4.834 5.958-3.088 8.06-15.105 4.482-16.138-4.34" opacity=".1"/><g clip-path="url(#b)"><path fill="#7FB51F" d="M16.003 4h-.006C9.381 4 4 9.382 4 16c0 2.625.846 5.058 2.285 7.034l-1.496 4.458 4.613-1.475A11.9 11.9 0 0 0 16.003 28C22.619 28 28 22.616 28 16S22.62 4 16.003 4m6.982 16.946c-.289.817-1.438 1.495-2.354 1.693-.628.134-1.447.24-4.204-.903-3.526-1.461-5.797-5.044-5.974-5.277-.17-.232-1.425-1.897-1.425-3.62 0-1.722.874-2.56 1.227-2.92.29-.296.768-.43 1.227-.43.149 0 .282.007.402.013.352.015.53.036.762.592.29.698.994 2.42 1.079 2.597s.17.417.05.65c-.112.24-.211.346-.388.55s-.345.36-.522.579c-.162.19-.345.394-.141.747.204.345.909 1.495 1.947 2.42 1.34 1.192 2.425 1.573 2.814 1.735.29.12.634.091.846-.134.268-.289.6-.769.938-1.241.24-.34.543-.381.86-.262.324.113 2.039.96 2.391 1.136.353.177.585.261.671.41.084.148.084.846-.206 1.665"/></g></g><defs><clipPath id="a"><path fill="#fff" d="M.5 0h32v32H.5z"/></clipPath><clipPath id="b"><path fill="#fff" d="M4 4h24v24H4z"/></clipPath></defs></svg>