<svg xmlns="http://www.w3.org/2000/svg" width="32" height="32" fill="none"><path fill="#7FB51F" d="M.223 23.162c-.282-2.41-.321-4.775.025-6.914.426-2.63 1.537-5.557 2.75-8.174C5.373 2.958 9.62 1.169 14.792.362 22.001-.763 31.937.362 32 9.087c-.362 3.12-2.748 11.795-10.805 12.456-2.664.22-3.66 2.895-4.834 5.958-3.088 8.06-15.105 4.482-16.138-4.34" opacity=".1"/><path fill="#7FB51F" d="M20.9 25c-1.17 0-2.301.343-3.274.991l-.24.16q.175.174.34.36l.318.364h7.175l-.147-.147A5.86 5.86 0 0 0 20.899 25M6.99 26.666l-.209.209h10.256a6.97 6.97 0 0 0-5.119-2.25 6.93 6.93 0 0 0-4.928 2.041M22 12.625a2.625 2.625 0 1 0 0-5.25 2.625 2.625 0 0 0 0 5.25m.375-7.5h-.75v1.5h.75zM18.82 6.287l-.53.53 1.06 1.061.53-.53zm-.195 3.338h-1.5v.75h1.5zm.725 2.496-1.06 1.06.53.531 1.06-1.06zm3.025 1.254h-.75v1.5h.75zm2.276-1.255-.53.53 1.06 1.061.531-.53zm2.224-2.495h-1.5v.75h1.5zm-1.693-3.337-1.06 1.06.53.53 1.06-1.06zM16.879 21.73l.996.443v-1.518L16.11 18.89l.53-.53 1.235 1.235v-3.97h.75v3.97l1.235-1.235.53.53-1.765 1.765v1.518l.996-.443a2.745 2.745 0 0 0 1.142-4.067l-2.513-3.63-2.512 3.63a2.745 2.745 0 0 0 1.142 4.067m-8.166-2.731 1.286.818v4.306a8 8 0 0 1 .75-.151v-4.155l1.286-.819a4.49 4.49 0 0 0 2.089-3.805c0-.871-.25-1.719-.724-2.45l-.002-.004-1.841-2.914-1.178-1.767-3.031 4.684a4.5 4.5 0 0 0-.724 2.451 4.49 4.49 0 0 0 2.09 3.806m-.48-6.109.531-.53L10 13.595v-3.97h.75v3.97l1.235-1.235.53.53-1.765 1.765v2.315l1.235-1.235.53.53-1.765 1.765v1.72H10v-1.72l-1.765-1.765.53-.53L10 16.97v-2.315zm9.64 12.093q.366-.188.75-.329v-2.279h-.75z"/><path fill="#7FB51F" d="M25.478 17.5c-.13 0-.255.021-.375.052V17.5c0-1.035-.84-1.875-1.875-1.875-.616 0-1.159.302-1.5.76a1.87 1.87 0 0 0-1.462-.758l1.113 1.609c.406.586.621 1.274.621 1.988 0 .446-.093.875-.251 1.276h3.729a1.5 1.5 0 0 0 0-3M8.23 10l2.14-3.308 1.812 2.717.373.591h1.57a1.5 1.5 0 0 0 0-3c-.132 0-.259.022-.381.054.001-.018.006-.035.006-.054 0-1.035-.84-1.875-1.875-1.875-.616 0-1.158.301-1.5.76a1.87 1.87 0 0 0-1.5-.76C7.84 5.125 7 5.965 7 7c0 .019.005.036.006.054A1.5 1.5 0 0 0 6.625 7a1.5 1.5 0 0 0 0 3z"/></svg>