<svg xmlns="http://www.w3.org/2000/svg" width="24" height="24" fill="none"><g fill="#7FB51F" clip-path="url(#a)"><path d="M.167 17.371c-.211-1.807-.24-3.58.019-5.185.32-1.973 1.153-4.168 2.063-6.13C4.03 2.218 7.214.875 11.093.271 16.5-.572 23.953.272 24 6.815c-.271 2.34-2.061 8.846-8.104 9.343-1.998.164-2.745 2.17-3.625 4.467C9.955 26.67.94 23.989.167 17.371" opacity=".1"/><path d="M18.73 6.37A4.34 4.34 0 0 0 15.53 5c-.923 0-1.769.287-2.514.853A5.1 5.1 0 0 0 12 6.897q-.45-.614-1.017-1.044A4.07 4.07 0 0 0 8.47 5a4.34 4.34 0 0 0-3.2 1.37C4.45 7.243 4 8.436 4 9.73c0 1.33.504 2.548 1.587 3.833.968 1.15 2.36 2.316 3.972 3.667.55.461 1.175.984 1.823 1.541a.95.95 0 0 0 1.236 0c.648-.556 1.272-1.08 1.823-1.541 1.612-1.351 3.004-2.518 3.972-3.667C19.496 12.278 20 11.06 20 9.729c0-1.293-.45-2.486-1.27-3.359"/></g><defs><clipPath id="a"><path fill="#fff" d="M0 0h24v24H0z"/></clipPath></defs></svg>