<svg width="219" height="36" viewBox="0 0 219 36" fill="none" xmlns="http://www.w3.org/2000/svg">
<g id="Layer 2">
<g id="Layer 1">
<path id="Vector" d="M61.8027 24.3618C61.1002 24.3731 60.4004 24.2697 59.7295 24.0556C59.1524 23.8666 58.6093 23.5822 58.1215 23.2134C57.6716 22.8763 57.2741 22.4711 56.9426 22.0116L56.4909 24.0022H52.9204V1.96143H56.9426V10.7058C57.4384 9.97319 58.0844 9.36103 58.8352 8.91239C59.7328 8.40503 60.7472 8.15651 61.7711 8.19317C63.0822 8.17018 64.3717 8.53763 65.4839 9.25112C66.5706 9.96078 67.455 10.9534 68.0472 12.128C68.6892 13.4197 69.0111 14.8541 68.9844 16.3042C69.0068 17.7397 68.685 19.1588 68.0472 20.4362C67.463 21.6128 66.5826 22.6071 65.4974 23.3155C64.3891 24.0213 63.1065 24.3846 61.8027 24.3618ZM60.8474 20.7471C61.5858 20.7628 62.3139 20.5668 62.95 20.181C63.554 19.8058 64.0444 19.2651 64.366 18.6196C64.7162 17.9002 64.8899 17.1037 64.8719 16.2995C64.8863 15.4883 64.7129 14.6852 64.366 13.9562C64.0504 13.2986 63.5593 12.7466 62.95 12.3647C62.3135 11.9806 61.5854 11.7862 60.8474 11.8032C60.1192 11.7899 59.4019 11.986 58.7764 12.3693C58.1666 12.7486 57.6716 13.2949 57.3469 13.947C56.9883 14.6639 56.8091 15.4612 56.8252 16.2671C56.8056 17.0828 56.9825 17.891 57.3401 18.6196C57.66 19.2751 58.1561 19.8226 58.7697 20.1973C59.4006 20.5714 60.119 20.7615 60.8474 20.7471Z" fill="white"/>
<path id="Vector_2" d="M77.747 24.3618C76.3942 24.3817 75.0611 24.0275 73.8874 23.3363C72.7498 22.656 71.8131 21.6714 71.1773 20.4873C70.4955 19.2086 70.1513 17.7688 70.1791 16.3111C70.1466 14.8322 70.4907 13.3702 71.1773 12.07C71.8161 10.882 72.7597 9.8966 73.9055 9.22094C75.0947 8.54829 76.4301 8.19556 77.7877 8.19556C79.1452 8.19556 80.4807 8.54829 81.6699 9.22094C82.8075 9.90123 83.7441 10.8859 84.3799 12.07C85.0635 13.3606 85.4075 14.812 85.3781 16.281C85.4072 17.7491 85.0632 19.1997 84.3799 20.4896C83.7402 21.6769 82.7969 22.662 81.6518 23.3386C80.4621 24.0307 79.1141 24.384 77.747 24.3618ZM77.747 20.7773C78.3818 20.7893 79.0073 20.6198 79.5537 20.2877C80.1083 19.9292 80.5445 19.4067 80.8049 18.789C81.1356 17.9969 81.2936 17.1401 81.2679 16.2786C81.2951 15.4216 81.1369 14.569 80.8049 13.7822C80.5388 13.1675 80.104 12.6459 79.5537 12.2811C79.1509 12.0211 78.6984 11.8531 78.2269 11.7885C77.7553 11.7238 77.2758 11.764 76.8207 11.9064C76.3656 12.0487 75.9456 12.2899 75.5891 12.6135C75.2327 12.9372 74.9481 13.3357 74.7546 13.7822C74.4217 14.5687 74.2635 15.4215 74.2917 16.2786C74.2648 17.1402 74.4229 17.9972 74.7546 18.789C75.0151 19.4067 75.4512 19.9292 76.0058 20.2877C76.5308 20.6137 77.1336 20.7832 77.747 20.7773Z" fill="white"/>
<path id="Vector_3" d="M87.0471 23.9929V1.95215H91.0693V23.9929H87.0471Z" fill="white"/>
<path id="Vector_4" d="M99.8929 24.3618C98.5942 24.3822 97.317 24.0208 96.2117 23.3201C95.1212 22.619 94.2398 21.6228 93.6642 20.4409C93.0342 19.1609 92.7165 17.7429 92.7383 16.3088C92.7123 14.8586 93.035 13.4241 93.6778 12.1327C94.2734 10.9497 95.1692 9.95406 96.2704 9.25113C97.3841 8.54289 98.6713 8.17587 99.981 8.19317C100.958 8.17178 101.927 8.38134 102.813 8.80567C103.608 9.1969 104.287 9.79922 104.78 10.5504V1.94751H108.805V23.9883H105.218L104.767 21.877C104.445 22.3313 104.069 22.7427 103.649 23.102C103.177 23.5089 102.636 23.8235 102.054 24.03C101.357 24.2652 100.626 24.3774 99.8929 24.3618ZM100.846 20.7471C101.588 20.765 102.32 20.5688 102.96 20.181C103.567 19.8026 104.058 19.2557 104.376 18.6034C104.723 17.8828 104.897 17.0871 104.882 16.2833C104.896 15.4795 104.723 14.6838 104.376 13.9632C104.057 13.3113 103.567 12.7646 102.96 12.3856C102.322 11.9921 101.59 11.7903 100.846 11.8032C100.123 11.7939 99.412 11.9898 98.7908 12.3693C98.1746 12.7456 97.6737 13.2923 97.3454 13.947C96.9876 14.6551 96.8075 15.4438 96.8215 16.2415C96.8027 17.0598 96.9827 17.87 97.3454 18.5987C97.6701 19.2508 98.1651 19.7971 98.775 20.1764C99.4 20.5613 100.117 20.759 100.846 20.7471Z" fill="white"/>
<path id="Vector_5" d="M116.316 23.9929V1.95215H118.401V11.3183C118.897 10.3593 119.646 9.56324 120.562 9.02144C121.471 8.47423 122.506 8.18815 123.559 8.19317C124.588 8.16643 125.608 8.40576 126.524 8.88919C127.383 9.37342 128.071 10.1236 128.491 11.0329C128.956 11.9919 129.19 13.2161 129.191 14.7056V23.986H127.125V14.9608C127.125 13.3059 126.792 12.0762 126.127 11.2719C125.461 10.4676 124.483 10.0639 123.191 10.0608C122.327 10.0469 121.478 10.2858 120.741 10.7496C120.005 11.2135 119.412 11.8831 119.033 12.6802C118.578 13.658 118.358 14.7337 118.392 15.817V23.9929H116.316Z" fill="white"/>
<path id="Vector_6" d="M132.678 4.91708C132.48 4.9202 132.282 4.88262 132.098 4.80653C131.914 4.73044 131.746 4.61737 131.605 4.47394C131.458 4.33042 131.342 4.15671 131.264 3.96407C131.186 3.77143 131.149 3.56416 131.154 3.35566C131.144 3.14849 131.178 2.94163 131.252 2.74882C131.327 2.55601 131.44 2.38167 131.585 2.23738C131.883 1.95912 132.276 1.81173 132.678 1.82673C133.064 1.82295 133.438 1.97064 133.721 2.2397C133.872 2.38088 133.99 2.55416 134.068 2.74737C134.146 2.94057 134.182 3.149 134.173 3.35798C134.179 3.56492 134.144 3.77092 134.069 3.96326C133.995 4.1556 133.882 4.33019 133.74 4.47626C133.601 4.62046 133.436 4.73399 133.253 4.80982C133.071 4.88564 132.875 4.92215 132.678 4.91708ZM131.641 23.9928V8.55497H133.728V23.9858L131.641 23.9928Z" fill="white"/>
<path id="Vector_7" d="M136.434 23.9929V8.55509H138.34L138.489 10.8752C138.927 10.0377 139.589 9.34686 140.397 8.88455C141.227 8.41498 142.161 8.17512 143.107 8.18852C143.816 8.18322 144.52 8.29927 145.192 8.53189C145.81 8.74557 146.379 9.08928 146.861 9.54113C147.365 10.0305 147.761 10.6255 148.022 11.2858C148.487 10.3401 149.208 9.55284 150.099 9.01911C150.976 8.4745 151.982 8.18797 153.006 8.19084C154.049 8.16293 155.083 8.40212 156.014 8.88687C156.88 9.36684 157.575 10.1177 157.997 11.0306C158.464 11.9896 158.697 13.2038 158.697 14.6732V23.9813H156.613V14.9307C156.613 13.2973 156.29 12.0778 155.644 11.2719C154.998 10.4661 154.079 10.0624 152.886 10.0608C152.113 10.0547 151.356 10.284 150.709 10.7197C150.03 11.1869 149.498 11.8461 149.176 12.6176C148.781 13.5917 148.593 14.6414 148.625 15.6963V23.9929H146.547V14.9307C146.547 13.2973 146.219 12.0778 145.562 11.2719C144.906 10.4661 144.003 10.0624 142.852 10.0608C142.065 10.0474 141.291 10.2769 140.632 10.7197C139.952 11.2005 139.42 11.87 139.097 12.65C138.692 13.6422 138.5 14.7118 138.532 15.7868V23.9929H136.434Z" fill="white"/>
<path id="Vector_8" d="M165.642 24.3618C164.437 24.3618 163.429 24.1368 162.618 23.6867C161.87 23.2949 161.249 22.6889 160.829 21.942C160.44 21.2212 160.24 20.4089 160.249 19.5848C160.219 18.6219 160.496 17.6753 161.037 16.8888C161.606 16.1225 162.384 15.5475 163.273 15.2369C164.34 14.8506 165.466 14.6636 166.597 14.6847H170.662C170.686 13.811 170.532 12.9418 170.211 12.1326C169.948 11.4818 169.495 10.9307 168.914 10.555C168.256 10.1735 167.508 9.9879 166.753 10.0191C165.809 9.99289 164.881 10.2712 164.099 10.8148C163.73 11.0864 163.418 11.4319 163.183 11.8307C162.947 12.2294 162.793 12.6731 162.729 13.1349H160.549C160.635 12.135 161.014 11.1853 161.635 10.4111C162.245 9.67366 163.02 9.10022 163.894 8.74069C164.798 8.36421 165.766 8.17194 166.742 8.17459C168.112 8.17459 169.241 8.44526 170.129 8.98662C170.99 9.50282 171.677 10.2777 172.096 11.2069C172.54 12.2281 172.758 13.3372 172.735 14.455V23.9674H170.829L170.739 21.1508C170.535 21.5889 170.28 22.0002 169.98 22.3758C169.672 22.7699 169.31 23.116 168.905 23.4036C168.47 23.707 167.992 23.9416 167.489 24.0996C166.89 24.2829 166.267 24.3713 165.642 24.3618ZM165.881 22.4617C166.573 22.4747 167.258 22.3155 167.878 21.9976C168.45 21.6968 168.957 21.2801 169.368 20.7726C169.789 20.2572 170.112 19.6655 170.321 19.0279C170.539 18.388 170.65 17.7151 170.651 17.0373V16.4921H166.746C165.885 16.4598 165.025 16.5944 164.212 16.8888C163.658 17.0902 163.178 17.4651 162.841 17.9607C162.571 18.4309 162.427 18.9666 162.424 19.5129C162.421 20.0592 162.56 20.5965 162.826 21.0696C163.11 21.5236 163.52 21.8805 164.002 22.0951C164.595 22.3558 165.236 22.4808 165.881 22.4617Z" fill="white"/>
<path id="Vector_9" d="M174.881 23.9929V1.95215H176.968V23.9929H174.881Z" fill="white"/>
<path id="Vector_10" d="M184.21 24.3618C183.006 24.3618 181.998 24.1367 181.186 23.6867C180.439 23.2949 179.817 22.6889 179.398 21.9419C179.009 21.2212 178.809 20.4089 178.817 19.5847C178.787 18.6219 179.064 17.6753 179.606 16.8888C180.175 16.1225 180.953 15.5475 181.841 15.2369C182.909 14.8506 184.034 14.6636 185.166 14.6847H189.231C189.255 13.811 189.101 12.9418 188.779 12.1326C188.516 11.4818 188.063 10.9307 187.483 10.555C186.825 10.1735 186.076 9.98789 185.322 10.019C184.378 9.99289 183.45 10.2712 182.668 10.8148C182.299 11.0864 181.987 11.4319 181.751 11.8307C181.516 12.2294 181.361 12.6731 181.297 13.1349H179.122C179.208 12.1428 179.583 11.2002 180.197 10.4297C180.806 9.69222 181.582 9.11877 182.456 8.75924C183.36 8.38276 184.327 8.1905 185.304 8.19314C186.675 8.19314 187.804 8.46382 188.691 9.00517C189.552 9.52137 190.239 10.2963 190.658 11.2255C191.101 12.2467 191.32 13.3558 191.297 14.4736V23.9859H189.391L189.301 21.1694C189.101 21.6093 188.85 22.0229 188.553 22.4013C188.243 22.7865 187.88 23.124 187.476 23.4036C187.041 23.707 186.563 23.9416 186.06 24.0996C185.46 24.2831 184.836 24.3716 184.21 24.3618ZM184.45 22.4616C185.142 22.4747 185.827 22.3155 186.446 21.9976C187.018 21.6968 187.525 21.2801 187.937 20.7726C188.358 20.2572 188.681 19.6655 188.89 19.0279C189.111 18.3901 189.226 17.7188 189.231 17.0419V16.4921H185.315C184.453 16.4598 183.594 16.5944 182.781 16.8888C182.226 17.0902 181.747 17.4651 181.41 17.9607C181.139 18.4309 180.995 18.9666 180.992 19.5129C180.99 20.0592 181.128 20.5965 181.394 21.0696C181.679 21.5236 182.088 21.8805 182.571 22.0951C183.164 22.3558 183.805 22.4808 184.45 22.4616Z" fill="white"/>
<path id="Vector_11" d="M194.583 30.7303L198.278 22.2782H197.474L191.543 8.55493H193.802L198.942 20.8096L204.331 8.55493H206.476L196.765 30.7233L194.583 30.7303Z" fill="white"/>
<path id="Vector_12" d="M211.424 24.3618C210.211 24.3618 209.202 24.1368 208.398 23.6867C207.655 23.2924 207.038 22.6868 206.621 21.942C206.232 21.2208 206.032 20.4088 206.04 19.5848C206.01 18.6215 206.287 17.6745 206.831 16.8888C207.4 16.1235 208.177 15.5486 209.064 15.2369C210.131 14.8506 211.257 14.6636 212.388 14.6847H216.454C216.478 13.811 216.324 12.9418 216.002 12.1327C215.739 11.4818 215.286 10.9307 214.706 10.555C214.048 10.1735 213.299 9.98791 212.544 10.0191C211.601 9.9929 210.673 10.2712 209.891 10.8148C209.522 11.0867 209.21 11.4323 208.975 11.831C208.739 12.2297 208.584 12.6732 208.52 13.1349H206.327C206.414 12.1353 206.792 11.1859 207.413 10.4112C208.022 9.67346 208.797 9.09997 209.672 8.74069C210.575 8.364 211.542 8.17172 212.517 8.17459C213.889 8.17459 215.018 8.44527 215.905 8.98662C216.766 9.50282 217.452 10.2777 217.872 11.2069C218.316 12.2279 218.535 13.337 218.513 14.4551V23.9674H216.605L216.515 21.1508C216.31 21.5889 216.056 22.0002 215.756 22.3758C215.45 22.7694 215.09 23.1155 214.688 23.4036C214.252 23.707 213.775 23.9416 213.272 24.0996C212.672 24.283 212.049 24.3714 211.424 24.3618ZM211.661 22.4617C212.353 22.4747 213.038 22.3155 213.658 21.9976C214.23 21.6968 214.737 21.2801 215.148 20.7726C215.57 20.2589 215.895 19.6688 216.106 19.0326C216.321 18.3922 216.432 17.7195 216.433 17.0419V16.4921H212.526C211.665 16.4602 210.805 16.5948 209.992 16.8888C209.438 17.0902 208.958 17.4651 208.621 17.9607C208.351 18.4309 208.207 18.9667 208.204 19.513C208.201 20.0593 208.34 20.5965 208.606 21.0696C208.891 21.5233 209.3 21.8802 209.782 22.0951C210.375 22.3561 211.016 22.4812 211.661 22.4617Z" fill="white"/>
<path id="Vector_13" d="M84.0096 34.1061V30.7304H82.8804V30.1086H85.8976V30.7304H84.7684V34.1061H84.0096Z" fill="#7FB51F"/>
<path id="Vector_14" d="M87.98 34.1061V30.1086H88.732V34.1061H87.98ZM88.6236 32.3754V31.7559H90.5591V32.3777L88.6236 32.3754ZM90.4303 34.1061V30.1086H91.1824V34.1061H90.4303Z" fill="#7FB51F"/>
<path id="Vector_15" d="M93.5039 34.1061V30.1086H94.9561C95.2244 30.0983 95.4911 30.1556 95.7329 30.2757C95.9229 30.3731 96.0802 30.5266 96.1846 30.7165C96.2865 30.9043 96.3387 31.1163 96.3359 31.3313C96.3366 31.5393 96.2869 31.7442 96.1914 31.9276C96.0881 32.1195 95.9306 32.2748 95.7397 32.373C95.4931 32.4956 95.2208 32.5538 94.947 32.5424H94.2537V34.1061H93.5039ZM94.256 31.9832H94.9109C95.0014 31.9906 95.0924 31.9792 95.1785 31.9497C95.2647 31.9202 95.3441 31.8732 95.4123 31.8115C95.4679 31.7492 95.5108 31.676 95.5383 31.5963C95.5658 31.5166 95.5775 31.432 95.5726 31.3475C95.5769 31.2665 95.565 31.1855 95.5379 31.1093C95.5107 31.0331 95.4687 30.9634 95.4145 30.9044C95.2738 30.7846 95.093 30.7263 94.9109 30.742H94.256V31.9832ZM95.5229 34.1061L94.7212 32.3475H95.5342L96.3788 34.1061H95.5229Z" fill="#7FB51F"/>
<path id="Vector_16" d="M100.365 34.1756C100.014 34.1831 99.6681 34.0916 99.3645 33.9111C99.0779 33.7377 98.8434 33.4864 98.687 33.1849C98.5265 32.85 98.4431 32.4817 98.4431 32.1084C98.4431 31.7351 98.5265 31.3668 98.687 31.0319C98.8431 30.7295 99.0776 30.4774 99.3645 30.3034C99.6722 30.1314 100.017 30.0413 100.367 30.0413C100.718 30.0413 101.062 30.1314 101.37 30.3034C101.658 30.4754 101.893 30.728 102.047 31.0319C102.206 31.3672 102.289 31.7354 102.289 32.1084C102.289 32.4814 102.206 32.8495 102.047 33.1849C101.893 33.4876 101.658 33.7393 101.37 33.9111C101.065 34.0919 100.717 34.1834 100.365 34.1756ZM100.365 33.4796C100.581 33.4855 100.795 33.4267 100.979 33.3102C101.155 33.1944 101.294 33.0293 101.381 32.8346C101.477 32.6026 101.526 32.3533 101.526 32.1014C101.526 31.8496 101.477 31.6003 101.381 31.3683C101.292 31.1778 101.153 31.0169 100.979 30.9043C100.792 30.7963 100.581 30.7397 100.366 30.7397C100.151 30.7397 99.9402 30.7963 99.7529 30.9043C99.5778 31.0167 99.4369 31.1775 99.3464 31.3683C99.251 31.6003 99.2018 31.8496 99.2018 32.1014C99.2018 32.3533 99.251 32.6026 99.3464 32.8346C99.435 33.0297 99.5761 33.1947 99.7529 33.3102C99.9362 33.428 100.149 33.4885 100.365 33.4842V33.4796Z" fill="#7FB51F"/>
<path id="Vector_17" d="M105.991 34.1757C105.721 34.1793 105.454 34.1182 105.211 33.9971C104.979 33.8806 104.786 33.6956 104.656 33.4658C104.509 33.1906 104.438 32.8793 104.45 32.5656V30.1086H105.2V32.5702C105.195 32.7417 105.227 32.9122 105.295 33.0691C105.352 33.1981 105.449 33.3042 105.571 33.3707C105.704 33.4385 105.853 33.4712 106.002 33.4658C106.153 33.4707 106.302 33.4381 106.438 33.3707C106.56 33.3042 106.656 33.1981 106.713 33.0691C106.781 32.9122 106.813 32.7417 106.808 32.5702V30.1086H107.558V32.5656C107.571 32.8802 107.497 33.1921 107.346 33.4658C107.212 33.6974 107.014 33.8825 106.777 33.9971C106.531 34.1172 106.262 34.1783 105.991 34.1757Z" fill="#7FB51F"/>
<path id="Vector_18" d="M111.555 34.1756C111.216 34.1838 110.88 34.0955 110.587 33.9204C110.311 33.7502 110.089 33.5021 109.947 33.2058C109.79 32.8729 109.713 32.5062 109.722 32.1363C109.712 31.7603 109.789 31.3872 109.947 31.0481C110.099 30.7397 110.335 30.4827 110.625 30.308C110.946 30.1229 111.309 30.0307 111.677 30.0412C112.079 30.0267 112.475 30.1446 112.807 30.3776C113.108 30.6014 113.317 30.9322 113.394 31.3057H112.554C112.501 31.1343 112.391 30.9874 112.244 30.8904C112.069 30.7832 111.867 30.7308 111.664 30.7396C111.438 30.7318 111.214 30.7914 111.02 30.9113C110.842 31.0256 110.7 31.192 110.614 31.3892C110.516 31.622 110.469 31.8737 110.476 32.127C110.468 32.3796 110.515 32.6307 110.614 32.8625C110.696 33.0556 110.835 33.2177 111.011 33.3265C111.197 33.4342 111.408 33.488 111.621 33.4819C111.762 33.4928 111.904 33.4732 112.037 33.4245C112.171 33.3757 112.293 33.2989 112.396 33.1989C112.577 32.9976 112.688 32.7394 112.709 32.4657H111.768V31.8903H113.48V34.0991H112.784L112.728 33.591C112.65 33.7122 112.554 33.8196 112.443 33.9088C112.329 33.9972 112.199 34.0626 112.061 34.1014C111.897 34.1513 111.727 34.1763 111.555 34.1756Z" fill="#7FB51F"/>
<path id="Vector_19" d="M115.729 34.1061V30.1086H116.479V34.1061H115.729ZM116.375 32.3754V31.7559H118.317V32.3777L116.375 32.3754ZM118.182 34.1061V30.1086H118.931V34.1061H118.182Z" fill="#7FB51F"/>
<path id="Vector_20" d="M125.025 34.1061V30.7304H123.884V30.1086H126.899V30.7304H125.77V34.1061H125.025Z" fill="#7FB51F"/>
<path id="Vector_21" d="M128.992 34.1061V30.1086H129.742V34.1061H128.992ZM129.636 32.3754V31.7559H131.572V32.3777L129.636 32.3754ZM131.443 34.1061V30.1086H132.195V34.1061H131.443Z" fill="#7FB51F"/>
<path id="Vector_22" d="M134.519 34.1061V30.1086H137.075V30.7304H135.269V31.7768H136.908V32.3754H135.269V33.4844H137.075V34.1061H134.519Z" fill="#7FB51F"/>
<path id="Vector_23" d="M142.177 34.1061V30.1086H143.08L144.268 32.6051L145.447 30.1086H146.351V34.1061H145.601V31.4218L144.573 33.547H143.977L142.934 31.4218V34.1061H142.177Z" fill="#7FB51F"/>
<path id="Vector_24" d="M150.454 34.1758C150.103 34.183 149.757 34.0915 149.454 33.9113C149.166 33.7386 148.932 33.4872 148.776 33.1851C148.616 32.8502 148.532 32.4819 148.532 32.1086C148.532 31.7353 148.616 31.367 148.776 31.0321C148.931 30.7289 149.166 30.4765 149.454 30.3036C149.762 30.1316 150.107 30.0415 150.457 30.0415C150.808 30.0415 151.153 30.1316 151.461 30.3036C151.75 30.4756 151.985 30.7283 152.139 31.0321C152.298 31.3675 152.38 31.7356 152.38 32.1086C152.38 32.4816 152.298 32.8498 152.139 33.1851C151.984 33.4878 151.749 33.7395 151.461 33.9113C151.155 34.0921 150.807 34.1835 150.454 34.1758ZM150.454 33.4798C150.671 33.486 150.884 33.4272 151.068 33.3104C151.245 33.1948 151.385 33.0297 151.473 32.8348C151.568 32.6028 151.617 32.3535 151.617 32.1017C151.617 31.8498 151.568 31.6005 151.473 31.3685C151.383 31.1779 151.243 31.017 151.068 30.9045C150.881 30.7966 150.671 30.7399 150.456 30.7399C150.242 30.7399 150.031 30.7966 149.844 30.9045C149.669 31.0163 149.528 31.1773 149.438 31.3685C149.342 31.6005 149.293 31.8498 149.293 32.1017C149.293 32.3535 149.342 32.6028 149.438 32.8348C149.526 33.0303 149.667 33.1955 149.844 33.3104C150.027 33.4279 150.239 33.4884 150.454 33.4844V33.4798Z" fill="#7FB51F"/>
<path id="Vector_25" d="M156.08 34.1757C155.811 34.1791 155.545 34.1179 155.303 33.9971C155.07 33.8819 154.876 33.6966 154.747 33.4658C154.6 33.1908 154.528 32.8795 154.54 32.5656V30.1086H155.292V32.5702C155.286 32.7417 155.319 32.9122 155.386 33.0691C155.442 33.1985 155.538 33.3048 155.66 33.3707C155.796 33.4334 155.944 33.4658 156.093 33.4658C156.243 33.4658 156.391 33.4334 156.527 33.3707C156.649 33.3049 156.746 33.1987 156.803 33.0691C156.87 32.9122 156.903 32.7417 156.897 32.5702V30.1086H157.647V32.5656C157.66 32.8799 157.587 33.1915 157.437 33.4658C157.302 33.6963 157.104 33.8811 156.868 33.9971C156.622 34.1174 156.352 34.1785 156.08 34.1757Z" fill="#7FB51F"/>
<path id="Vector_26" d="M159.937 34.1061V30.1086H160.689L162.478 32.8672V30.1086H163.23V34.1061H162.478L160.689 31.3545V34.1061H159.937Z" fill="#7FB51F"/>
<path id="Vector_27" d="M166.453 34.1061V30.7304H165.323V30.1086H168.341V30.7304H167.212V34.1061H166.453Z" fill="#7FB51F"/>
<path id="Vector_28" d="M169.75 34.1061L171.164 30.1086H172.015L173.431 34.1061H172.636L171.586 30.988L170.529 34.1061H169.75ZM170.378 33.199L170.579 32.5981H172.557L172.751 33.199H170.378Z" fill="#7FB51F"/>
<path id="Vector_29" d="M175.509 34.1061V30.1086H176.259V34.1061H175.509Z" fill="#7FB51F"/>
<path id="Vector_30" d="M178.578 34.1061V30.1086H179.328L181.116 32.8672V30.1086H181.868V34.1061H181.116L179.328 31.3545V34.1061H178.578Z" fill="#7FB51F"/>
<path id="Vector_31" d="M185.525 34.1757C185.267 34.1796 185.011 34.1291 184.773 34.0272C184.555 33.9377 184.37 33.7819 184.241 33.5807C184.112 33.3795 184.046 33.1427 184.052 32.902H184.847C184.85 33.0146 184.881 33.1246 184.935 33.2221C184.989 33.3189 185.067 33.3991 185.161 33.4541C185.27 33.5126 185.391 33.5414 185.514 33.5377C185.619 33.5399 185.724 33.5193 185.821 33.4773C185.902 33.4413 185.973 33.3826 186.024 33.308C186.074 33.2322 186.099 33.142 186.096 33.0504C186.099 32.9492 186.072 32.8494 186.017 32.7651C185.957 32.6843 185.88 32.6185 185.791 32.5725C185.686 32.5144 185.577 32.4655 185.464 32.4263L185.071 32.2848C184.808 32.2091 184.566 32.0681 184.369 31.8742C184.286 31.7833 184.222 31.6762 184.181 31.5595C184.139 31.4427 184.121 31.3185 184.127 31.1944C184.121 30.9765 184.18 30.7619 184.296 30.5796C184.413 30.4043 184.576 30.2673 184.766 30.1851C185.207 30.0011 185.7 30.0011 186.141 30.1851C186.332 30.2717 186.495 30.4106 186.613 30.5865C186.733 30.7688 186.796 30.9839 186.794 31.2037H185.995C185.99 31.1159 185.964 31.0307 185.92 30.9554C185.872 30.8777 185.806 30.8132 185.728 30.7675C185.64 30.7174 185.54 30.6926 185.439 30.6956C185.349 30.6912 185.259 30.7071 185.175 30.742C185.1 30.7738 185.034 30.8259 184.985 30.8928C184.938 30.9662 184.913 31.0528 184.915 31.141C184.915 31.2239 184.939 31.3048 184.985 31.373C185.037 31.4421 185.102 31.4991 185.177 31.5401C185.269 31.5936 185.366 31.6378 185.466 31.6723L185.828 31.7953C186.011 31.8563 186.19 31.9339 186.36 32.0273C186.517 32.1153 186.651 32.2401 186.751 32.3915C186.854 32.5685 186.905 32.7726 186.896 32.9785C186.897 33.1846 186.84 33.3866 186.733 33.5609C186.62 33.746 186.46 33.896 186.27 33.9947C186.04 34.1169 185.784 34.179 185.525 34.1757Z" fill="#7FB51F"/>
<path id="Vector_32" d="M37.6243 3.79422C35.5434 1.80986 32.8165 0.694622 29.9774 0.666748C28.6381 0.667121 27.3125 0.944183 26.0795 1.48146C24.8465 2.01873 23.7313 2.80524 22.8002 3.79422C21.7074 4.93531 20.8394 6.2824 20.2437 7.76156C19.3095 6.09487 17.949 4.7228 16.3095 3.79422C14.9119 3.01115 13.3441 2.6041 11.7521 2.61098C10.0925 2.61654 8.45733 3.0218 6.97783 3.79422C5.01237 4.82176 3.36099 6.38647 2.20545 8.31612C1.04991 10.2458 0.43502 12.4655 0.428467 14.7311L0.428467 35.3334H41.7166V13.2718C41.7158 11.4861 41.3513 9.72043 40.6466 8.08818C39.9418 6.45594 38.9123 4.99327 37.6243 3.79422ZM6.82652 26.7166L7.48823 25.538L11.3727 18.6288C11.4763 18.4432 11.6258 18.2891 11.806 18.1818C11.9863 18.0746 12.1909 18.0181 12.3991 18.0181C12.6074 18.0181 12.812 18.0746 12.9922 18.1818C13.1724 18.2891 13.3219 18.4432 13.4256 18.6288L17.31 25.538L17.9717 26.7166L21.0883 21.174L25.045 14.1232C25.2073 13.8352 25.4405 13.596 25.7211 13.4297C26.0017 13.2635 26.32 13.176 26.644 13.176C26.968 13.176 27.2862 13.2635 27.5669 13.4297C27.8475 13.596 28.0807 13.8352 28.2429 14.1232L31.748 20.3642L35.3185 26.7166H6.82652Z" fill="#7FB51F"/>
</g>
</g>
</svg>
