<svg width="32" height="32" viewBox="0 0 32 32" fill="none" xmlns="http://www.w3.org/2000/svg">
<g id="fi_3253086" clip-path="url(#clip0_1188_50)">
<path id="Vector 1" opacity="0.1" d="M0.223155 23.1618C-0.0589054 20.752 -0.098086 18.3874 0.248062 16.248C0.673696 13.6174 1.78493 10.6909 2.99894 8.07362C5.37163 2.95839 9.61911 1.16885 14.7912 0.362065C22.0007 -0.762522 31.9372 0.362091 32 9.08714C31.6383 12.2073 29.2517 20.8815 21.1951 21.5434C18.5313 21.7622 17.5348 24.4378 16.3612 27.5006C13.2729 35.5602 1.25575 31.9835 0.223155 23.1618Z" fill="#015637"/>
<g id="Group">
<path id="Vector" d="M9.16161 9.02368C8.74366 9.02368 8.40363 9.36372 8.40363 9.78171C8.40363 10.1997 8.74366 10.5397 9.16161 10.5397C9.57961 10.5397 9.91964 10.1997 9.91964 9.78171C9.91964 9.36372 9.57961 9.02368 9.16161 9.02368Z" fill="#7FB51F"/>
<path id="Vector_2" d="M20.7572 25.5248C21.106 24.6833 20.7066 23.7184 19.8651 23.3696C19.0236 23.0208 18.0587 23.4202 17.7099 24.2617C17.3611 25.1032 17.7605 26.0682 18.602 26.417C19.4435 26.7658 20.4084 26.3663 20.7572 25.5248Z" fill="#7FB51F"/>
<path id="Vector_3" d="M16.2754 24.8888C16.2754 24.7187 16.2907 24.5523 16.3184 24.3901H7.77115C7.07688 24.3901 6.51202 23.8252 6.51202 23.1309C6.51202 22.4366 7.07688 21.8717 7.77115 21.8717H13.6634C15.0031 21.8717 16.0931 20.7818 16.0931 19.4421C16.0931 18.1024 15.0031 17.0125 13.6634 17.0125H11.0687L10.2897 18.3148H13.6634C14.285 18.3148 14.7907 18.8205 14.7907 19.4421C14.7907 20.0637 14.285 20.5694 13.6634 20.5694H7.77115C6.35875 20.5694 5.20966 21.7185 5.20966 23.1309C5.20966 24.5433 6.35875 25.6924 7.77115 25.6924H16.3876C16.3151 25.4367 16.2754 25.1673 16.2754 24.8888Z" fill="#7FB51F"/>
<path id="Vector_4" d="M26.7995 15.8749C26.7892 15.6184 26.6291 15.3918 26.3907 15.2965L19.469 12.5278C19.2683 12.4476 19.041 12.472 18.8621 12.5932C18.6831 12.7143 18.5759 12.9163 18.5759 13.1323V22.0104C18.7855 21.9631 19.0031 21.9372 19.2267 21.9372C19.4506 21.9372 19.6685 21.9631 19.8783 22.0106V19.7404L26.4383 16.4843C26.6683 16.3702 26.8098 16.1315 26.7995 15.8749Z" fill="#7FB51F"/>
<path id="Vector_5" d="M13.1861 9.70127C13.1861 7.496 11.3983 5.70825 9.19303 5.70825C6.98776 5.70825 5.20001 7.496 5.20001 9.70127V9.71783C5.20001 10.5149 5.41329 11.2975 5.81771 11.9844L8.85633 17.1451C8.99387 17.3787 9.33134 17.3799 9.47049 17.1472L12.5526 11.9943C12.9671 11.3013 13.1861 10.5088 13.1861 9.70127ZM9.16164 11.842C8.02556 11.842 7.10128 10.9177 7.10128 9.78163C7.10128 8.64556 8.02556 7.72128 9.16164 7.72128C10.2977 7.72128 11.222 8.64556 11.222 9.78163C11.222 10.9178 10.2977 11.842 9.16164 11.842Z" fill="#7FB51F"/>
</g>
</g>
<defs>
<clipPath id="clip0_1188_50">
<rect width="32" height="32" fill="white"/>
</clipPath>
</defs>
</svg>
