<svg width="24" height="24" viewBox="0 0 24 24" fill="none" xmlns="http://www.w3.org/2000/svg">
<g clip-path="url(#clip0_285_6997)">
<path opacity="0.1" d="M0.167366 17.3713C-0.0441791 15.564 -0.0735645 13.7906 0.186047 12.186C0.505272 10.2131 1.3387 8.01814 2.2492 6.05522C4.02872 2.2188 7.21433 0.876638 11.0934 0.271549C16.5005 -0.571892 23.9529 0.271568 24 6.81535C23.7287 9.15548 21.9388 15.6611 15.8963 16.1575C13.8985 16.3217 13.1511 18.3284 12.2709 20.6255C9.95468 26.6702 0.941815 23.9876 0.167366 17.3713Z" fill="#7FB51F"/>
<path d="M16.8511 12.873C15.1124 12.873 13.7031 14.2823 13.7031 16.0211C13.7031 17.7598 15.1124 19.1691 16.8511 19.1691C18.5899 19.1691 19.9992 17.7598 19.9992 16.0211C19.9992 14.2823 18.5899 12.873 16.8511 12.873ZM18.2449 15.887L16.7079 17.1249C16.6162 17.1988 16.5016 17.2389 16.3846 17.2389C16.3652 17.2389 16.3457 17.2378 16.3256 17.2355C16.1886 17.22 16.0637 17.1501 15.9789 17.0412L15.3748 16.2709C15.1989 16.0463 15.2385 15.7225 15.462 15.5465C15.6872 15.3706 16.0098 15.4101 16.1864 15.6337L16.4677 15.993L17.5979 15.0823C17.8203 14.903 18.1446 14.9396 18.3234 15.1608C18.5022 15.3832 18.4673 15.7082 18.2449 15.887Z" fill="#7FB51F"/>
<path d="M12.8443 16.0216C12.8443 13.8118 14.6421 12.014 16.852 12.014C17.5861 12.014 18.2727 12.2157 18.8653 12.5618V7.40339C18.8653 6.10246 17.8108 5.04797 16.5098 5.04797H15.272V4.78434C15.272 4.49779 15.037 4.26855 14.7562 4.26855C14.4696 4.26855 14.2404 4.49779 14.2404 4.78434V5.04797H8.06812V4.78434C8.06812 4.49779 7.83888 4.26855 7.55234 4.26855C7.26579 4.26855 7.03655 4.49779 7.03655 4.78434V5.04797H5.79293C4.492 5.04797 3.4375 6.10246 3.4375 7.40339V15.8508C3.4375 17.1518 4.492 18.2063 5.79293 18.2063H13.4965C13.0856 17.577 12.8443 16.8274 12.8443 16.0216ZM14.8599 9.82416C15.1889 9.82416 15.4553 10.0906 15.4553 10.4196C15.4553 10.7486 15.1889 11.0151 14.8599 11.0151C14.5309 11.0151 14.2644 10.7486 14.2644 10.4196C14.2644 10.0906 14.5309 9.82416 14.8599 9.82416ZM7.44574 14.2594C7.11678 14.2594 6.85029 13.9929 6.85029 13.6639C6.85029 13.3349 7.11678 13.0685 7.44574 13.0685C7.7747 13.0685 8.04119 13.3349 8.04119 13.6639C8.04119 13.9929 7.7747 14.2594 7.44574 14.2594ZM7.44574 11.0151C7.11678 11.0151 6.85029 10.7486 6.85029 10.4196C6.85029 10.0906 7.11678 9.82416 7.44574 9.82416C7.7747 9.82416 8.04119 10.0906 8.04119 10.4196C8.04119 10.7486 7.7747 11.0151 7.44574 11.0151ZM11.1531 14.2594C10.8241 14.2594 10.5577 13.9929 10.5577 13.6639C10.5577 13.3349 10.8241 13.0685 11.1531 13.0685C11.4821 13.0685 11.7486 13.3349 11.7486 13.6639C11.7486 13.9929 11.4815 14.2594 11.1531 14.2594ZM11.1531 11.0151C10.8241 11.0151 10.5577 10.7486 10.5577 10.4196C10.5577 10.0906 10.8241 9.82416 11.1531 9.82416C11.4821 9.82416 11.7486 10.0906 11.7486 10.4196C11.7486 10.7486 11.4815 11.0151 11.1531 11.0151Z" fill="#7FB51F"/>
</g>
<defs>
<clipPath id="clip0_285_6997">
<rect width="24" height="24" fill="white"/>
</clipPath>
</defs>
</svg>
