<svg width="14" height="15" viewBox="0 0 14 15" fill="none" xmlns="http://www.w3.org/2000/svg">
<g id="fi_159604" clip-path="url(#clip0_285_6944)">
<g id="Group">
<path id="Vector" d="M7 3.32739C4.32515 3.32739 1.89946 4.79083 0.109543 7.16783C-0.0365143 7.36258 -0.0365143 7.63464 0.109543 7.82939C1.89946 10.2093 4.32515 11.6727 7 11.6727C9.67485 11.6727 12.1005 10.2093 13.8905 7.83225C14.0365 7.63751 14.0365 7.36544 13.8905 7.1707C12.1005 4.79083 9.67485 3.32739 7 3.32739ZM7.19188 10.4384C5.41628 10.5501 3.94998 9.08662 4.06168 7.30816C4.15332 5.84187 5.34182 4.65336 6.80812 4.56172C8.58372 4.45003 10.05 5.91346 9.93832 7.69192C9.84382 9.15536 8.65531 10.3439 7.19188 10.4384ZM7.1031 9.0809C6.14657 9.14104 5.35614 8.35347 5.41915 7.39694C5.46783 6.60652 6.10934 5.96788 6.89977 5.91633C7.8563 5.85618 8.64672 6.64375 8.58372 7.60028C8.53217 8.39357 7.89066 9.03221 7.1031 9.0809Z" fill="white"/>
</g>
</g>
<defs>
<clipPath id="clip0_285_6944">
<rect width="14" height="14" fill="white" transform="translate(0 0.5)"/>
</clipPath>
</defs>
</svg>
