<svg width="14" height="14" viewBox="0 0 14 14" fill="none" xmlns="http://www.w3.org/2000/svg">
<g id="Property 1=Show">
<path id="Vector" fill-rule="evenodd" clip-rule="evenodd" d="M2.10087 4.86781C3.11974 3.89777 4.71963 2.91667 7.00001 2.91667C9.28037 2.91667 10.8803 3.89777 11.8991 4.86781C12.4073 5.35156 12.7736 5.83456 13.0135 6.19734C13.1337 6.37905 13.2228 6.53165 13.2827 6.64044C13.3127 6.69492 13.3354 6.7385 13.351 6.76941C13.3588 6.78487 13.3648 6.79718 13.3692 6.80605L13.3744 6.8169L13.376 6.82034L13.3766 6.82156C13.3766 6.82156 13.377 6.82244 12.9564 7.00041C13.377 7.17839 13.3768 7.1788 13.3768 7.1788L13.376 7.18049L13.3744 7.18393L13.3691 7.19478C13.3648 7.20371 13.3587 7.21596 13.3509 7.23141C13.3353 7.26233 13.3126 7.30591 13.2827 7.36033C13.2228 7.46912 13.1337 7.62166 13.0135 7.80337C12.7735 8.16609 12.4072 8.64897 11.8991 9.13261C10.8802 10.1025 9.28037 11.0833 7.00001 11.0833C4.71966 11.0833 3.11978 10.1025 2.1009 9.13261C1.59279 8.64897 1.22644 8.16609 0.986518 7.80337C0.866328 7.62166 0.7772 7.46912 0.717333 7.36033C0.687384 7.30591 0.664699 7.26233 0.649065 7.23141C0.641249 7.21596 0.635188 7.20371 0.630854 7.19478L0.62565 7.18393L0.624017 7.18049L0.62344 7.17926C0.62344 7.17926 0.62302 7.17839 1.04361 7.00041C0.623002 6.82244 0.623195 6.82203 0.623195 6.82203L0.624 6.82034L0.625639 6.8169L0.630842 6.80605C0.63517 6.79718 0.641231 6.78487 0.649048 6.76941C0.664681 6.7385 0.687361 6.69492 0.717315 6.64044C0.777183 6.53165 0.866305 6.37905 0.986489 6.19734C1.22641 5.83456 1.59276 5.35156 2.10087 4.86781ZM1.04361 7.00041L0.623195 6.82203C0.570303 6.93537 0.570119 7.06511 0.62302 7.17839L1.04361 7.00041ZM1.55884 7.00036C1.60804 7.08733 1.67663 7.20207 1.7655 7.33641C1.97761 7.65707 2.30263 8.08541 2.7518 8.51294C3.64747 9.36548 5.02579 10.207 7.00001 10.207C8.97424 10.207 10.3525 9.36548 11.2482 8.51294C11.6974 8.08541 12.0224 7.65707 12.2345 7.33641C12.3234 7.20207 12.392 7.08733 12.4412 7.00036C12.392 6.91344 12.3234 6.79864 12.2345 6.66424C12.0224 6.34346 11.6974 5.91506 11.2482 5.48743C10.3525 4.63468 8.97418 3.79301 7.00001 3.79301C5.02582 3.79301 3.64752 4.63468 2.75183 5.48743C2.30266 5.91506 1.97764 6.34346 1.76552 6.66424C1.67664 6.79864 1.60804 6.91344 1.55884 7.00036ZM12.9564 7.00041L13.3768 7.1788C13.4297 7.06551 13.4299 6.93578 13.377 6.82244L12.9564 7.00041ZM7.00001 5.41367C6.07933 5.41367 5.33298 6.12413 5.33298 7.00059C5.33298 7.87705 6.07933 8.58749 7.00001 8.58749C7.92062 8.58749 8.667 7.87705 8.667 7.00059C8.667 6.12413 7.92062 5.41367 7.00001 5.41367ZM4.41243 7.00059C4.41243 5.64017 5.57092 4.53733 7.00001 4.53733C8.42906 4.53733 9.58756 5.64017 9.58756 7.00059C9.58756 8.36104 8.42906 9.46383 7.00001 9.46383C5.57092 9.46383 4.41243 8.36104 4.41243 7.00059Z" fill="black"/>
</g>
</svg>
