<svg width="20" height="21" viewBox="0 0 20 21" fill="none" xmlns="http://www.w3.org/2000/svg">
<g id="fi_4121044" clip-path="url(#clip0_594_16572)">
<path id="Vector" d="M3.33398 8C4.7147 8 5.83398 6.88071 5.83398 5.5C5.83398 4.11929 4.7147 3 3.33398 3C1.95327 3 0.833984 4.11929 0.833984 5.5C0.833984 6.88071 1.95327 8 3.33398 8Z" fill="#7FB51F"/>
<path id="Vector_2" d="M6.075 9.72492C5.23625 10.2483 4.54449 10.9765 4.06485 11.8411C3.58521 12.7056 3.33347 13.6779 3.33333 14.6666H1.66667C1.22504 14.6653 0.801888 14.4892 0.489612 14.177C0.177337 13.8647 0.00131894 13.4415 0 12.9999L0 11.3333C0.00197841 10.6708 0.266006 10.0361 0.734419 9.56767C1.20283 9.09926 1.83757 8.83523 2.5 8.83325H4.16667C4.53048 8.83407 4.88972 8.91429 5.21933 9.06829C5.54893 9.2223 5.84095 9.44639 6.075 9.72492Z" fill="#7FB51F"/>
<path id="Vector_3" d="M16.666 8C18.0467 8 19.166 6.88071 19.166 5.5C19.166 4.11929 18.0467 3 16.666 3C15.2853 3 14.166 4.11929 14.166 5.5C14.166 6.88071 15.2853 8 16.666 8Z" fill="#7FB51F"/>
<path id="Vector_4" d="M20.0008 11.333V12.9997C19.9995 13.4413 19.8234 13.8645 19.5112 14.1767C19.1989 14.489 18.7757 14.665 18.3341 14.6663H16.6674C16.6673 13.6777 16.4156 12.7053 15.9359 11.8408C15.4563 10.9763 14.7645 10.2481 13.9258 9.72467C14.1598 9.44615 14.4519 9.22206 14.7815 9.06805C15.1111 8.91404 15.4703 8.83383 15.8341 8.83301H17.5008C18.1632 8.83499 18.798 9.09901 19.2664 9.56743C19.7348 10.0358 19.9988 10.6706 20.0008 11.333Z" fill="#7FB51F"/>
<path id="Vector_5" d="M9.99935 9.66667C11.8403 9.66667 13.3327 8.17428 13.3327 6.33333C13.3327 4.49238 11.8403 3 9.99935 3C8.1584 3 6.66602 4.49238 6.66602 6.33333C6.66602 8.17428 8.1584 9.66667 9.99935 9.66667Z" fill="#7FB51F"/>
<path id="Vector_6" d="M15 14.6667V15.5C14.998 16.1624 14.734 16.7972 14.2656 17.2656C13.7972 17.734 13.1624 17.998 12.5 18H7.5C6.83757 17.998 6.20283 17.734 5.73442 17.2656C5.26601 16.7972 5.00198 16.1624 5 15.5V14.6667C5 13.5616 5.43899 12.5018 6.22039 11.7204C7.00179 10.939 8.0616 10.5 9.16667 10.5H10.8333C11.9384 10.5 12.9982 10.939 13.7796 11.7204C14.561 12.5018 15 13.5616 15 14.6667Z" fill="#7FB51F"/>
</g>
<defs>
<clipPath id="clip0_594_16572">
<rect width="20" height="20" fill="white" transform="translate(0 0.5)"/>
</clipPath>
</defs>
</svg>
