<svg width="32" height="32" viewBox="0 0 32 32" fill="none" xmlns="http://www.w3.org/2000/svg">
<g id="fi_845646" clip-path="url(#clip0_548_15832)">
<g id="Group">
<path id="Vector" d="M16 6.5252e-05C24.8365 6.5252e-05 32 7.16351 32 16C32 24.8365 24.8365 32 16 32C7.16351 32 6.63658e-05 24.8365 6.63658e-05 16C-0.0250774 7.18857 7.09757 0.025209 15.9089 6.5252e-05C15.9393 -2.17507e-05 15.9697 -2.17507e-05 16 6.5252e-05Z" fill="#1884D2"/>
<g id="Vector_2">
<path d="M14 8.875C14 7.84138 14.8414 7 15.875 7C16.9086 7 17.75 7.84138 17.75 8.875C17.75 9.90862 16.9086 10.75 15.875 10.75C14.8414 10.75 14 9.90862 14 8.875Z" fill="white"/>
<path d="M15.875 12.625C16.9086 12.625 17.75 13.4664 17.75 14.5V23.875C17.75 24.9086 16.9086 25.75 15.875 25.75C14.8414 25.75 14 24.9086 14 23.875V14.5C14 13.4664 14.8414 12.625 15.875 12.625Z" fill="white"/>
</g>
</g>
</g>
<defs>
<clipPath id="clip0_548_15832">
<rect width="32" height="32" fill="white"/>
</clipPath>
</defs>
</svg>
