<svg width="14" height="15" viewBox="0 0 14 15" fill="none" xmlns="http://www.w3.org/2000/svg">
<g id="fi_7939880">
<path id="Vector" fill-rule="evenodd" clip-rule="evenodd" d="M2.91667 1.66675H11.0833C11.725 1.66675 12.25 2.19175 12.25 2.83341V11.7001C12.25 12.5167 11.4333 13.1001 10.675 12.8084L9.74167 12.4584C9.45 12.3417 9.15833 12.3417 8.86667 12.5167L7.46667 13.1584C7.175 13.2751 6.825 13.2751 6.53333 13.1584L5.13333 12.5167C4.84167 12.4001 4.55 12.4001 4.25833 12.4584L3.325 12.7501C2.56667 13.0417 1.75 12.4584 1.75 11.7001V2.83341C1.75 2.19175 2.275 1.66675 2.91667 1.66675ZM9.91667 5.05008C10.15 5.05008 10.3833 4.87508 10.3833 4.58342C10.3833 4.29175 10.15 4.11675 9.91667 4.11675H4.08333C3.85 4.11675 3.61667 4.35008 3.61667 4.58342C3.61667 4.81675 3.85 5.05008 4.08333 5.05008H9.91667ZM10.3833 6.91675C10.3833 7.15008 10.2083 7.38342 9.91667 7.38342H4.08333C3.85 7.38342 3.61667 7.20842 3.61667 6.91675C3.61667 6.62508 3.79167 6.45008 4.08333 6.45008H9.91667C10.15 6.45008 10.3833 6.68341 10.3833 6.91675ZM7 9.71675C7.23333 9.71675 7.46667 9.54175 7.46667 9.25008C7.46667 8.95842 7.29167 8.78342 7 8.78342H4.08333C3.85 8.78342 3.61667 8.95842 3.61667 9.25008C3.61667 9.54175 3.79167 9.71675 4.08333 9.71675H7Z" fill="#015637"/>
</g>
</svg>
