<svg width="32" height="32" viewBox="0 0 32 32" fill="none" xmlns="http://www.w3.org/2000/svg">
<g clip-path="url(#clip0_211_3705)">
<path opacity="0.1" d="M0.223155 23.1618C-0.0589054 20.752 -0.098086 18.3874 0.248062 16.248C0.673696 13.6174 1.78493 10.6909 2.99894 8.07362C5.37163 2.95839 9.61911 1.16885 14.7912 0.362065C22.0007 -0.762522 31.9372 0.362091 32 9.08714C31.6383 12.2073 29.2517 20.8815 21.1951 21.5434C18.5313 21.7622 17.5348 24.4378 16.3612 27.5006C13.2729 35.5602 1.25575 31.9835 0.223155 23.1618Z" fill="#7FB51F"/>
<path d="M4 22.7781V24.2844C4 24.6727 4.31481 24.9875 4.70312 24.9875C5.09144 24.9875 5.40625 24.6727 5.40625 24.2844V23.4813H26.5938V24.2844C26.5938 24.6727 26.9086 24.9875 27.2969 24.9875C27.6852 24.9875 28 24.6727 28 24.2844V22.7781V20.4688H4V22.7781Z" fill="#7FB51F"/>
<path d="M25.4141 14.5437H6.58591C5.16006 14.5437 4 15.7038 4 17.1297V19.0625H28V17.1297C28 15.7038 26.8399 14.5437 25.4141 14.5437Z" fill="#7FB51F"/>
<path d="M13.3633 11.4312C12.7128 11.4312 12.1836 11.9603 12.1836 12.6108V13.1374H19.8148V12.6108C19.8148 11.9603 19.2857 11.4312 18.6352 11.4312H13.3633Z" fill="#7FB51F"/>
<path d="M10.7773 12.6109C10.7773 11.185 11.9373 10.025 13.3633 10.025H18.6352C20.0611 10.025 21.2211 11.185 21.2211 12.6109V13.1374H24.9867V9.59836C24.9867 8.17247 23.8267 7.01245 22.4007 7.01245H9.59762C8.17173 7.01245 7.01172 8.17247 7.01172 9.59836V13.1374H10.7773V12.6109Z" fill="#7FB51F"/>
</g>
<defs>
<clipPath id="clip0_211_3705">
<rect width="32" height="32" fill="white"/>
</clipPath>
</defs>
</svg>
