<svg width="14" height="14" viewBox="0 0 14 14" fill="none" xmlns="http://www.w3.org/2000/svg">
<path d="M10.3355 1.77858C9.73033 1.28308 9.02274 0.928052 8.26376 0.739114C7.50478 0.550176 6.71333 0.532035 5.94649 0.685999C4.9605 0.888147 4.0534 1.36946 3.33324 2.07261C2.61308 2.77576 2.11022 3.6711 1.88456 4.65198C1.65891 5.63286 1.71996 6.65793 2.06046 7.60509C2.40096 8.55224 3.00654 9.38156 3.80508 9.99425C4.71679 10.6615 5.49304 11.4964 6.09233 12.4542L6.50066 13.1332C6.55252 13.2194 6.62581 13.2908 6.71341 13.3403C6.80101 13.3899 6.89994 13.4159 7.00058 13.4159C7.10122 13.4159 7.20014 13.3899 7.28774 13.3403C7.37534 13.2908 7.44863 13.2194 7.50049 13.1332L7.89191 12.481C8.41377 11.5636 9.12533 10.7682 9.97908 10.1477C10.6485 9.68708 11.2018 9.07723 11.5952 8.36624C11.9886 7.65525 12.2114 6.86256 12.246 6.05072C12.2806 5.23888 12.1261 4.4301 11.7946 3.6882C11.4632 2.9463 10.9639 2.29157 10.3361 1.77567L10.3355 1.77858ZM6.99999 8.16667C6.5385 8.16667 6.08738 8.02982 5.70366 7.77343C5.31995 7.51704 5.02088 7.15262 4.84427 6.72626C4.66767 6.2999 4.62146 5.83074 4.71149 5.37812C4.80153 4.9255 5.02376 4.50974 5.35008 4.18342C5.6764 3.85709 6.09216 3.63487 6.54478 3.54483C6.99741 3.4548 7.46656 3.50101 7.89292 3.67761C8.31928 3.85422 8.6837 4.15329 8.94009 4.537C9.19648 4.92072 9.33333 5.37184 9.33333 5.83333C9.33333 6.45217 9.08749 7.04566 8.64991 7.48325C8.21232 7.92083 7.61883 8.16667 6.99999 8.16667Z" fill="#7FB51F"/>
</svg>
