<svg width="24" height="24" viewBox="0 0 24 24" fill="none" xmlns="http://www.w3.org/2000/svg">
<g clip-path="url(#clip0_285_7011)">
<path opacity="0.1" d="M0.167366 17.3713C-0.0441791 15.564 -0.0735645 13.7906 0.186047 12.186C0.505272 10.2131 1.3387 8.01814 2.2492 6.05522C4.02872 2.2188 7.21433 0.876638 11.0934 0.271549C16.5005 -0.571892 23.9529 0.271568 24 6.81535C23.7287 9.15548 21.9388 15.6611 15.8963 16.1575C13.8985 16.3217 13.1511 18.3284 12.2709 20.6255C9.95468 26.6702 0.941815 23.9876 0.167366 17.3713Z" fill="#7FB51F"/>
<g clip-path="url(#clip1_285_7011)">
<path d="M14.0783 6.26397L15.2517 5.12022C15.3353 5.03883 15.3944 4.93567 15.4224 4.82241C15.4504 4.70915 15.4462 4.59032 15.4101 4.47936C15.3741 4.3684 15.3077 4.26974 15.2185 4.19455C15.1293 4.11936 15.0208 4.07065 14.9053 4.05391L13.2833 3.81835L12.5583 2.34853C12.5007 2.25107 12.4187 2.1703 12.3204 2.11419C12.2221 2.05808 12.1109 2.02856 11.9977 2.02856C11.8845 2.02856 11.7732 2.05808 11.6749 2.11419C11.5766 2.1703 11.4946 2.25107 11.437 2.34853L10.712 3.81828L9.09003 4.05385C8.97457 4.07058 8.8661 4.1193 8.77689 4.19449C8.68769 4.26968 8.62131 4.36833 8.58526 4.47929C8.54922 4.59025 8.54495 4.70909 8.57295 4.82235C8.60094 4.9356 8.66007 5.03877 8.74366 5.12016L9.91703 6.26391L9.63991 7.87947C9.62017 7.99444 9.633 8.11263 9.67694 8.22069C9.72089 8.32874 9.79419 8.42234 9.88857 8.49089C9.98294 8.55945 10.0946 8.60023 10.211 8.60861C10.3273 8.617 10.4437 8.59266 10.5469 8.53835L11.9977 7.77547L13.4485 8.53841C13.5517 8.59272 13.6681 8.61706 13.7844 8.60868C13.9008 8.60029 14.0124 8.55951 14.1068 8.49096C14.2012 8.4224 14.2745 8.3288 14.3184 8.22075C14.3624 8.11269 14.3752 7.9945 14.3555 7.87953L14.0783 6.26397Z" fill="#7FB51F"/>
<path d="M21.9723 6.32692C21.9363 6.21598 21.8699 6.11735 21.7807 6.04216C21.6915 5.96698 21.583 5.91825 21.4676 5.90148L19.8458 5.66585L19.1202 4.19617C19.0627 4.09865 18.9807 4.01782 18.8824 3.96167C18.7841 3.90551 18.6729 3.87598 18.5597 3.87598C18.4465 3.87598 18.3352 3.90551 18.2369 3.96167C18.1386 4.01782 18.0567 4.09865 17.9992 4.19617L17.2742 5.66585L15.6525 5.90148C15.5371 5.91821 15.4287 5.9669 15.3395 6.04205C15.2503 6.1172 15.1839 6.2158 15.1478 6.32672C15.1118 6.43763 15.1074 6.55642 15.1354 6.66965C15.1633 6.78289 15.2223 6.88605 15.3058 6.96748L16.4795 8.11123L16.2024 9.72685C16.1826 9.8418 16.1954 9.95998 16.2393 10.068C16.2832 10.1761 16.3565 10.2697 16.4508 10.3383C16.5452 10.4069 16.6568 10.4477 16.7731 10.4561C16.8895 10.4646 17.0058 10.4403 17.1091 10.386L18.5596 9.62354L20.0104 10.386C20.1136 10.4404 20.23 10.4647 20.3463 10.4563C20.4627 10.4479 20.5744 10.4071 20.6687 10.3386C20.7631 10.27 20.8364 10.1764 20.8804 10.0684C20.9243 9.96033 20.9371 9.84213 20.9174 9.72717L20.6403 8.11154L21.8138 6.96779C21.8974 6.88642 21.9566 6.78326 21.9846 6.67C22.0126 6.55674 22.0084 6.43789 21.9723 6.32692Z" fill="#7FB51F"/>
<path d="M8.35041 5.90138L6.72873 5.66576L6.00373 4.19607C5.95212 4.09149 5.87227 4.00343 5.77323 3.94186C5.67418 3.88029 5.55988 3.84766 5.44326 3.84766C5.32663 3.84766 5.21234 3.88029 5.11329 3.94186C5.01424 4.00343 4.9344 4.09149 4.88279 4.19607L4.15704 5.66576L2.53529 5.90138C2.41984 5.91813 2.31139 5.96685 2.22219 6.04203C2.13299 6.11722 2.06662 6.21586 2.03058 6.32681C1.99454 6.43776 1.99026 6.55658 2.01825 6.66983C2.04623 6.78308 2.10535 6.88624 2.18891 6.96763L3.36254 8.11145L3.08542 9.72707C3.06568 9.84204 3.0785 9.96023 3.12245 10.0683C3.16639 10.1763 3.2397 10.2699 3.33407 10.3385C3.42845 10.407 3.54012 10.4478 3.65647 10.4562C3.77281 10.4646 3.88918 10.4403 3.99241 10.3859L5.44323 9.62345L6.89373 10.3859C6.99696 10.4403 7.11333 10.4646 7.22967 10.4562C7.34602 10.4478 7.4577 10.407 7.55207 10.3385C7.64644 10.2699 7.71975 10.1763 7.76369 10.0683C7.80764 9.96023 7.82047 9.84204 7.80073 9.72707L7.5236 8.11145L8.69729 6.9677C8.78079 6.88627 8.83984 6.78311 8.86776 6.66987C8.89569 6.55663 8.89137 6.43784 8.8553 6.32693C8.81923 6.21602 8.75284 6.11742 8.66365 6.04227C8.57446 5.96712 8.46584 5.91811 8.35041 5.90138Z" fill="#7FB51F"/>
<path d="M18.25 11.375H5.75C5.25289 11.3755 4.77629 11.5733 4.42478 11.9248C4.07327 12.2763 3.87555 12.7529 3.875 13.25V18.25C3.87555 18.7471 4.07327 19.2237 4.42478 19.5752C4.77629 19.9267 5.25289 20.1245 5.75 20.125H9.86619L11.5581 21.8169C11.6161 21.8749 11.685 21.921 11.7608 21.9524C11.8367 21.9838 11.9179 22 12 22C12.0821 22 12.1633 21.9838 12.2392 21.9524C12.315 21.921 12.3839 21.8749 12.4419 21.8169L14.1338 20.125H18.25C18.7471 20.1245 19.2237 19.9267 19.5752 19.5752C19.9267 19.2237 20.1245 18.7471 20.125 18.25V13.25C20.1245 12.7529 19.9267 12.2763 19.5752 11.9248C19.2237 11.5733 18.7471 11.3755 18.25 11.375ZM17 17.625H7C6.83424 17.625 6.67527 17.5592 6.55806 17.4419C6.44085 17.3247 6.375 17.1658 6.375 17C6.375 16.8342 6.44085 16.6753 6.55806 16.5581C6.67527 16.4408 6.83424 16.375 7 16.375H17C17.1658 16.375 17.3247 16.4408 17.4419 16.5581C17.5592 16.6753 17.625 16.8342 17.625 17C17.625 17.1658 17.5592 17.3247 17.4419 17.4419C17.3247 17.5592 17.1658 17.625 17 17.625ZM17 15.125H7C6.83424 15.125 6.67527 15.0592 6.55806 14.9419C6.44085 14.8247 6.375 14.6658 6.375 14.5C6.375 14.3342 6.44085 14.1753 6.55806 14.0581C6.67527 13.9408 6.83424 13.875 7 13.875H17C17.1658 13.875 17.3247 13.9408 17.4419 14.0581C17.5592 14.1753 17.625 14.3342 17.625 14.5C17.625 14.6658 17.5592 14.8247 17.4419 14.9419C17.3247 15.0592 17.1658 15.125 17 15.125Z" fill="#7FB51F"/>
</g>
</g>
<defs>
<clipPath id="clip0_285_7011">
<rect width="24" height="24" fill="white"/>
</clipPath>
<clipPath id="clip1_285_7011">
<rect width="20" height="20" fill="white" transform="translate(2 2)"/>
</clipPath>
</defs>
</svg>
