<svg width="32" height="32" viewBox="0 0 32 32" fill="none" xmlns="http://www.w3.org/2000/svg">
<g clip-path="url(#clip0_594_16642)">
<path opacity="0.1" d="M0.223155 23.1618C-0.0589054 20.752 -0.098086 18.3874 0.248062 16.248C0.673696 13.6174 1.78493 10.6909 2.99894 8.07362C5.37163 2.95839 9.61911 1.16885 14.7912 0.362065C22.0007 -0.762522 31.9372 0.362091 32 9.08714C31.6383 12.2073 29.2517 20.8815 21.1951 21.5434C18.5313 21.7622 17.5348 24.4378 16.3612 27.5006C13.2729 35.5602 1.25575 31.9835 0.223155 23.1618Z" fill="#7FB51F"/>
<path d="M9.25 11C9.25 8.381 11.381 6.25 14 6.25C16.619 6.25 18.75 8.381 18.75 11C18.75 13.619 16.619 15.75 14 15.75C11.381 15.75 9.25 13.619 9.25 11ZM17 17.25H11C7.83 17.25 5.25 19.83 5.25 23C5.25 24.517 6.483 25.75 8 25.75H20C21.517 25.75 22.75 24.517 22.75 23C22.75 19.83 20.17 17.25 17 17.25Z" fill="#7FB51F"/>
</g>
<defs>
<clipPath id="clip0_594_16642">
<rect width="32" height="32" fill="white"/>
</clipPath>
</defs>
</svg>
