<svg width="57" height="56" viewBox="0 0 57 56" fill="none" xmlns="http://www.w3.org/2000/svg">
<g clip-path="url(#clip0_379_9095)">
<path d="M0.723835 40.5331C0.230228 36.3161 0.161663 32.178 0.767422 28.4341C1.51228 23.8305 3.45695 18.709 5.58145 14.1288C9.73366 5.17719 17.1668 2.04549 26.2179 0.633614C38.8345 -1.33441 56.2234 0.633659 56.3333 15.9025C55.7004 21.3628 51.5238 36.5426 37.4248 37.7009C32.7631 38.0839 31.0192 42.7662 28.9654 48.1261C23.5609 62.2304 2.53088 55.9711 0.723835 40.5331Z" fill="#E0E9E6"/>
<g clip-path="url(#clip1_379_9095)">
<path d="M23.1425 31.8995L23.0642 32.2252L27.555 35.2986L32.0446 32.2256L31.9676 31.8994C29.1947 33.2891 25.9152 33.289 23.1425 31.8995Z" fill="#7FB51F"/>
<path d="M27.5553 7.00049C23.2066 7.00049 20.3613 10.2272 19.7603 14.4123H35.3504C34.7492 10.2272 31.904 7.00049 27.5553 7.00049Z" fill="#7FB51F"/>
<path d="M36.2027 16.8816H18.9086L16.438 20.5875H38.6733L36.2027 16.8816Z" fill="#7FB51F"/>
<path d="M25.0848 44.0579H30.026V48.999H25.0848V44.0579Z" fill="#7FB51F"/>
<path d="M26.32 37.3071C25.6546 36.8615 20.5541 33.4468 19.7948 32.9385C15.1818 33.1217 11.4964 36.9199 11.4964 41.5785V48.9903H16.4376V44.059H18.9082V48.9903H22.6141V41.5884H26.32V37.3071Z" fill="#7FB51F"/>
<path d="M35.3161 32.9385C35.1459 33.0525 29.7021 36.6967 28.7907 37.3069V41.5884H32.4966V48.9903H36.2024V44.059H38.673V48.9903H43.6142V41.5785C43.6142 36.9297 39.9391 33.1226 35.3161 32.9385Z" fill="#7FB51F"/>
<path d="M34.9673 23.0579H20.1437C20.1437 27.1513 23.4621 30.4696 27.5555 30.4696C31.6489 30.4696 34.9673 27.1513 34.9673 23.0579Z" fill="#7FB51F"/>
</g>
</g>
<defs>
<clipPath id="clip0_379_9095">
<rect width="56" height="56" fill="white" transform="translate(0.333313)"/>
</clipPath>
<clipPath id="clip1_379_9095">
<rect width="42" height="42" fill="white" transform="translate(6.55566 7.00024)"/>
</clipPath>
</defs>
</svg>
