<svg width="32" height="32" viewBox="0 0 32 32" fill="none" xmlns="http://www.w3.org/2000/svg">
<g id="fi_497789" clip-path="url(#clip0_548_15806)">
<g id="Group">
<g id="Group_2">
<path id="Vector" d="M31.3351 23.9969L20.0311 3.21713C18.2149 0.159565 13.7876 0.155503 11.9689 3.21713L0.66543 23.9969C-1.19119 27.1212 1.05662 31.0776 4.69556 31.0776H27.3041C30.9399 31.0776 33.1917 27.1244 31.3351 23.9969ZM16 27.3276C14.9664 27.3276 14.125 26.4862 14.125 25.4526C14.125 24.4189 14.9664 23.5776 16 23.5776C17.0336 23.5776 17.875 24.4189 17.875 25.4526C17.875 26.4862 17.0336 27.3276 16 27.3276ZM17.875 19.8276C17.875 20.8612 17.0336 21.7026 16 21.7026C14.9664 21.7026 14.125 20.8612 14.125 19.8276V10.4526C14.125 9.41894 14.9664 8.57756 16 8.57756C17.0336 8.57756 17.875 9.41894 17.875 10.4526V19.8276Z" fill="#FFA800"/>
</g>
</g>
</g>
<defs>
<clipPath id="clip0_548_15806">
<rect width="32" height="32" fill="white"/>
</clipPath>
</defs>
</svg>
