<svg width="24" height="24" viewBox="0 0 24 24" fill="none" xmlns="http://www.w3.org/2000/svg">
<g clip-path="url(#clip0_285_7005)">
<path opacity="0.1" d="M0.167366 17.3713C-0.0441791 15.564 -0.0735645 13.7906 0.186047 12.186C0.505272 10.2131 1.3387 8.01814 2.2492 6.05522C4.02872 2.2188 7.21433 0.876638 11.0934 0.271549C16.5005 -0.571892 23.9529 0.271568 24 6.81535C23.7287 9.15548 21.9388 15.6611 15.8963 16.1575C13.8985 16.3217 13.1511 18.3284 12.2709 20.6255C9.95468 26.6702 0.941815 23.9876 0.167366 17.3713Z" fill="#7FB51F"/>
<path d="M18.7307 6.37008C17.9025 5.48659 16.766 5 15.5304 5C14.6068 5 13.761 5.28717 13.0164 5.85348C12.6406 6.13933 12.3002 6.48906 12 6.89725C11.7 6.48918 11.3594 6.13933 10.9835 5.85348C10.239 5.28717 9.39319 5 8.4696 5C7.23401 5 6.09741 5.48659 5.26917 6.37008C4.45081 7.24325 4 8.43613 4 9.72914C4 11.06 4.50427 12.2782 5.58691 13.563C6.55542 14.7123 7.94739 15.879 9.55933 17.23C10.1097 17.6914 10.7336 18.2144 11.3815 18.7714C11.5526 18.9188 11.7722 19 12 19C12.2277 19 12.4474 18.9188 12.6183 18.7717C13.2661 18.2145 13.8904 17.6913 14.441 17.2297C16.0527 15.8789 17.4447 14.7123 18.4132 13.5629C19.4958 12.2782 20 11.06 20 9.72902C20 8.43613 19.5492 7.24325 18.7307 6.37008Z" fill="#7FB51F"/>
</g>
<defs>
<clipPath id="clip0_285_7005">
<rect width="24" height="24" fill="white"/>
</clipPath>
</defs>
</svg>
